<svg width="185" height="68" viewBox="0 0 185 68" fill="none" xmlns="http://www.w3.org/2000/svg">
<g clip-path="url(#clip0_75_6384)">
<path fill-rule="evenodd" clip-rule="evenodd" d="M128.667 55.1507C125.616 51.797 117.473 54.0143 117.794 60.1208C117.342 59.146 117.112 58.1156 117.568 57.2166C116.399 57.5499 114.768 57.7519 113.664 57.1408C112.545 56.5195 111.12 54.6608 113.383 54.2365C113.213 51.5646 117.302 51.1656 117.382 54.2769C117.403 54.2971 117.056 54.5598 117.046 54.58C116.841 52.1303 114.051 52.6253 114.246 54.7214C114.477 57.2721 117.041 56.4589 118.16 55.671C121.271 53.489 125.034 51.605 128.466 54.7517L128.667 55.1457V55.1507Z" fill="#1A1A18"/>
<path fill-rule="evenodd" clip-rule="evenodd" d="M148.688 61.0195C147.764 64.343 141.613 65.7775 139.811 61.5953C139.831 62.4035 140.022 63.1712 140.619 63.6106C139.731 63.8076 138.577 64.2521 138.045 65.0552C137.503 65.8684 137.172 67.616 138.818 67.0907C139.586 68.9292 142.441 67.7322 141.462 65.631C141.467 65.6108 141.151 65.5603 141.141 65.5502C141.813 67.2523 139.796 67.9241 139.229 66.4543C138.542 64.6713 140.514 64.2976 141.517 64.4238C144.307 64.7673 147.433 64.6764 148.678 61.3529V61.0195H148.688Z" fill="#1A1A18"/>
<path fill-rule="evenodd" clip-rule="evenodd" d="M163.951 51.3833C161.201 49.8984 161.061 43.7969 165.06 42.8473C164.342 42.716 163.64 42.7564 163.143 43.2463C163.133 42.3675 162.952 41.1906 162.345 40.5391C161.728 39.8774 160.258 39.241 160.419 40.9027C158.667 41.2967 159.194 44.2313 161.216 43.6858C161.231 43.6959 161.337 43.4029 161.347 43.3928C159.731 43.7211 159.51 41.6806 160.9 41.4129C162.586 41.0846 162.556 43.0241 162.265 43.9585C161.457 46.5496 160.97 49.5347 163.655 51.3227L163.946 51.3884L163.951 51.3833Z" fill="#1A1A18"/>
<path fill-rule="evenodd" clip-rule="evenodd" d="M159.064 40.1143C158.583 40.6193 158.206 41.0891 157.67 41.4224C156.972 41.8518 156.38 41.7204 155.647 42.1144C155.858 41.6447 156.069 41.079 156.516 40.7658C157.143 40.3213 158.016 40.5941 158.613 40.3163C158.051 40.6092 157.148 40.5385 156.751 41.3618C157.509 41.3012 158.307 40.8214 159.064 40.1193V40.1143Z" fill="#1A1A18"/>
<path fill-rule="evenodd" clip-rule="evenodd" d="M158.347 40.4277C158.352 40.9429 158.397 41.3874 158.297 41.847C158.156 42.4481 157.79 42.6956 157.614 43.2966C157.484 42.9431 157.308 42.5441 157.378 42.14C157.474 41.5743 158.056 41.2409 158.221 40.7712C158.086 41.2258 157.589 41.6804 157.8 42.3117C158.156 41.8723 158.322 41.1955 158.352 40.4277H158.347Z" fill="#1A1A18"/>
<path d="M162.471 34.9878C162.471 34.9878 162.315 34.6545 162.039 34.7353C161.763 34.8111 161.508 35.0585 161.407 35.2101C161.312 35.3616 161.237 35.3667 161.096 35.5232C160.956 35.6849 160.93 35.6647 160.86 35.8313C160.79 35.993 160.755 36.0485 160.534 36.1344C160.313 36.2203 159.932 36.4627 159.807 36.6344C159.681 36.8062 159.696 37.0082 159.561 37.2153C159.405 37.4577 159.094 37.8163 159.139 38.1396C159.154 38.2558 159.23 38.3315 159.27 38.4275C159.651 38.0941 159.666 37.4476 159.967 37.0688C160.213 36.7607 160.539 36.3465 160.875 36.1495C160.348 36.5991 160.374 36.6496 160.163 36.8819C160.022 37.0435 159.867 37.3264 159.776 37.5385C159.686 37.7658 159.576 38.3063 159.33 38.5639C159.511 38.4628 159.832 37.9173 159.982 37.8062C160.449 37.4628 161.196 35.8515 161.553 35.4626C161.111 36.1849 160.012 38.2558 159.395 38.6548C159.711 38.4578 160.022 38.5133 160.93 37.8113C160.644 38.1497 159.932 38.6144 159.586 38.7356C159.295 38.8366 159.315 39.0437 159.199 39.2962C159.199 39.2962 160.067 39.1952 160.348 38.877C160.634 38.5588 161.086 38.0588 161.297 37.5183C161.508 36.9779 161.743 36.1596 161.834 35.8869C161.919 35.6091 162.009 35.4879 162.2 35.2909C162.391 35.0939 162.466 34.9828 162.466 34.9828L162.471 34.9878Z" fill="#1A1A18"/>
<path d="M159.009 39.3972C159.039 38.6042 158.357 37.397 157.85 36.902C158.256 37.4829 158.874 38.5638 158.859 39.4426C158.517 39.2608 158.031 38.3567 157.81 38.0334C157.524 37.6193 156.872 36.6596 156.571 36.2606C156.32 35.9272 156.435 36.0989 156.244 35.7959C157.072 36.8465 157.93 38.5082 158.708 39.6194C158.322 39.0638 157.614 38.7608 157.158 38.2809C156.686 37.7809 156.149 37.0435 155.592 36.3111C157.293 38.9123 158.096 39.4527 158.573 39.7457C157.78 39.5487 157.408 39.3669 157.022 39.1648C156.636 38.9628 156.084 38.5638 155.437 38.0233C155.878 38.4375 156.731 39.1042 156.992 39.2557C157.414 39.4982 157.945 39.7911 158.267 39.9528C157.544 39.8214 156.259 39.1295 155.672 38.5688C155.291 38.2052 154.96 37.8667 155.095 37.5334C155.231 37.195 155.291 37.1697 155.261 37.003C155.231 36.8465 155.256 36.7404 155.316 36.7151C155.376 36.6848 155.411 36.6697 155.432 36.5232C155.452 36.3767 155.562 36.2151 155.657 36.1393C155.753 36.0686 155.783 36.0939 155.828 36.0131C155.868 35.9323 155.903 35.8211 156.044 35.6999C156.184 35.5787 156.244 35.6141 156.285 35.604C156.325 35.5888 156.41 35.5282 156.596 35.5181C156.781 35.508 156.997 35.6494 157.213 35.7858C157.439 35.9222 157.986 36.4272 158.317 36.9778C158.653 37.5283 158.924 37.9577 158.989 38.2405C159.049 38.483 159.22 39.0234 159.009 39.3972Z" fill="#1A1A18"/>
<path d="M155.136 38.2148C155.136 38.2148 154.97 38.235 154.865 38.326C154.764 38.4169 154.704 38.4623 154.579 38.4977C154.453 38.533 154.358 38.5735 154.368 38.6745C154.378 38.7755 154.453 38.8765 154.443 38.9321C154.433 38.9876 154.443 39.0129 154.554 39.0735C154.669 39.1291 155.146 39.3159 155.306 39.3715C155.462 39.422 155.883 39.6543 156.169 39.7049C156.46 39.7503 156.621 39.7251 156.791 39.7503C156.962 39.7806 157.037 39.7554 157.238 39.8059C157.439 39.8564 157.549 39.8665 157.549 39.8665C157.549 39.8665 156.917 39.6493 156.596 39.4271C156.275 39.1998 155.893 39.0028 155.647 38.7805C155.402 38.5583 155.211 38.326 155.211 38.326L155.141 38.2249L155.136 38.2148Z" fill="#1A1A18"/>
<path d="M154.096 38.9977C154.096 38.9977 153.77 38.8916 153.605 38.8967C153.439 38.8967 153.359 38.9775 153.334 39.0886C153.309 39.1947 153.299 39.326 153.364 39.3967L153.429 39.4674C153.429 39.4674 153.414 39.3916 153.479 39.3967C153.544 39.3967 153.72 39.5482 153.906 39.6694C154.091 39.7907 154.392 39.9472 154.829 40.0735C155.286 40.2099 155.918 40.2856 156.585 40.2958C156.786 40.2958 157.403 40.2755 157.91 40.1139C157.759 40.1291 157.207 40.1341 156.971 40.0937C156.731 40.0533 156.415 40.0836 156.154 40.0836C155.622 40.0836 155.07 40.0836 154.643 39.629C155.16 40.1291 155.883 40.0584 156.595 40.0432C157.097 40.0331 157.554 40.1493 158.06 40.0533C157.744 39.9876 157.388 40.023 157.062 39.9927C156.59 39.9472 156.204 39.9725 155.406 39.6492C154.603 39.3209 154.096 39.0078 154.096 39.0078V38.9977Z" fill="#1A1A18"/>
<path d="M155.652 35.9427C155.652 35.9427 155.29 35.7912 155.175 35.8669C155.06 35.9376 154.954 36.0386 154.954 36.1094V36.175C154.954 36.175 154.924 36.1801 154.839 36.2255C154.753 36.271 154.748 36.2912 154.753 36.3922C154.753 36.4932 154.794 36.5589 154.753 36.5942C154.718 36.6296 154.623 36.6144 154.573 36.665C154.528 36.7205 154.528 36.8215 154.543 36.9124C154.558 37.0084 154.563 37.0438 154.563 37.0438C154.563 37.0438 154.503 37.1195 154.447 37.1599C154.392 37.2003 154.327 37.2509 154.342 37.3468C154.357 37.4428 154.483 37.766 154.573 37.8923C154.663 38.0186 154.698 38.0944 154.698 38.0944C154.698 38.0944 154.869 38.0034 154.929 37.9933L154.989 37.9832C154.989 37.9832 154.904 37.766 154.894 37.6549C154.879 37.5388 155.009 37.266 155.06 37.1953C155.11 37.1246 155.08 36.9832 155.08 36.8619C155.08 36.7407 155.17 36.5841 155.235 36.5336C155.3 36.4831 155.265 36.3872 155.336 36.2457C155.406 36.1043 155.416 36.0437 155.506 36.0083C155.601 35.973 155.647 35.9376 155.647 35.9376L155.652 35.9427Z" fill="#1A1A18"/>
<path d="M159.019 33.6194C159.019 33.6194 158.818 33.4072 158.652 33.4173C158.487 33.4274 158.351 33.4628 158.236 33.5487C158.12 33.6345 158 33.8972 158.03 34.0992C158.06 34.3063 158.085 34.4881 158.085 34.4881C158.085 34.4881 158.085 34.771 158.1 34.9073C158.115 35.0437 158.206 35.2407 158.191 35.3518C158.176 35.4629 158.15 35.5286 158.11 35.6751C158.07 35.8216 158.05 36.0691 158.055 36.1852C158.055 36.1852 158.431 36.6347 158.502 36.761C158.572 36.8873 158.778 37.1802 158.873 37.4075C158.968 37.6348 159.003 37.7762 159.003 37.7762C159.003 37.7762 159.054 37.5742 159.164 37.3873C159.274 37.2055 159.4 37.1297 159.445 36.8974C159.49 36.6651 159.576 36.4681 159.646 36.4125L159.721 36.357C159.721 36.357 159.49 35.6347 159.31 35.3569C159.129 35.0791 158.798 34.5285 158.733 34.2709C158.692 34.1245 158.532 33.7861 158.622 33.6295C158.702 33.4931 158.918 33.5083 159.019 33.6143V33.6194Z" fill="#1A1A18"/>
<path d="M157.885 33.5177C157.885 33.5177 157.549 33.7349 157.544 33.8814C157.544 34.0228 157.458 34.2451 157.544 34.4825C157.624 34.7199 157.749 35.1138 157.684 35.2856C157.619 35.4573 157.479 35.7401 157.479 35.7401C157.479 35.7401 157.484 35.7704 157.639 35.8967C157.795 36.023 157.86 36.1139 157.86 36.1139C157.86 36.1139 157.9 35.8563 157.94 35.6492C157.98 35.4421 158.056 35.3815 157.995 35.028C157.935 34.6693 157.91 34.4219 157.87 34.2451C157.83 34.0632 157.79 33.937 157.87 33.7349C157.95 33.5329 157.885 33.5127 157.885 33.5127V33.5177Z" fill="#1A1A18"/>
<path d="M157.418 33.8357C157.418 33.8357 157.248 33.7902 157.162 33.7852C157.077 33.7852 156.957 33.9013 156.957 34.063C156.952 34.2246 156.896 34.3913 156.846 34.5832C156.796 34.7802 156.691 35.0327 156.726 35.164L156.766 35.2954C156.766 35.2954 156.916 35.3913 157.037 35.4418C157.157 35.4924 157.228 35.5429 157.293 35.5984L157.363 35.6489C157.363 35.6489 157.458 35.5429 157.514 35.2903C157.574 35.0327 157.524 34.8458 157.438 34.5579C157.358 34.27 157.338 34.1741 157.388 34.0326C157.443 33.8862 157.448 33.8306 157.448 33.8306L157.408 33.8458L157.418 33.8357Z" fill="#1A1A18"/>
<path d="M156.721 34.5781C156.721 34.5781 156.656 34.7499 156.621 34.866C156.586 34.9822 156.536 35.0883 156.581 35.1741L156.626 35.265C156.626 35.265 156.47 35.361 156.345 35.3711C156.214 35.3812 156.069 35.4368 155.984 35.5024C155.893 35.5681 155.788 35.7045 155.763 35.76C155.733 35.8156 155.688 35.8711 155.688 35.8711C155.688 35.8711 155.552 35.7752 155.457 35.7802C155.356 35.7802 155.341 35.7398 155.341 35.7398C155.341 35.7398 155.271 35.7095 155.311 35.5782C155.351 35.4418 155.442 35.4469 155.457 35.3257C155.472 35.2044 155.512 35.1438 155.467 35.0529L155.422 34.967C155.422 34.967 155.427 34.9115 155.512 34.9165H155.597C155.597 34.9165 155.552 34.8307 155.622 34.7448C155.698 34.6539 155.698 34.7044 155.813 34.7044C155.928 34.7044 156.014 34.6236 156.109 34.6236C156.209 34.6236 156.144 34.6993 156.34 34.664C156.53 34.6236 156.721 34.5882 156.721 34.5882V34.5781Z" fill="#1A1A18"/>
<path d="M155.331 35.2002C155.331 35.2002 155.13 35.2305 155.07 35.2406C155.009 35.2507 155.024 35.276 155.019 35.3315C155.009 35.3921 155.019 35.4527 154.949 35.4527C154.884 35.4527 154.874 35.5133 154.904 35.579C154.934 35.6447 154.984 35.7659 154.924 35.8265C154.864 35.8871 154.774 35.9023 154.769 36.0134V36.1245L154.849 36.0588C154.849 36.0588 154.859 36.0689 154.924 35.9275C154.994 35.7861 154.989 35.7558 155.08 35.7406L155.17 35.7255C155.17 35.7255 155.195 35.6396 155.215 35.4982C155.235 35.3618 155.265 35.3517 155.315 35.281L155.366 35.2052H155.326L155.331 35.2002Z" fill="#1A1A18"/>
<path fill-rule="evenodd" clip-rule="evenodd" d="M159.882 39.5187C160.238 39.1551 160.519 38.8167 160.911 38.5843C161.423 38.2762 161.849 38.3823 162.386 38.1045C162.23 38.4429 162.07 38.852 161.739 39.0793C161.282 39.3925 160.645 39.1854 160.203 39.3824C160.615 39.1753 161.272 39.2359 161.568 38.6399C161.016 38.6752 160.429 39.0136 159.872 39.5187H159.882Z" fill="#1A1A18"/>
<path fill-rule="evenodd" clip-rule="evenodd" d="M149.244 61.1514C149.27 62.308 149.375 63.298 149.144 64.3233C148.843 65.6618 148.025 66.2275 147.649 67.5609C147.358 66.778 146.956 65.884 147.107 64.985C147.313 63.7223 148.602 62.9646 148.963 61.9141C148.662 62.9343 147.569 63.9496 148.045 65.3638C148.823 64.3688 149.189 62.8586 149.244 61.1514Z" fill="#1A1A18"/>
<path d="M143.088 50.2111C143.088 50.2111 142.646 49.6555 142.15 49.9333C141.658 50.2111 141.276 50.8121 141.161 51.1455C141.046 51.4839 140.905 51.5243 140.704 51.898C140.509 52.2718 140.454 52.2516 140.393 52.5951C140.333 52.9385 140.283 53.0648 139.907 53.3325C139.53 53.6052 138.903 54.2518 138.743 54.6356C138.582 55.0195 138.697 55.3983 138.532 55.8579C138.341 56.3984 137.91 57.2318 138.14 57.8328C138.221 58.045 138.396 58.1561 138.522 58.3228C139.104 57.5045 138.848 56.257 139.244 55.3882C139.576 54.676 140.012 53.7366 140.569 53.1961C139.771 54.3124 139.826 54.3982 139.535 54.9488C139.335 55.3225 139.164 55.9387 139.099 56.3933C139.029 56.8732 139.049 57.9641 138.697 58.5703C138.998 58.2874 139.37 57.0903 139.606 56.8075C140.343 55.9286 141.056 52.4839 141.557 51.5697C141.036 53.1608 139.862 57.6611 138.858 58.7167C139.375 58.1864 139.997 58.146 141.417 56.358C141.021 57.1459 139.872 58.3783 139.259 58.7723C138.743 59.1056 138.873 59.4895 138.778 60.035C138.778 60.035 140.388 59.4239 140.785 58.6763C141.186 57.9288 141.828 56.762 141.984 55.6256C142.14 54.4891 142.24 52.8173 142.28 52.2466C142.32 51.6758 142.441 51.398 142.717 50.9283C142.993 50.4585 143.088 50.2111 143.088 50.2111Z" fill="#1A1A18"/>
<path d="M138.447 60.3177C138.151 58.7822 136.305 56.8124 135.12 56.1053C136.159 57.0245 137.82 58.7822 138.181 60.4692C137.454 60.2925 136.119 58.7974 135.547 58.2873C134.814 57.6357 133.148 56.1154 132.391 55.4992C131.764 54.984 132.065 55.2567 131.563 54.7668C133.625 56.378 136.003 59.1409 137.985 60.8784C136.992 60.0046 135.507 59.7722 134.418 59.0701C133.289 58.3428 131.929 57.1912 130.549 56.0649C134.96 60.2066 136.736 60.8531 137.78 61.1865C136.179 61.1865 135.391 61.0198 134.553 60.8228C133.725 60.6309 132.491 60.1258 131.016 59.4085C132.045 59.9843 133.971 60.848 134.543 61.0097C135.462 61.2723 136.611 61.5653 137.293 61.7269C135.853 61.8229 133.093 61.1258 131.713 60.3379C130.82 59.8278 130.038 59.3479 130.148 58.6358C130.253 57.9286 130.359 57.8428 130.228 57.5549C130.098 57.2619 130.098 57.0548 130.203 56.969C130.303 56.8831 130.364 56.8326 130.334 56.5447C130.308 56.2618 130.444 55.8881 130.594 55.7063C130.745 55.5194 130.82 55.5547 130.86 55.3779C130.901 55.2062 130.921 54.9739 131.131 54.6759C131.342 54.3728 131.473 54.4183 131.543 54.3779C131.613 54.3324 131.744 54.1708 132.1 54.0647C132.456 53.9586 132.923 54.1253 133.404 54.2769C133.891 54.4233 135.161 55.1305 136.049 56.0194C136.937 56.9084 137.644 57.6003 137.9 58.1054C138.121 58.5398 138.693 59.4944 138.452 60.3076L138.447 60.3177Z" fill="#1A1A18"/>
<path d="M130.513 59.9445C130.513 59.9445 130.197 60.0607 130.047 60.2829C129.896 60.5102 129.801 60.6213 129.57 60.7476C129.344 60.8739 129.184 60.9951 129.249 61.187C129.314 61.3739 129.5 61.5254 129.505 61.6365C129.515 61.7477 129.535 61.7982 129.776 61.8487C130.017 61.8992 131.015 62.0255 131.341 62.0507C131.668 62.076 132.571 62.3184 133.148 62.2679C133.725 62.2174 134.016 62.0861 134.357 62.0608C134.698 62.0305 134.824 61.9497 135.235 61.9497C135.641 61.9497 135.862 61.9143 135.862 61.9143C135.862 61.9143 134.558 61.8133 133.84 61.5355C133.123 61.2628 132.305 61.0608 131.738 60.7577C131.171 60.4496 130.699 60.1011 130.699 60.1011L130.518 59.9395L130.513 59.9445Z" fill="#1A1A18"/>
<path d="M128.883 61.9294C128.883 61.9294 128.211 61.889 127.895 61.9749C127.578 62.0607 127.458 62.2476 127.458 62.4699C127.458 62.6871 127.493 62.9396 127.654 63.0457L127.814 63.1517C127.814 63.1517 127.744 63.0154 127.879 62.9901C128.01 62.9598 128.406 63.1618 128.818 63.3083C129.229 63.4497 129.876 63.6063 130.765 63.6366C131.698 63.672 132.942 63.5154 134.212 63.2073C134.598 63.1164 135.767 62.7729 136.66 62.2224C136.374 62.3183 135.331 62.5961 134.864 62.6365C134.382 62.677 133.79 62.884 133.294 63.0103C132.28 63.2629 131.226 63.5306 130.208 62.8689C131.417 63.571 132.767 63.0911 134.121 62.7123C135.075 62.4446 136.003 62.4446 136.921 62.0203C136.284 62.0506 135.622 62.288 134.989 62.384C134.066 62.5204 133.344 62.7628 131.668 62.5254C129.992 62.2931 128.878 61.9294 128.878 61.9294H128.883Z" fill="#1A1A18"/>
<path d="M130.484 55.3474C130.484 55.3474 129.731 55.2363 129.535 55.4282C129.34 55.6252 129.189 55.8626 129.219 55.9939L129.249 56.1253C129.249 56.1253 129.194 56.1505 129.054 56.2818C128.913 56.4132 128.913 56.4536 128.968 56.6455C129.023 56.8374 129.114 56.9435 129.059 57.0294C129.003 57.1152 128.813 57.1354 128.747 57.2567C128.682 57.3779 128.737 57.5749 128.803 57.7466C128.873 57.9183 128.898 57.989 128.898 57.989C128.898 57.989 128.818 58.1608 128.727 58.2719C128.642 58.378 128.537 58.5042 128.607 58.676C128.677 58.8477 129.064 59.4083 129.289 59.6104C129.515 59.8073 129.616 59.9336 129.616 59.9336C129.616 59.9336 129.907 59.676 130.017 59.6306L130.127 59.5801C130.127 59.5801 129.871 59.2063 129.796 58.9942C129.721 58.782 129.846 58.1961 129.912 58.0345C129.972 57.8729 129.861 57.6203 129.806 57.388C129.746 57.1556 129.856 56.8071 129.962 56.6809C130.067 56.5546 129.962 56.3829 130.027 56.0798C130.097 55.7767 130.087 55.6606 130.253 55.5444C130.413 55.4333 130.484 55.3474 130.484 55.3474Z" fill="#1A1A18"/>
<path d="M135.877 49.2713C135.877 49.2713 135.396 48.9581 135.085 49.0591C134.768 49.1602 134.528 49.2915 134.347 49.5137C134.166 49.736 134.046 50.2865 134.202 50.6704C134.357 51.0492 134.482 51.3876 134.482 51.3876C134.482 51.3876 134.608 51.928 134.703 52.1856C134.794 52.4382 135.055 52.7766 135.075 52.9988C135.09 53.2211 135.08 53.3574 135.075 53.6554C135.065 53.9534 135.14 54.4383 135.19 54.6555C135.19 54.6555 136.108 55.3273 136.304 55.5344C136.5 55.7414 137.021 56.2061 137.302 56.59C137.583 56.9789 137.714 57.2315 137.714 57.2315C137.714 57.2315 137.714 56.8173 137.849 56.4132C137.98 56.0091 138.18 55.8021 138.16 55.3374C138.14 54.8727 138.216 54.4535 138.331 54.312L138.446 54.1706C138.446 54.1706 137.684 52.9029 137.212 52.4584C136.745 52.0088 135.867 51.1148 135.627 50.6653C135.481 50.3976 135.029 49.8269 135.13 49.4935C135.225 49.1905 135.647 49.1147 135.887 49.2763L135.877 49.2713Z" fill="#1A1A18"/>
<path d="M133.669 49.625C133.669 49.625 133.127 50.2059 133.183 50.4786C133.243 50.7513 133.183 51.211 133.444 51.6251C133.705 52.0393 134.121 52.7363 134.071 53.1C134.021 53.4586 133.88 54.0647 133.88 54.0647C133.88 54.0647 133.905 54.1203 134.261 54.292C134.618 54.4587 134.783 54.6052 134.783 54.6052C134.783 54.6052 134.743 54.095 134.728 53.6809C134.713 53.2667 134.833 53.1202 134.557 52.4686C134.277 51.8221 134.126 51.3575 133.97 51.0291C133.815 50.7059 133.679 50.4786 133.745 50.0594C133.805 49.6402 133.669 49.6301 133.669 49.6301V49.625Z" fill="#1A1A18"/>
<path d="M132.918 50.4634C132.918 50.4634 132.576 50.4533 132.406 50.4887C132.235 50.524 132.07 50.817 132.13 51.1251C132.195 51.4382 132.16 51.7767 132.155 52.1757C132.15 52.5747 132.055 53.1151 132.19 53.3424L132.326 53.5697C132.326 53.5697 132.657 53.6808 132.908 53.7162C133.158 53.7566 133.314 53.8223 133.475 53.8879L133.635 53.9536C133.635 53.9536 133.771 53.7061 133.766 53.1909C133.766 52.6757 133.585 52.3323 133.299 51.8221C133.013 51.312 132.938 51.1402 132.973 50.8372C133.008 50.5392 132.998 50.418 132.998 50.418L132.928 50.4634H132.918Z" fill="#1A1A18"/>
<path d="M131.914 52.216C131.914 52.216 131.864 52.5746 131.844 52.817C131.824 53.0544 131.784 53.2767 131.909 53.4231L132.034 53.5747C132.034 53.5747 131.789 53.8323 131.548 53.9131C131.307 53.9939 131.056 54.1707 130.915 54.3424C130.775 54.5141 130.629 54.8222 130.599 54.9435C130.569 55.0647 130.504 55.191 130.504 55.191C130.504 55.191 130.208 55.0748 130.022 55.1303C129.837 55.1859 129.781 55.1051 129.781 55.1051C129.781 55.1051 129.636 55.0849 129.656 54.802C129.671 54.5242 129.842 54.4889 129.822 54.2515C129.802 54.0192 129.847 53.8727 129.721 53.7262L129.596 53.5797C129.596 53.5797 129.586 53.4737 129.746 53.4433L129.907 53.413C129.907 53.413 129.781 53.2666 129.877 53.0595C129.972 52.8524 130.002 52.9484 130.223 52.8878C130.449 52.8322 130.564 52.6403 130.755 52.5847C130.941 52.5291 130.86 52.716 131.206 52.5443C131.553 52.3776 131.904 52.2109 131.904 52.2109L131.914 52.216Z" fill="#1A1A18"/>
<path d="M129.546 54.0802C129.546 54.0802 129.174 54.2267 129.064 54.2772C128.954 54.3277 128.994 54.3631 129.004 54.4793C129.014 54.5954 129.059 54.7116 128.928 54.7419C128.798 54.7722 128.808 54.8934 128.893 55.0046C128.979 55.1157 129.124 55.3228 129.044 55.4692C128.959 55.6157 128.793 55.6864 128.828 55.9036L128.863 56.1208L128.999 55.9491C128.999 55.9491 129.019 55.9693 129.094 55.6662C129.164 55.3632 129.139 55.3076 129.305 55.2318L129.47 55.1561C129.47 55.1561 129.47 54.9793 129.455 54.7015C129.435 54.4237 129.49 54.4035 129.551 54.2368L129.611 54.0752H129.536L129.546 54.0802Z" fill="#1A1A18"/>
<path fill-rule="evenodd" clip-rule="evenodd" d="M140.168 60.1255C140.685 59.2618 141.071 58.479 141.718 57.8375C142.561 57.0041 143.424 56.994 144.328 56.2061C144.177 56.9334 144.057 57.787 143.53 58.3779C142.792 59.2012 141.488 59.1154 140.735 59.7013C141.427 59.1002 142.712 58.9083 143.013 57.6254C141.979 57.9638 141.006 58.8931 140.168 60.1255Z" fill="#1A1A18"/>
<path fill-rule="evenodd" clip-rule="evenodd" d="M139.214 61.0098C138.226 62.5099 137.488 63.8787 136.294 64.9697C134.734 66.394 133.188 66.3435 131.527 67.6921C131.843 66.4092 132.119 64.8888 133.098 63.8736C134.473 62.4543 136.791 62.7119 138.171 61.7219C136.891 62.7372 134.588 62.9948 133.961 65.2576C135.832 64.7323 137.629 63.1463 139.204 61.0148L139.214 61.0098Z" fill="#1A1A18"/>
<path fill-rule="evenodd" clip-rule="evenodd" d="M160.659 59.5604C160.142 59.3938 159.716 59.2069 159.224 59.1766C158.587 59.1412 158.216 59.4594 157.568 59.4594C157.879 59.7069 158.226 60.0251 158.647 60.0756C159.239 60.1463 159.756 59.6261 160.273 59.5907C159.776 59.6008 159.169 59.9948 158.602 59.5705C159.154 59.3281 159.881 59.3533 160.654 59.5604H160.659Z" fill="#1A1A18"/>
<path fill-rule="evenodd" clip-rule="evenodd" d="M160.048 59.6162C159.872 59.2526 159.747 58.9243 159.511 58.6414C159.205 58.2778 158.859 58.2374 158.527 57.8838C158.562 58.1818 158.578 58.5253 158.768 58.7828C159.034 59.1415 159.556 59.1566 159.837 59.4243C159.581 59.1566 159.074 59.0303 158.999 58.505C159.4 58.6818 159.757 59.0909 160.048 59.6162Z" fill="#1A1A18"/>
<path d="M164.839 61.8584C164.839 61.8584 164.844 62.1463 164.628 62.1969C164.408 62.2474 164.142 62.1716 164.021 62.1009C163.901 62.0302 163.851 62.0554 163.695 61.9999C163.54 61.9393 163.529 61.9595 163.424 61.8736C163.319 61.7877 163.274 61.7625 163.093 61.7877C162.907 61.8079 162.556 61.7877 162.411 61.717C162.265 61.6463 162.205 61.4998 162.034 61.4039C161.839 61.2927 161.497 61.1614 161.417 60.919C161.387 60.8331 161.417 60.7523 161.407 60.6664C161.788 60.7574 162.029 61.2018 162.37 61.3534C162.651 61.4796 163.023 61.6413 163.329 61.6514C162.802 61.5352 162.802 61.4948 162.571 61.4089C162.416 61.3534 162.21 61.2119 162.069 61.0958C161.924 60.9695 161.658 60.6361 161.397 60.5503C161.558 60.5503 161.974 60.8129 162.12 60.8331C162.566 60.8937 163.655 61.7372 164.041 61.8786C163.479 61.5453 161.984 60.5048 161.412 60.4644C161.703 60.4846 161.899 60.323 162.782 60.4695C162.461 60.3432 161.798 60.2876 161.517 60.3331C161.277 60.3735 161.216 60.222 161.051 60.0856C161.051 60.0856 161.693 59.828 162.004 59.9442C162.315 60.0603 162.802 60.2321 163.143 60.5351C163.479 60.8331 163.931 61.3129 164.091 61.4746C164.247 61.6362 164.357 61.6867 164.558 61.7524C164.764 61.818 164.854 61.8685 164.854 61.8685L164.839 61.8584Z" fill="#1A1A18"/>
<path d="M160.871 60.0859C161.172 60.6314 161.116 61.7325 160.936 62.2729C161.016 61.7123 161.071 60.7223 160.75 60.1112C160.575 60.3637 160.554 61.1819 160.509 61.4951C160.454 61.8941 160.339 62.8134 160.263 63.2023C160.203 63.5306 160.228 63.3639 160.198 63.6518C160.409 62.5962 160.429 61.1112 160.585 60.0404C160.509 60.5758 160.118 61.0557 159.967 61.5658C159.812 62.0961 159.696 62.8184 159.561 63.5407C159.842 61.0759 160.213 60.3889 160.444 60.0051C159.957 60.4445 159.762 60.7122 159.561 61.0001C159.36 61.288 159.114 61.7779 158.854 62.3992C159.014 61.9446 159.38 61.1516 159.511 60.9445C159.722 60.6112 159.993 60.2071 160.158 59.9697C159.701 60.3384 159.044 61.3082 158.828 61.9244C158.688 62.3234 158.578 62.682 158.788 62.8689C158.999 63.0508 159.054 63.0508 159.089 63.172C159.124 63.2983 159.175 63.3589 159.23 63.3538C159.28 63.3538 159.31 63.3538 159.375 63.4447C159.441 63.5356 159.576 63.6165 159.666 63.6266C159.757 63.6417 159.772 63.6114 159.827 63.6518C159.882 63.6922 159.947 63.7579 160.088 63.7882C160.228 63.8235 160.258 63.773 160.289 63.7629C160.319 63.7579 160.404 63.768 160.534 63.7023C160.67 63.6367 160.765 63.4599 160.876 63.2781C160.981 63.1013 161.187 62.5356 161.232 62.0254C161.272 61.5153 161.312 61.1112 161.262 60.8839C161.217 60.692 161.152 60.2475 160.871 60.0657V60.0859Z" fill="#1A1A18"/>
<path d="M158.572 62.3832C158.572 62.3832 158.447 62.4337 158.346 62.4084C158.246 62.3832 158.186 62.3731 158.085 62.3983C157.985 62.4236 157.905 62.4337 157.875 62.3529C157.845 62.2771 157.865 62.1812 157.84 62.1458C157.814 62.1104 157.804 62.0902 157.87 62.0094C157.93 61.9286 158.201 61.6155 158.291 61.5144C158.381 61.4185 158.592 61.0952 158.778 60.9538C158.964 60.8124 159.089 60.7669 159.194 60.6861C159.305 60.6002 159.365 60.5901 159.485 60.479C159.606 60.3679 159.681 60.3174 159.681 60.3174C159.681 60.3174 159.315 60.7063 159.164 60.9892C159.019 61.272 158.823 61.5548 158.728 61.8023C158.632 62.0498 158.582 62.2872 158.582 62.2872L158.567 62.3882L158.572 62.3832Z" fill="#1A1A18"/>
<path d="M157.574 62.2317C157.574 62.2317 157.383 62.4287 157.262 62.4893C157.147 62.5499 157.062 62.5246 157.007 62.459C156.951 62.3933 156.896 62.3074 156.921 62.2317L156.941 62.1559C156.941 62.1559 156.956 62.2165 157.002 62.1862C157.047 62.161 157.117 61.9892 157.202 61.8327C157.293 61.6761 157.448 61.4538 157.709 61.1963C157.98 60.9286 158.396 60.6356 158.858 60.378C158.999 60.2972 159.44 60.08 159.847 60.0042C159.736 60.0548 159.35 60.2568 159.199 60.373C159.044 60.4942 158.813 60.5952 158.632 60.6912C158.261 60.8932 157.875 61.1053 157.734 61.5852C157.92 61.0397 158.452 60.8124 158.958 60.5548C159.315 60.373 159.591 60.1154 159.977 59.9941C159.776 60.1608 159.515 60.2719 159.3 60.4184C158.989 60.6306 158.708 60.7568 158.261 61.2922C157.814 61.8226 157.569 62.2418 157.569 62.2418L157.574 62.2317Z" fill="#1A1A18"/>
<path d="M159.731 63.7776C159.731 63.7776 159.53 64.02 159.425 64.015C159.314 64.015 159.209 63.9796 159.184 63.9291L159.159 63.8837C159.159 63.8837 159.139 63.8938 159.064 63.8887C158.988 63.8887 158.978 63.8786 158.943 63.8029C158.908 63.7322 158.913 63.6715 158.873 63.6614C158.833 63.6513 158.773 63.6968 158.722 63.6766C158.672 63.6564 158.637 63.5857 158.617 63.515C158.592 63.4443 158.587 63.4139 158.587 63.4139C158.587 63.4139 158.517 63.3836 158.461 63.3735C158.406 63.3634 158.346 63.3533 158.321 63.2826C158.296 63.2119 158.276 62.9341 158.286 62.8129C158.306 62.6917 158.301 62.626 158.301 62.626C158.301 62.626 158.451 62.626 158.502 62.6109L158.547 62.5957C158.547 62.5957 158.562 62.7775 158.597 62.8634C158.627 62.9493 158.813 63.0907 158.878 63.121C158.938 63.1513 158.968 63.2624 159.008 63.3432C159.049 63.4291 159.169 63.5049 159.234 63.515C159.299 63.5251 159.309 63.6059 159.41 63.6766C159.51 63.7473 159.535 63.7877 159.611 63.7776C159.691 63.7675 159.731 63.7776 159.731 63.7776Z" fill="#1A1A18"/>
<path d="M162.903 64.1259C162.903 64.1259 162.837 64.3532 162.717 64.4088C162.597 64.4643 162.491 64.4947 162.381 64.4744C162.27 64.4593 162.095 64.3229 162.045 64.1663C161.995 64.0098 161.949 63.8734 161.949 63.8734C161.949 63.8734 161.849 63.6764 161.814 63.5754C161.774 63.4744 161.769 63.2976 161.719 63.2269C161.668 63.1562 161.628 63.1158 161.548 63.0299C161.468 62.944 161.367 62.7773 161.327 62.6965C161.327 62.6965 161.433 62.242 161.438 62.1258C161.443 62.0096 161.483 61.7268 161.468 61.5298C161.453 61.3379 161.428 61.2217 161.428 61.2217C161.428 61.2217 161.533 61.3429 161.678 61.4338C161.819 61.5197 161.934 61.5247 162.045 61.6712C162.16 61.8177 162.286 61.9238 162.356 61.9339L162.426 61.944C162.426 61.944 162.516 62.5349 162.486 62.8026C162.461 63.0652 162.421 63.5804 162.461 63.7825C162.486 63.9037 162.491 64.2017 162.612 64.2724C162.717 64.3381 162.863 64.2421 162.898 64.131L162.903 64.1259Z" fill="#1A1A18"/>
<path d="M162.15 64.6266C162.15 64.6266 161.839 64.6013 161.788 64.5003C161.738 64.3993 161.603 64.2781 161.578 64.0811C161.553 63.8841 161.497 63.5608 161.392 63.4649C161.287 63.3689 161.091 63.2275 161.091 63.2275C161.091 63.2275 161.086 63.2022 161.146 63.0557C161.211 62.9093 161.226 62.8184 161.226 62.8184C161.226 62.8184 161.342 62.985 161.447 63.1113C161.548 63.2426 161.623 63.2527 161.703 63.5255C161.783 63.7982 161.854 63.9801 161.889 64.1215C161.924 64.2629 161.939 64.369 162.069 64.475C162.195 64.5862 162.155 64.6266 162.155 64.6266H162.15Z" fill="#1A1A18"/>
<path d="M161.709 64.5806C161.709 64.5806 161.608 64.6765 161.548 64.717C161.488 64.7523 161.363 64.7119 161.302 64.6008C161.242 64.4897 161.147 64.3937 161.041 64.2775C160.936 64.1614 160.77 64.0199 160.755 63.9139L160.735 63.8078C160.735 63.8078 160.806 63.6815 160.871 63.6007C160.936 63.5199 160.966 63.4542 161.001 63.3936L161.031 63.333C161.031 63.333 161.137 63.3684 161.267 63.5249C161.398 63.6815 161.433 63.833 161.473 64.0654C161.518 64.2977 161.538 64.3684 161.623 64.4543C161.709 64.5351 161.739 64.5755 161.739 64.5755H161.704L161.709 64.5806Z" fill="#1A1A18"/>
<path d="M160.96 64.3287C160.96 64.3287 160.855 64.2327 160.785 64.167C160.719 64.1014 160.649 64.0458 160.649 63.965V63.8842C160.649 63.8842 160.509 63.8741 160.418 63.9145C160.323 63.9549 160.203 63.9701 160.117 63.96C160.032 63.9448 159.906 63.8943 159.866 63.864C159.826 63.8337 159.776 63.8135 159.776 63.8135C159.776 63.8135 159.716 63.9296 159.646 63.965C159.575 64.0004 159.58 64.0408 159.58 64.0408C159.58 64.0408 159.54 64.0862 159.62 64.167C159.696 64.2479 159.756 64.2074 159.811 64.2883C159.866 64.364 159.917 64.3943 159.917 64.4751V64.556C159.917 64.556 159.937 64.5913 159.997 64.556L160.052 64.5206C160.052 64.5206 160.052 64.6014 160.132 64.6368C160.213 64.6721 160.198 64.6368 160.283 64.5913C160.363 64.5459 160.448 64.5711 160.519 64.5358C160.589 64.5004 160.519 64.4701 160.664 64.4246C160.81 64.3792 160.96 64.3337 160.96 64.3337V64.3287Z" fill="#1A1A18"/>
<path d="M159.771 64.4188C159.771 64.4188 159.621 64.4743 159.576 64.4895C159.531 64.5046 159.531 64.4844 159.505 64.444C159.475 64.4086 159.46 64.3581 159.415 64.3834C159.37 64.4086 159.34 64.3733 159.34 64.3127C159.34 64.2571 159.33 64.1511 159.27 64.1309C159.204 64.1106 159.139 64.1309 159.094 64.0601L159.049 63.9844L159.134 63.9995C159.134 63.9995 159.134 63.9894 159.234 64.0601C159.335 64.1309 159.34 64.1561 159.41 64.1309L159.48 64.1106C159.48 64.1106 159.525 64.1612 159.591 64.2521C159.656 64.343 159.676 64.3329 159.736 64.3632L159.796 64.3985L159.771 64.4188Z" fill="#1A1A18"/>
<path fill-rule="evenodd" clip-rule="evenodd" d="M161.442 59.6664C161.819 59.7826 162.135 59.9139 162.491 59.9291C162.958 59.9493 163.219 59.7119 163.695 59.7018C163.464 59.525 163.209 59.2977 162.903 59.2674C162.471 59.2219 162.1 59.6058 161.723 59.6361C162.085 59.626 162.521 59.3331 162.938 59.6361C162.536 59.818 162.009 59.8079 161.442 59.6664Z" fill="#1A1A18"/>
<path fill-rule="evenodd" clip-rule="evenodd" d="M165.21 58.1305C164.142 56.7819 161.011 57.4032 160.981 59.7215C160.835 59.3427 160.775 58.9487 160.966 58.6154C160.514 58.7113 159.897 58.7467 159.495 58.4841C159.089 58.2214 158.592 57.4789 159.46 57.3779C159.46 56.3627 161.016 56.3223 160.971 57.4991C160.976 57.5042 160.84 57.6002 160.835 57.6052C160.815 56.6758 159.751 56.787 159.776 57.585C159.801 58.5548 160.79 58.3174 161.231 58.0497C162.461 57.3072 163.926 56.696 165.145 57.9739L165.21 58.1305Z" fill="#1A1A18"/>
<path fill-rule="evenodd" clip-rule="evenodd" d="M165.442 58.2367C165.11 57.6458 164.875 57.1154 164.453 56.676C163.911 56.1002 163.329 56.075 162.747 55.5244C162.832 56.0143 162.893 56.5901 163.234 56.9942C163.71 57.5599 164.584 57.5296 165.07 57.9438C164.619 57.5296 163.766 57.368 163.59 56.5043C164.272 56.7518 164.905 57.3983 165.437 58.2367H165.442Z" fill="#1A1A18"/>
<path fill-rule="evenodd" clip-rule="evenodd" d="M169.621 51.2419C168.557 54.9745 170.123 58.798 174.017 59.9849C177.378 61.0153 180.484 60.2526 182.817 58.3131C181.362 60.3688 178.332 60.9092 175.978 61.3285C172.842 61.8891 169.656 60.1415 167.709 57.6262C164.915 54.0097 162.391 42.2311 155.958 45.7162L156.58 45.4636C162.541 43.5948 164.834 55.5199 167.629 59.1414C169.571 61.6568 173.143 63.47 176.285 62.9094C179.245 62.3841 182.717 61.8891 183.349 58.2171L183.41 57.7878C184.002 57.2069 184.539 56.5503 185.005 55.818L184.629 55.924C184.288 56.0604 183.941 56.2473 183.59 56.4645V56.419C183.59 56.419 183.59 56.4493 183.59 56.4645C182.195 57.3231 180.72 58.6212 179.119 58.8232C177.684 59.0051 176.566 59.0758 175.125 58.9394C172.431 58.6767 170.053 56.7271 170.324 53.7925C170.539 51.4186 172.381 50.065 174.523 51.1661C176.285 52.0702 177.218 54.9846 174.804 55.6058C177.459 56.4038 178.568 52.55 177.449 50.661C175.622 47.5749 170.61 47.7719 169.621 51.2419ZM162.812 53.6107H162.822C162.596 53.2167 162.356 52.8985 162.11 52.6409C160.855 50.9439 159.661 49.5246 158.457 48.8225C156.5 47.681 154.804 47.2011 153.384 47.1001C153.796 46.8223 154.347 47.0496 154.814 47.0092C155.828 46.9183 156.058 46.2011 156.736 45.5546C156.615 45.6707 156.164 45.9132 156.003 45.9384C155.833 45.9687 155.722 45.8879 155.542 45.9182C155.055 45.999 154.573 46.3122 154.122 46.6102C154.784 45.797 156.099 45.0545 157.177 45.1C155.803 44.5747 153.74 45.6404 153.123 47.085C151.297 47.0143 149.947 47.585 149.114 48.181C146.555 50.0094 145.02 54.3532 146.289 57.4544C147.569 60.5809 150.399 62.9397 153.56 62.0558C154.287 62.081 154.779 62.5053 154.884 62.8791C155.035 63.3993 154.839 63.9196 154.493 64.0105C154.147 64.1266 154.041 64.0004 154.026 63.8741C153.996 63.7529 154.112 63.7529 154.207 63.7579C154.393 63.7832 154.598 63.5559 154.518 63.2629C154.428 62.9801 154.212 62.8387 153.866 62.9548C153.535 63.0609 153.404 63.4397 153.484 63.7579C153.585 64.1014 153.991 64.4196 154.538 64.2428C155.075 64.0761 155.311 63.4044 155.15 62.8185C155.05 62.4649 154.684 62.0406 154.036 61.9093C154.302 61.8083 154.568 61.6871 154.834 61.5406C156.911 60.389 158.708 56.7726 156.535 54.4694L156.856 54.8835C158 57.4342 156.942 59.7021 155.276 60.9294C156.656 59.3182 156.124 56.2927 154.162 55.3129H154.152C156.154 56.3432 156.641 59.5101 155.095 61.0658C154.97 61.1517 154.844 61.2274 154.709 61.3032C151.031 63.3589 147.644 60.5456 146.515 57.1665C145.496 54.136 146.836 50.3428 149.27 48.6053C150.047 48.0497 151.317 47.4537 153.023 47.4335C152.993 47.5547 152.968 47.6759 152.963 47.7972C153.008 47.6507 153.058 47.5345 153.113 47.4335C154.528 47.4335 156.239 47.8376 158.221 48.9942C158.638 49.2367 159.054 49.57 159.47 49.9741C158.121 49.0447 156.495 48.4538 154.929 48.2214C152.501 47.8628 148.085 49.7518 148.617 53.7067C148.562 52.1106 148.833 51.3883 149.867 50.2418C150.685 49.3326 151.748 48.8427 152.907 48.5598C155.025 48.0446 156.625 48.7821 158.472 49.8731C159.365 50.3984 160.273 51.0247 161.041 51.7823C161.081 51.8379 161.126 51.8884 161.161 51.9439C160.424 51.5904 159.741 51.6914 159.345 51.9439C158.627 52.4187 158.256 53.3885 158.683 54.1158C159.114 54.8684 159.852 54.929 160.283 54.6562C160.665 54.3885 160.88 53.8431 160.619 53.3935C160.349 52.9137 159.977 52.8581 159.616 53.0703C159.255 53.3077 159.26 53.7673 159.491 53.9239C159.606 54.0198 159.721 54.136 159.581 54.237C159.445 54.3633 159.215 54.3936 158.949 53.9188C158.658 53.4743 158.924 52.7066 159.571 52.2924C160.012 52.0045 160.885 52.0197 161.678 52.6409C165.978 58.5858 171.001 68.2835 181.147 62.7932L182.361 60.8082C172.732 68.6118 167.308 59.9041 162.817 53.6309L162.812 53.6107ZM157.383 55.5806C157.448 53.8936 155.381 51.954 153.78 52.348C154.945 52.348 154.759 53.2824 155.005 53.8986C155.381 54.8381 156.079 54.8482 156.851 55.2977C156.711 55.2169 156.37 54.8583 156.299 54.7118C156.224 54.5603 156.259 54.429 156.184 54.2673C155.968 53.8279 155.552 53.4592 155.16 53.1208C156.068 53.5097 157.107 54.5401 157.383 55.5806ZM151.171 55.6967C151.071 55.8382 151.006 56.0048 150.981 56.1715C150.94 56.3584 150.951 56.5453 151.041 56.6968L151.061 56.717C151.111 56.8079 151.186 56.8887 151.282 56.9493C151.292 56.9493 151.297 56.9594 151.302 56.9645C151.302 56.9645 151.327 56.9746 151.342 56.9797L151.387 56.9999C151.352 56.9847 151.322 56.9594 151.292 56.9392L151.151 56.7978C151.151 56.7978 151.141 56.7827 151.136 56.7776C151.061 56.621 151.131 56.4493 151.317 56.3584C151.021 56.0705 151.402 55.4947 151.653 55.2927C151.653 55.2927 151.643 55.2927 151.643 55.2977C152.36 54.7977 153.394 54.9189 154.147 55.2977C154.137 55.2927 154.127 55.2826 154.117 55.2775C153.193 54.8179 151.859 54.732 151.181 55.6967H151.171ZM151.653 55.2927C151.663 55.2876 151.663 55.2927 151.653 55.2927V55.2927ZM148.612 53.7572C148.612 53.7572 148.607 53.7067 148.602 53.6814C148.602 53.7168 148.602 53.7471 148.602 53.7824V53.7572H148.612ZM148.903 53.3683C148.873 53.54 148.773 53.6208 148.743 53.7976C148.662 54.2825 148.783 54.8381 148.908 55.3533C148.402 54.4795 148.161 53.0046 148.537 51.9944C147.513 53.3026 148.06 56.1463 149.566 56.8281C148.632 56.1059 149.315 55.4694 149.47 54.8229C149.706 53.838 149.149 53.3935 148.793 52.5551C148.858 52.7066 148.928 53.2066 148.898 53.3683H148.903Z" fill="#1A1A18"/>
<path fill-rule="evenodd" clip-rule="evenodd" d="M152.184 48.8927C150.634 50.4888 146.67 49.2715 146.921 46.2764C146.685 46.7461 146.56 47.2461 146.765 47.7007C146.198 47.5189 145.401 47.3926 144.849 47.6755C144.287 47.9634 143.564 48.8523 144.668 49.0998C144.543 50.408 146.55 50.6706 146.63 49.1402C146.64 49.1301 146.474 48.9937 146.469 48.9836C146.329 50.1807 144.969 49.8978 145.095 48.8675C145.245 47.6148 146.489 48.0593 147.031 48.4634C148.527 49.5847 150.343 50.5696 152.079 49.0796L152.184 48.8877V48.8927Z" fill="#1A1A18"/>
<path fill-rule="evenodd" clip-rule="evenodd" d="M56.333 12.8499C59.3837 16.2037 67.5273 13.9864 67.2062 7.87988C67.6578 8.8547 67.8886 9.88508 67.432 10.7841C68.6011 10.4508 70.2318 10.2487 71.3357 10.8599C72.4547 11.4812 73.8797 13.3399 71.6167 13.7642C71.7873 16.4361 67.6979 16.8351 67.6177 13.7238C67.5976 13.7035 67.9438 13.4409 67.9538 13.4207C68.1596 15.8704 70.9494 15.3754 70.7537 13.2793C70.5229 10.7286 67.9589 11.5418 66.8399 12.3297C63.729 14.5117 59.9658 16.3957 56.5337 13.249L56.333 12.855V12.8499Z" fill="#1A1A18"/>
<path fill-rule="evenodd" clip-rule="evenodd" d="M36.3125 6.98055C37.2357 3.65708 43.3874 2.22263 45.1887 6.40475C45.1686 5.59661 44.9779 4.82888 44.3808 4.38945C45.269 4.19247 46.423 3.74799 46.9549 2.9449C47.4968 2.13171 47.828 0.384105 46.1822 0.909397C45.4145 -0.929124 42.5594 0.267935 43.5379 2.3691C43.5329 2.3893 43.849 2.43981 43.859 2.44992C43.1867 0.747769 45.2037 0.0760014 45.7707 1.54581C46.4581 3.32877 44.4862 3.70253 43.4827 3.57626C40.6929 3.2328 37.5669 3.32372 36.3225 6.6472V6.98055H36.3125Z" fill="#1A1A18"/>
<path fill-rule="evenodd" clip-rule="evenodd" d="M21.0493 16.6174C23.799 18.1023 23.9395 24.2038 19.9404 25.1533C20.658 25.2847 21.3604 25.2443 21.8572 24.7543C21.8672 25.6332 22.0478 26.81 22.655 27.4616C23.2721 28.1233 24.7423 28.7597 24.5817 27.0979C26.3329 26.704 25.806 23.7694 23.7839 24.3149C23.7689 24.3048 23.6635 24.5977 23.6535 24.6078C25.2692 24.2795 25.4899 26.3201 24.1 26.5878C22.4141 26.9161 22.4442 24.9766 22.7352 24.0421C23.5431 21.451 24.0298 18.466 21.3454 16.678L21.0543 16.6123L21.0493 16.6174Z" fill="#1A1A18"/>
<path fill-rule="evenodd" clip-rule="evenodd" d="M25.9365 27.8859C26.4182 27.3808 26.7945 26.9111 27.3314 26.5777C28.0289 26.1484 28.621 26.2797 29.3535 25.8857C29.1428 26.3555 28.932 26.9212 28.4855 27.2343C27.8583 27.6788 26.9852 27.4061 26.3881 27.6839C26.9501 27.3909 27.8533 27.4616 28.2497 26.6383C27.492 26.6989 26.6942 27.1788 25.9365 27.8808V27.8859Z" fill="#1A1A18"/>
<path fill-rule="evenodd" clip-rule="evenodd" d="M26.6541 27.573C26.6491 27.0578 26.6039 26.6133 26.7043 26.1537C26.8448 25.5526 27.2111 25.3052 27.3867 24.7041C27.5171 25.0577 27.6927 25.4567 27.6225 25.8608C27.5272 26.4265 26.9451 26.7598 26.7795 27.2295C26.915 26.775 27.4118 26.3204 27.201 25.689C26.8448 26.1285 26.6792 26.8053 26.6491 27.573H26.6541Z" fill="#1A1A18"/>
<path d="M22.5293 33.0174C22.5293 33.0174 22.6848 33.3507 22.9608 33.2699C23.2368 33.1942 23.4927 32.9467 23.593 32.7951C23.6884 32.6436 23.7636 32.6386 23.9041 32.482C24.0446 32.3204 24.0697 32.3406 24.14 32.1739C24.2102 32.0123 24.2453 31.9567 24.4661 31.8708C24.6869 31.785 25.0682 31.5425 25.1937 31.3708C25.3191 31.1991 25.304 30.997 25.4395 30.7899C25.5951 30.5475 25.9062 30.1889 25.861 29.8656C25.8459 29.7495 25.7707 29.6737 25.7305 29.5777C25.3492 29.9111 25.3342 30.5576 25.0331 30.9364C24.7872 31.2445 24.4611 31.6587 24.1249 31.8557C24.6518 31.4062 24.6267 31.3556 24.8374 31.1233C24.9779 30.9617 25.1334 30.6788 25.2238 30.4667C25.3141 30.2394 25.4245 29.699 25.6703 29.4414C25.4897 29.5424 25.1686 30.0879 25.018 30.199C24.5514 30.5425 23.8038 32.1537 23.4475 32.5426C23.8891 31.8203 24.9879 29.7495 25.6051 29.3504C25.289 29.5474 24.9779 29.4919 24.0697 30.1939C24.3557 29.8555 25.0682 29.3909 25.4144 29.2696C25.7055 29.1686 25.6854 28.9615 25.8008 28.709C25.8008 28.709 24.9327 28.81 24.6518 29.1282C24.3657 29.4464 23.9142 29.9465 23.7034 30.4869C23.4927 31.0273 23.2569 31.8456 23.1665 32.1183C23.0812 32.3961 22.9909 32.5173 22.8002 32.7143C22.6096 32.9113 22.5343 33.0224 22.5343 33.0224L22.5293 33.0174Z" fill="#1A1A18"/>
<path d="M25.9919 28.6034C25.9618 29.3964 26.6442 30.6036 27.151 31.0986C26.7446 30.5177 26.1274 29.4368 26.1425 28.558C26.4837 28.7398 26.9704 29.6439 27.1911 29.9672C27.4771 30.3814 28.1294 31.341 28.4305 31.74C28.6814 32.0734 28.566 31.9017 28.7566 32.2047C27.9287 31.1541 27.0707 29.4924 26.293 28.3812C26.6793 28.9368 27.3868 29.2399 27.8434 29.7197C28.3151 30.2197 28.852 30.9572 29.4089 31.6895C27.708 29.0883 26.9051 28.5479 26.4285 28.2549C27.2212 28.4519 27.5925 28.6338 27.9789 28.8358C28.3653 29.0378 28.9172 29.4368 29.5645 29.9773C29.1229 29.5631 28.2699 28.8964 28.009 28.7449C27.5875 28.5024 27.0557 28.2095 26.7345 28.0479C27.4571 28.1792 28.7416 28.8711 29.3286 29.4318C29.71 29.7955 30.0412 30.1339 29.9057 30.4672C29.7702 30.8056 29.71 30.8309 29.7401 30.9976C29.7702 31.1541 29.7451 31.2602 29.6849 31.2855C29.6247 31.3158 29.5896 31.3309 29.5695 31.4774C29.5494 31.6239 29.439 31.7855 29.3437 31.8613C29.2484 31.932 29.2183 31.9067 29.1731 31.9875C29.133 32.0684 29.0978 32.1795 28.9573 32.3007C28.8169 32.4219 28.7566 32.3866 28.7165 32.3967C28.6764 32.4118 28.5911 32.4724 28.4054 32.4825C28.2198 32.4926 28.004 32.3512 27.7882 32.2148C27.5624 32.0785 27.0155 31.5734 26.6844 31.0228C26.3482 30.4723 26.0772 30.0429 26.012 29.7601C25.9518 29.5177 25.7812 28.9772 25.9919 28.6034Z" fill="#1A1A18"/>
<path d="M29.8647 29.7854C29.8647 29.7854 30.0302 29.7652 30.1356 29.6743C30.236 29.5834 30.2962 29.5379 30.4216 29.5026C30.5471 29.4672 30.6424 29.4268 30.6323 29.3258C30.6223 29.2248 30.5471 29.1238 30.5571 29.0682C30.5671 29.0126 30.5571 28.9874 30.4467 28.9268C30.3313 28.8712 29.8546 28.6843 29.6941 28.6288C29.5385 28.5783 29.117 28.3459 28.831 28.2954C28.54 28.25 28.3794 28.2752 28.2088 28.25C28.0382 28.2197 27.963 28.2449 27.7623 28.1944C27.5616 28.1439 27.4512 28.1338 27.4512 28.1338C27.4512 28.1338 28.0834 28.351 28.4045 28.5732C28.7257 28.8005 29.107 28.9975 29.3529 29.2197C29.5987 29.442 29.7894 29.6743 29.7894 29.6743L29.8596 29.7753L29.8647 29.7854Z" fill="#1A1A18"/>
<path d="M30.9034 29.0071C30.9034 29.0071 31.2295 29.1131 31.3951 29.1081C31.5607 29.1081 31.641 29.0273 31.6661 28.9161C31.6911 28.8101 31.7012 28.6788 31.636 28.608L31.5707 28.5373C31.5707 28.5373 31.5858 28.6131 31.5205 28.608C31.4553 28.608 31.2797 28.4565 31.0941 28.3353C30.9084 28.2141 30.6073 28.0575 30.1708 27.9312C29.7142 27.7948 29.082 27.7191 28.4146 27.709C28.2139 27.709 27.5968 27.7292 27.09 27.8908C27.2405 27.8757 27.7925 27.8706 28.0283 27.911C28.2691 27.9514 28.5852 27.9211 28.8462 27.9211C29.378 27.9211 29.93 27.9211 30.3565 28.3757C29.8396 27.8757 29.1171 27.9464 28.4046 27.9615C27.9028 27.9716 27.4462 27.8555 26.9395 27.9514C27.2556 28.0171 27.6118 27.9817 27.938 28.012C28.4096 28.0575 28.796 28.0322 29.5938 28.3555C30.3966 28.6838 30.9034 28.997 30.9034 28.997V29.0071Z" fill="#1A1A18"/>
<path d="M29.3486 32.0579C29.3486 32.0579 29.7099 32.2095 29.8253 32.1337C29.9407 32.063 30.0461 31.962 30.0461 31.8912V31.8256C30.0461 31.8256 30.0762 31.8205 30.1615 31.7751C30.2468 31.7296 30.2518 31.7094 30.2468 31.6084C30.2468 31.5074 30.2066 31.4417 30.2468 31.4064C30.2819 31.371 30.3772 31.3862 30.4274 31.3356C30.4726 31.2801 30.4726 31.1791 30.4575 31.0882C30.4425 30.9922 30.4375 30.9568 30.4375 30.9568C30.4375 30.9568 30.4977 30.8811 30.5529 30.8407C30.6081 30.8003 30.6733 30.7497 30.6582 30.6538C30.6432 30.5578 30.5177 30.2346 30.4274 30.1083C30.3371 29.982 30.302 29.9062 30.302 29.9062C30.302 29.9062 30.1314 29.9972 30.0712 30.0073L30.011 30.0174C30.011 30.0174 30.0963 30.2346 30.1063 30.3457C30.1213 30.4618 29.9909 30.7346 29.9407 30.8053C29.8905 30.876 29.9206 31.0174 29.9206 31.1387C29.9206 31.2599 29.8303 31.4165 29.7651 31.467C29.6999 31.5175 29.735 31.6134 29.6647 31.7549C29.5945 31.8963 29.5845 31.9569 29.4941 31.9923C29.3988 32.0276 29.3536 32.063 29.3536 32.063L29.3486 32.0579Z" fill="#1A1A18"/>
<path d="M25.9866 34.3815C25.9866 34.3815 26.1874 34.5936 26.3529 34.5835C26.5185 34.5734 26.654 34.5381 26.7694 34.4522C26.8848 34.3663 27.0052 34.1037 26.9751 33.9017C26.945 33.6946 26.9199 33.5127 26.9199 33.5127C26.9199 33.5127 26.9199 33.2299 26.9049 33.0935C26.8898 32.9571 26.7995 32.7602 26.8146 32.649C26.8296 32.5379 26.8547 32.4723 26.8948 32.3258C26.935 32.1793 26.9551 31.9318 26.95 31.8156C26.95 31.8156 26.5737 31.3661 26.5035 31.2398C26.4332 31.1136 26.2275 30.8206 26.1322 30.5933C26.0368 30.366 26.0017 30.2246 26.0017 30.2246C26.0017 30.2246 25.9515 30.4266 25.8411 30.6135C25.7307 30.7954 25.6053 30.8711 25.5601 31.1035C25.515 31.3358 25.4297 31.5328 25.3594 31.5883L25.2842 31.6439C25.2842 31.6439 25.515 32.3662 25.6956 32.644C25.8763 32.9218 26.2074 33.4723 26.2727 33.7299C26.3128 33.8764 26.4734 34.2148 26.383 34.3714C26.3028 34.5078 26.087 34.4926 25.9866 34.3865V34.3815Z" fill="#1A1A18"/>
<path d="M27.1153 34.4829C27.1153 34.4829 27.4515 34.2657 27.4565 34.1192C27.4565 33.9778 27.5418 33.7555 27.4565 33.5182C27.3762 33.2808 27.2508 32.8868 27.316 32.7151C27.3812 32.5433 27.5217 32.2605 27.5217 32.2605C27.5217 32.2605 27.5167 32.2302 27.3612 32.1039C27.2056 31.9776 27.1404 31.8867 27.1404 31.8867C27.1404 31.8867 27.1003 32.1443 27.0601 32.3514C27.02 32.5585 26.9447 32.6191 27.0049 32.9727C27.0651 33.3313 27.0902 33.5788 27.1304 33.7555C27.1705 33.9374 27.2106 34.0636 27.1304 34.2657C27.0501 34.4677 27.1153 34.4879 27.1153 34.4879V34.4829Z" fill="#1A1A18"/>
<path d="M27.5817 34.1648C27.5817 34.1648 27.7523 34.2103 27.8376 34.2153C27.9229 34.2153 28.0433 34.0992 28.0433 33.9375C28.0484 33.7759 28.1036 33.6092 28.1537 33.4173C28.2039 33.2203 28.3093 32.9678 28.2742 32.8364L28.234 32.7051C28.234 32.7051 28.0835 32.6092 27.9631 32.5586C27.8426 32.5081 27.7724 32.4576 27.7072 32.4021L27.6369 32.3516C27.6369 32.3516 27.5416 32.4576 27.4864 32.7102C27.4262 32.9678 27.4763 33.1547 27.5616 33.4426C27.6419 33.7305 27.662 33.8264 27.6118 33.9678C27.5566 34.1143 27.5516 34.1699 27.5516 34.1699L27.5918 34.1547L27.5817 34.1648Z" fill="#1A1A18"/>
<path d="M28.2793 33.4219C28.2793 33.4219 28.3445 33.2502 28.3796 33.134C28.4148 33.0179 28.4649 32.9118 28.4198 32.8259L28.3746 32.735C28.3746 32.735 28.5302 32.639 28.6556 32.6289C28.7861 32.6188 28.9316 32.5633 29.0169 32.4976C29.1072 32.432 29.2126 32.2956 29.2377 32.24C29.2678 32.1845 29.3129 32.1289 29.3129 32.1289C29.3129 32.1289 29.4484 32.2249 29.5437 32.2198C29.6441 32.2198 29.6591 32.2602 29.6591 32.2602C29.6591 32.2602 29.7294 32.2905 29.6892 32.4219C29.6491 32.5582 29.5588 32.5532 29.5437 32.6744C29.5287 32.7956 29.4885 32.8562 29.5337 32.9472L29.5789 33.033C29.5789 33.033 29.5738 33.0886 29.4885 33.0835H29.4032C29.4032 33.0835 29.4484 33.1694 29.3782 33.2553C29.3029 33.3462 29.3029 33.2957 29.1875 33.2957C29.0721 33.2957 28.9868 33.3765 28.8914 33.3765C28.7911 33.3765 28.8563 33.3007 28.6606 33.3361C28.47 33.3765 28.2793 33.4118 28.2793 33.4118V33.4219Z" fill="#1A1A18"/>
<path d="M29.6699 32.8003C29.6699 32.8003 29.8706 32.77 29.9308 32.7599C29.991 32.7498 29.976 32.7245 29.981 32.669C29.991 32.6084 29.981 32.5477 30.0512 32.5477C30.1165 32.5477 30.1265 32.4871 30.0964 32.4215C30.0663 32.3558 30.0161 32.2346 30.0763 32.174C30.1365 32.1134 30.2268 32.0982 30.2319 31.9871V31.876L30.1516 31.9416C30.1516 31.9416 30.1415 31.9315 30.0763 32.073C30.0061 32.2144 30.0111 32.2447 29.9208 32.2598L29.8305 32.275C29.8305 32.275 29.8054 32.3609 29.7853 32.5023C29.7652 32.6387 29.7351 32.6488 29.6849 32.7195L29.6348 32.7952H29.6749L29.6699 32.8003Z" fill="#1A1A18"/>
<path fill-rule="evenodd" clip-rule="evenodd" d="M25.1181 28.4824C24.7618 28.8461 24.4808 29.1845 24.0894 29.4168C23.5776 29.7249 23.1511 29.6189 22.6143 29.8967C22.7698 29.5583 22.9304 29.1491 23.2615 28.9218C23.7181 28.6087 24.3554 28.8158 24.7969 28.6188C24.3855 28.8259 23.7282 28.7653 23.4321 29.3613C23.9841 29.3259 24.5711 28.9875 25.1281 28.4824H25.1181Z" fill="#1A1A18"/>
<path fill-rule="evenodd" clip-rule="evenodd" d="M35.7558 6.84902C35.7307 5.69237 35.6253 4.7024 35.8561 3.67707C36.1572 2.33858 36.975 1.77289 37.3514 0.439453C37.6424 1.22234 38.0438 2.11635 37.8933 3.0154C37.6875 4.27812 36.398 5.03575 36.0367 6.08634C36.3378 5.06606 37.4316 4.05083 36.955 2.63659C36.1772 3.63161 35.811 5.14182 35.7558 6.84902Z" fill="#1A1A18"/>
<path d="M41.9121 17.7898C41.9121 17.7898 42.3537 18.3454 42.8504 18.0676C43.3421 17.7898 43.7235 17.1887 43.8389 16.8554C43.9543 16.517 44.0948 16.4766 44.2955 16.1028C44.4912 15.729 44.5464 15.7492 44.6066 15.4058C44.6668 15.0623 44.717 14.936 45.0933 14.6683C45.4696 14.3956 46.0968 13.7491 46.2574 13.3652C46.4179 12.9813 46.3025 12.6025 46.4681 12.1429C46.6588 11.6025 47.0903 10.7691 46.8595 10.168C46.7792 9.95587 46.6036 9.84475 46.4782 9.67807C45.8961 10.4963 46.152 11.7439 45.7556 12.6126C45.4245 13.3248 44.9879 14.2643 44.431 14.8047C45.2288 13.6885 45.1736 13.6026 45.4646 13.0521C45.6653 12.6783 45.8359 12.0621 45.9011 11.6075C45.9714 11.1277 45.9513 10.0367 46.3025 9.43058C46.0015 9.71342 45.6302 10.9105 45.3943 11.1933C44.6568 12.0722 43.9443 15.5169 43.4425 16.4311C43.9643 14.8401 45.1384 10.3397 46.142 9.2841C45.6252 9.81444 45.003 9.85485 43.583 11.6429C43.9794 10.8549 45.1284 9.62251 45.7406 9.22854C46.2574 8.89518 46.1269 8.51132 46.2223 7.96582C46.2223 7.96582 44.6116 8.57698 44.2152 9.32451C43.8138 10.072 43.1715 11.2388 43.016 12.3752C42.8604 13.5117 42.7601 15.1835 42.7199 15.7543C42.6798 16.325 42.5594 16.6028 42.2834 17.0726C42.0074 17.5423 41.9121 17.7898 41.9121 17.7898Z" fill="#1A1A18"/>
<path d="M46.5533 7.68272C46.8494 9.21818 48.6959 11.188 49.88 11.8951C48.8414 10.9759 47.1805 9.21818 46.8193 7.53119C47.5468 7.70797 48.8815 9.20303 49.4535 9.71317C50.1861 10.3647 51.8519 11.885 52.6096 12.5013C53.2368 13.0164 52.9358 12.7437 53.4375 13.2336C51.3753 11.6224 48.9969 8.85957 47.015 7.12207C48.0084 7.99587 49.4937 8.22821 50.5825 8.93028C51.7115 9.65761 53.0712 10.8092 54.4511 11.9356C50.0406 7.79384 48.2643 7.14732 47.2207 6.81396C48.8213 6.81396 49.6091 6.98064 50.447 7.17763C51.2749 7.36956 52.5093 7.87465 53.9844 8.59187C52.9558 8.01607 51.0291 7.15237 50.457 6.99075C49.5388 6.7281 48.3898 6.43515 47.7074 6.27352C49.1474 6.17755 51.9071 6.87458 53.287 7.66251C54.1801 8.17265 54.9629 8.65249 54.8525 9.36466C54.7471 10.0718 54.6418 10.1576 54.7722 10.4455C54.9027 10.7385 54.9027 10.9456 54.7973 11.0314C54.6969 11.1173 54.6367 11.1678 54.6668 11.4557C54.6919 11.7386 54.5565 12.1123 54.4059 12.2942C54.2554 12.4811 54.1801 12.4457 54.14 12.6225C54.0998 12.7942 54.0798 13.0265 53.869 13.3245C53.6583 13.6276 53.5278 13.5821 53.4576 13.6226C53.3873 13.668 53.2569 13.8296 52.9006 13.9357C52.5444 14.0418 52.0777 13.8751 51.5961 13.7236C51.1093 13.5771 49.8399 12.87 48.9518 11.981C48.0636 11.0921 47.3562 10.4001 47.1003 9.895C46.8795 9.46063 46.3075 8.50601 46.5483 7.69282L46.5533 7.68272Z" fill="#1A1A18"/>
<path d="M54.4865 8.06175C54.4865 8.06175 54.8026 7.94558 54.9531 7.72334C55.1037 7.49605 55.199 7.38493 55.4298 7.25866C55.6556 7.13239 55.8162 7.01117 55.7509 6.81924C55.6857 6.63235 55.5 6.48083 55.495 6.36971C55.485 6.25859 55.4649 6.20808 55.2241 6.15757C54.9832 6.10706 53.9847 5.98079 53.6586 5.95553C53.3324 5.93028 52.4293 5.68784 51.8522 5.73835C51.2752 5.78886 50.9842 5.92018 50.643 5.94543C50.3018 5.97574 50.1763 6.05655 49.7649 6.05655C49.3585 6.05655 49.1377 6.09191 49.1377 6.09191C49.1377 6.09191 50.4423 6.19293 51.1598 6.47072C51.8773 6.74347 52.6952 6.94551 53.2622 7.24856C53.8292 7.55666 54.3008 7.90517 54.3008 7.90517L54.4815 8.0668L54.4865 8.06175Z" fill="#1A1A18"/>
<path d="M56.1173 6.07637C56.1173 6.07637 56.7897 6.11678 57.1058 6.03091C57.4219 5.94505 57.5423 5.75817 57.5423 5.53593C57.5423 5.31874 57.5072 5.0662 57.3467 4.96013L57.1861 4.85406C57.1861 4.85406 57.2563 4.99043 57.1209 5.01569C56.9904 5.04599 56.594 4.84396 56.1826 4.69748C55.7711 4.55606 55.1239 4.39948 54.2357 4.36917C53.3025 4.33382 52.0581 4.4904 50.7886 4.7985C50.4023 4.88942 49.2332 5.23288 48.34 5.78342C48.626 5.68745 49.6697 5.40966 50.1363 5.36925C50.618 5.32884 51.2101 5.12176 51.7068 4.99548C52.7204 4.74294 53.7741 4.47524 54.7927 5.13691C53.5834 4.43484 52.2337 4.91467 50.8789 5.29349C49.9256 5.56118 48.9973 5.56118 48.0791 5.98546C48.7163 5.95515 49.3787 5.71776 50.0109 5.62179C50.9341 5.48542 51.6567 5.24298 53.3326 5.48037C55.0084 5.71271 56.1224 6.07637 56.1224 6.07637H56.1173Z" fill="#1A1A18"/>
<path d="M54.5166 12.6526C54.5166 12.6526 55.2692 12.7637 55.4649 12.5718C55.6606 12.3748 55.8111 12.1374 55.781 12.0061L55.7509 11.8748C55.7509 11.8748 55.8061 11.8495 55.9466 11.7182C56.0871 11.5869 56.0871 11.5465 56.0319 11.3545C55.9767 11.1626 55.8864 11.0565 55.9416 10.9707C55.9968 10.8848 56.1875 10.8646 56.2527 10.7434C56.3179 10.6222 56.2627 10.4252 56.1975 10.2534C56.1273 10.0817 56.1022 10.011 56.1022 10.011C56.1022 10.011 56.1825 9.83927 56.2728 9.72815C56.3581 9.62208 56.4634 9.4958 56.3932 9.32407C56.3229 9.15234 55.9366 8.5917 55.7108 8.38966C55.485 8.19268 55.3846 8.06641 55.3846 8.06641C55.3846 8.06641 55.0936 8.324 54.9832 8.36946L54.8729 8.41997C54.8729 8.41997 55.1287 8.79373 55.204 9.00587C55.2793 9.21801 55.1538 9.80391 55.0886 9.96554C55.0284 10.1272 55.1388 10.3797 55.194 10.612C55.2542 10.8444 55.1438 11.1929 55.0384 11.3192C54.9331 11.4454 55.0384 11.6172 54.9732 11.9202C54.903 12.2233 54.913 12.3395 54.7474 12.4556C54.5868 12.5667 54.5166 12.6526 54.5166 12.6526Z" fill="#1A1A18"/>
<path d="M49.1227 18.7287C49.1227 18.7287 49.6044 19.0419 49.9155 18.9409C50.2316 18.8399 50.4725 18.7085 50.6531 18.4863C50.8337 18.2641 50.9542 17.7135 50.7986 17.3296C50.6431 16.9508 50.5176 16.6124 50.5176 16.6124C50.5176 16.6124 50.3922 16.072 50.2969 15.8144C50.2065 15.5618 49.9456 15.2234 49.9256 15.0012C49.9105 14.779 49.9205 14.6426 49.9256 14.3446C49.9356 14.0466 49.8603 13.5617 49.8102 13.3445C49.8102 13.3445 48.8919 12.6727 48.6962 12.4657C48.5006 12.2586 47.9787 11.7939 47.6977 11.41C47.4167 11.0211 47.2863 10.7686 47.2863 10.7686C47.2863 10.7686 47.2863 11.1827 47.1508 11.5868C47.0204 11.9909 46.8196 12.198 46.8397 12.6626C46.8598 13.1273 46.7845 13.5465 46.6691 13.688L46.5537 13.8294C46.5537 13.8294 47.3164 15.0972 47.788 15.5416C48.2547 15.9912 49.1328 16.8852 49.3736 17.3347C49.5191 17.6024 49.9707 18.1731 49.8704 18.5065C49.775 18.8096 49.3535 18.8853 49.1127 18.7237L49.1227 18.7287Z" fill="#1A1A18"/>
<path d="M51.3307 18.3757C51.3307 18.3757 51.8726 17.7948 51.8174 17.5221C51.7572 17.2493 51.8174 16.7897 51.5565 16.3755C51.2956 15.9614 50.8791 15.2643 50.9293 14.9007C50.9795 14.5421 51.12 13.936 51.12 13.936C51.12 13.936 51.0949 13.8804 50.7386 13.7087C50.3824 13.542 50.2168 13.3955 50.2168 13.3955C50.2168 13.3955 50.2569 13.9056 50.272 14.3198C50.287 14.734 50.1666 14.8805 50.4426 15.532C50.7236 16.1785 50.8741 16.6432 51.0297 16.9715C51.1852 17.2948 51.3207 17.5221 51.2554 17.9413C51.1952 18.3605 51.3307 18.3706 51.3307 18.3706V18.3757Z" fill="#1A1A18"/>
<path d="M52.0835 17.537C52.0835 17.537 52.4247 17.5471 52.5953 17.5118C52.7659 17.4764 52.9314 17.1835 52.8712 16.8754C52.806 16.5622 52.8411 16.2238 52.8461 15.8248C52.8512 15.4258 52.9465 14.8853 52.811 14.658L52.6755 14.4307C52.6755 14.4307 52.3444 14.3196 52.0935 14.2843C51.8426 14.2439 51.6871 14.1782 51.5265 14.1125L51.3659 14.0469C51.3659 14.0469 51.2305 14.2944 51.2355 14.8096C51.2355 15.3247 51.4161 15.6682 51.7021 16.1783C51.9881 16.6885 52.0634 16.8602 52.0283 17.1633C51.9932 17.4613 52.0032 17.5825 52.0032 17.5825L52.0734 17.537H52.0835Z" fill="#1A1A18"/>
<path d="M53.0862 15.7894C53.0862 15.7894 53.1364 15.4308 53.1565 15.1884C53.1766 14.951 53.2167 14.7287 53.0913 14.5823L52.9658 14.4307C52.9658 14.4307 53.2117 14.1731 53.4525 14.0923C53.6934 14.0115 53.9443 13.8347 54.0848 13.663C54.2252 13.4913 54.3708 13.1832 54.4009 13.0619C54.431 12.9407 54.4962 12.8145 54.4962 12.8145C54.4962 12.8145 54.7922 12.9306 54.9779 12.8751C55.1635 12.8195 55.2187 12.9003 55.2187 12.9003C55.2187 12.9003 55.3642 12.9205 55.3442 13.2034C55.3291 13.4812 55.1585 13.5165 55.1786 13.7539C55.1987 13.9863 55.1535 14.1327 55.2789 14.2792L55.4044 14.4257C55.4044 14.4257 55.4144 14.5318 55.2539 14.5621L55.0933 14.5924C55.0933 14.5924 55.2187 14.7388 55.1234 14.9459C55.0281 15.153 54.998 15.057 54.7772 15.1177C54.5514 15.1732 54.436 15.3651 54.2453 15.4207C54.0597 15.4763 54.1399 15.2894 53.7937 15.4611C53.4475 15.6278 53.0963 15.7945 53.0963 15.7945L53.0862 15.7894Z" fill="#1A1A18"/>
<path d="M55.4549 13.9204C55.4549 13.9204 55.8262 13.774 55.9366 13.7235C56.047 13.6729 56.0068 13.6376 55.9968 13.5214C55.9867 13.4052 55.9416 13.2891 56.072 13.2588C56.2025 13.2285 56.1925 13.1072 56.1072 12.9961C56.0219 12.885 55.8764 12.6779 55.9566 12.5314C56.0419 12.385 56.2075 12.3143 56.1724 12.0971L56.1373 11.8799L56.0018 12.0516C56.0018 12.0516 55.9817 12.0314 55.9065 12.3345C55.8362 12.6375 55.8613 12.6931 55.6957 12.7688L55.5301 12.8446C55.5301 12.8446 55.5301 13.0214 55.5452 13.2992C55.5653 13.577 55.5101 13.5972 55.4499 13.7639L55.3896 13.9255H55.4649L55.4549 13.9204Z" fill="#1A1A18"/>
<path fill-rule="evenodd" clip-rule="evenodd" d="M44.8325 7.875C44.3157 8.7387 43.9293 9.52159 43.282 10.163C42.4391 10.9964 41.576 11.0065 40.6729 11.7945C40.8234 11.0672 40.9438 10.2136 41.4707 9.6226C42.2082 8.79931 43.5128 8.88518 44.2655 8.29927C43.573 8.90033 42.2885 9.09226 41.9875 10.3752C43.0211 10.0368 43.9945 9.10741 44.8325 7.875Z" fill="#1A1A18"/>
<path fill-rule="evenodd" clip-rule="evenodd" d="M45.7861 6.99091C46.7746 5.4908 47.5122 4.12201 48.7064 3.03102C50.2669 1.60667 51.8123 1.65718 53.4731 0.308594C53.157 1.59152 52.8811 3.11183 51.9026 4.12706C50.5278 5.54636 48.2096 5.28876 46.8298 6.27873C48.1093 5.26351 50.4124 5.00591 51.0396 2.74312C49.168 3.26841 47.3717 4.85439 45.7962 6.98586L45.7861 6.99091Z" fill="#1A1A18"/>
<path fill-rule="evenodd" clip-rule="evenodd" d="M24.3457 8.44562C24.8625 8.61229 25.289 8.79918 25.7807 8.82948C26.418 8.86484 26.7893 8.54663 27.4366 8.54663C27.1255 8.29914 26.7793 7.98093 26.3578 7.93043C25.7657 7.85971 25.2489 8.37995 24.7321 8.41531C25.2288 8.40521 25.8359 8.01124 26.4029 8.43551C25.851 8.67796 25.1234 8.6527 24.3507 8.44562H24.3457Z" fill="#1A1A18"/>
<path fill-rule="evenodd" clip-rule="evenodd" d="M24.9531 8.38477C25.1287 8.74843 25.2542 9.07674 25.49 9.35959C25.7961 9.72325 26.1423 9.76366 26.4735 10.1172C26.4383 9.81922 26.4233 9.47576 26.2326 9.21816C25.9667 8.85955 25.4449 8.8444 25.1639 8.5767C25.4198 8.8444 25.9265 8.97067 26.0018 9.49596C25.6004 9.31918 25.2441 8.91006 24.9531 8.38477Z" fill="#1A1A18"/>
<path d="M20.1606 6.14193C20.1606 6.14193 20.1555 5.85403 20.3713 5.80352C20.5921 5.75301 20.858 5.82878 20.9784 5.89949C21.0989 5.9702 21.149 5.94495 21.3046 6.00051C21.4601 6.06112 21.4702 6.04091 21.5755 6.12678C21.6809 6.21264 21.7261 6.2379 21.9067 6.21264C22.0923 6.19244 22.4436 6.21264 22.5891 6.28336C22.7346 6.35407 22.7948 6.50054 22.9654 6.59651C23.1611 6.70763 23.5023 6.83895 23.5826 7.0814C23.6127 7.16726 23.5826 7.24807 23.5926 7.33394C23.2113 7.24302 22.9704 6.79855 22.6292 6.64702C22.3482 6.52075 21.9769 6.35912 21.6709 6.34902C22.1977 6.46519 22.1977 6.50559 22.4285 6.59146C22.5841 6.64702 22.7898 6.78844 22.9303 6.90461C23.0758 7.03089 23.3417 7.36424 23.6027 7.45011C23.4421 7.45011 23.0256 7.18746 22.8801 7.16726C22.4335 7.10665 21.3447 6.26315 20.9584 6.12173C21.5203 6.45509 23.0156 7.49557 23.5876 7.53597C23.2966 7.51577 23.1009 7.6774 22.2178 7.53092C22.5389 7.6572 23.2012 7.71275 23.4822 7.6673C23.7231 7.62689 23.7833 7.77842 23.9489 7.91479C23.9489 7.91479 23.3066 8.17238 22.9955 8.05621C22.6844 7.94004 22.1977 7.76831 21.8565 7.46526C21.5203 7.16726 21.0687 6.68743 20.9082 6.5258C20.7526 6.36417 20.6423 6.31366 20.4415 6.248C20.2358 6.18234 20.1455 6.13183 20.1455 6.13183L20.1606 6.14193Z" fill="#1A1A18"/>
<path d="M24.1296 7.91976C23.8286 7.37427 23.8838 6.27318 24.0644 5.73273C23.9841 6.29338 23.9289 7.28335 24.2501 7.89451C24.4257 7.64197 24.4457 6.82372 24.4909 6.51057C24.5461 6.11155 24.6615 5.19229 24.7368 4.80337C24.797 4.47506 24.7719 4.64174 24.802 4.35384C24.5913 5.40948 24.5712 6.89444 24.4156 7.96522C24.4909 7.42983 24.8823 6.95 25.0328 6.43986C25.1884 5.90951 25.3038 5.18724 25.4392 4.46496C25.1582 6.92979 24.7869 7.61671 24.5561 8.00058C25.0428 7.56115 25.2385 7.29346 25.4392 7.00556C25.6399 6.71766 25.8858 6.22772 26.1467 5.60646C25.9862 6.06104 25.6199 6.85403 25.4894 7.06112C25.2787 7.39447 25.0077 7.79854 24.8421 8.03593C25.2987 7.66722 25.9561 6.69745 26.1718 6.08124C26.3123 5.68222 26.4227 5.32361 26.212 5.13673C26.0012 4.9549 25.946 4.9549 25.9109 4.83368C25.8758 4.7074 25.8256 4.64679 25.7704 4.65185C25.7202 4.65185 25.6901 4.65185 25.6249 4.56093C25.5597 4.47001 25.4242 4.3892 25.3339 4.3791C25.2435 4.36395 25.2285 4.39425 25.1733 4.35384C25.1181 4.31344 25.0529 4.24778 24.9124 4.21747C24.7719 4.18211 24.7418 4.23262 24.7117 4.24272C24.6816 4.24777 24.5963 4.23767 24.4658 4.30334C24.3303 4.369 24.235 4.54578 24.1246 4.72761C24.0192 4.90439 23.8135 5.47009 23.7684 5.98023C23.7282 6.49037 23.6881 6.89444 23.7383 7.12173C23.7834 7.31366 23.8486 7.75814 24.1296 7.93997V7.91976Z" fill="#1A1A18"/>
<path d="M26.4282 5.62222C26.4282 5.62222 26.5537 5.57171 26.654 5.59697C26.7544 5.62222 26.8146 5.63232 26.9149 5.60707C27.0153 5.58181 27.0956 5.57171 27.1257 5.65252C27.1558 5.72829 27.1357 5.82426 27.1608 5.85961C27.1859 5.89497 27.1959 5.91517 27.1307 5.99598C27.0705 6.0768 26.7995 6.38995 26.7092 6.49097C26.6189 6.58694 26.4082 6.91019 26.2225 7.05162C26.0369 7.19304 25.9114 7.2385 25.806 7.31932C25.6957 7.40518 25.6354 7.41528 25.515 7.5264C25.3946 7.63752 25.3193 7.68803 25.3193 7.68803C25.3193 7.68803 25.6856 7.29911 25.8362 7.01626C25.9817 6.73341 26.1774 6.45056 26.2727 6.20307C26.368 5.95558 26.4182 5.71819 26.4182 5.71819L26.4333 5.61717L26.4282 5.62222Z" fill="#1A1A18"/>
<path d="M27.4269 5.76859C27.4269 5.76859 27.6176 5.57161 27.738 5.511C27.8534 5.45039 27.9387 5.47564 27.9939 5.5413C28.0491 5.60696 28.1043 5.69283 28.0792 5.76859L28.0591 5.84435C28.0591 5.84435 28.0441 5.78374 27.9989 5.81405C27.9537 5.8393 27.8835 6.01103 27.7982 6.16761C27.7079 6.32419 27.5523 6.54643 27.2914 6.80402C27.0205 7.07172 26.604 7.36467 26.1424 7.62226C26.0019 7.70308 25.5603 7.92027 25.1539 7.99603C25.2643 7.94552 25.6506 7.74349 25.8012 7.62732C25.9567 7.50609 26.1875 7.40508 26.3682 7.30911C26.7395 7.10707 27.1258 6.89494 27.2663 6.4151C27.0807 6.9606 26.5488 7.18789 26.042 7.44548C25.6858 7.62732 25.4098 7.88491 25.0234 8.00613C25.2241 7.83945 25.4851 7.72833 25.7008 7.58186C26.0119 7.36972 26.2929 7.24345 26.7395 6.70805C27.186 6.17771 27.4319 5.75849 27.4319 5.75849L27.4269 5.76859Z" fill="#1A1A18"/>
<path d="M25.2686 4.22282C25.2686 4.22282 25.4693 3.98038 25.5746 3.98543C25.685 3.98543 25.7904 4.02079 25.8155 4.07129L25.8406 4.11675C25.8406 4.11675 25.8606 4.10665 25.9359 4.1117C26.0112 4.1117 26.0212 4.1218 26.0563 4.19757C26.0914 4.26828 26.0864 4.32889 26.1266 4.33899C26.1667 4.34909 26.2269 4.30364 26.2771 4.32384C26.3273 4.34404 26.3624 4.41475 26.3825 4.48547C26.4076 4.55618 26.4126 4.58648 26.4126 4.58648C26.4126 4.58648 26.4828 4.61679 26.538 4.62689C26.5932 4.63699 26.6534 4.64709 26.6785 4.71781C26.7036 4.78852 26.7237 5.06632 26.7136 5.18754C26.6936 5.30876 26.6986 5.37442 26.6986 5.37442C26.6986 5.37442 26.5481 5.37442 26.4979 5.38957L26.4527 5.40473C26.4527 5.40473 26.4377 5.2229 26.4025 5.13703C26.3724 5.05117 26.1868 4.90974 26.1216 4.87944C26.0613 4.84913 26.0312 4.73801 25.9911 4.6572C25.951 4.57133 25.8305 4.49557 25.7653 4.48547C25.7001 4.47536 25.69 4.39455 25.5897 4.32384C25.4893 4.25313 25.4642 4.21272 25.389 4.22282C25.3087 4.23292 25.2686 4.22282 25.2686 4.22282Z" fill="#1A1A18"/>
<path d="M22.0977 3.87432C22.0977 3.87432 22.1629 3.64703 22.2833 3.59147C22.4037 3.53591 22.5091 3.50561 22.6195 3.52581C22.7299 3.54096 22.9055 3.67734 22.9557 3.83391C23.0058 3.99049 23.051 4.12687 23.051 4.12687C23.051 4.12687 23.1514 4.32385 23.1865 4.42487C23.2266 4.52589 23.2316 4.70267 23.2818 4.77338C23.332 4.84409 23.3721 4.8845 23.4524 4.97036C23.5327 5.05623 23.6331 5.22291 23.6732 5.30372C23.6732 5.30372 23.5678 5.7583 23.5628 5.87447C23.5578 5.99064 23.5176 6.27349 23.5327 6.47047C23.5478 6.66241 23.5728 6.77858 23.5728 6.77858C23.5728 6.77858 23.4675 6.65736 23.322 6.56644C23.1815 6.48058 23.0661 6.47552 22.9557 6.32905C22.8403 6.18257 22.7148 6.07651 22.6446 6.0664L22.5743 6.0563C22.5743 6.0563 22.484 5.46535 22.5141 5.19765C22.5392 4.93501 22.5793 4.41982 22.5392 4.21778C22.5141 4.09656 22.5091 3.79856 22.3887 3.72785C22.2833 3.66218 22.1378 3.75815 22.1027 3.86927L22.0977 3.87432Z" fill="#1A1A18"/>
<path d="M22.85 3.37402C22.85 3.37402 23.1611 3.39928 23.2113 3.5003C23.2614 3.60131 23.3969 3.72253 23.422 3.91952C23.4471 4.1165 23.5023 4.43976 23.6077 4.53573C23.713 4.63169 23.9087 4.77312 23.9087 4.77312C23.9087 4.77312 23.9137 4.79837 23.8535 4.94485C23.7883 5.09132 23.7732 5.18224 23.7732 5.18224C23.7732 5.18224 23.6578 5.01556 23.5525 4.88929C23.4521 4.75796 23.3768 4.74786 23.2966 4.47512C23.2163 4.20237 23.146 4.02054 23.1109 3.87911C23.0758 3.73769 23.0607 3.63162 22.9303 3.52555C22.8048 3.41443 22.845 3.37402 22.845 3.37402H22.85Z" fill="#1A1A18"/>
<path d="M23.2918 3.41932C23.2918 3.41932 23.3922 3.32335 23.4524 3.28295C23.5126 3.24759 23.638 3.288 23.6983 3.39912C23.7585 3.51024 23.8538 3.6062 23.9592 3.72237C24.0645 3.83854 24.2301 3.97997 24.2452 4.08604L24.2652 4.19211C24.2652 4.19211 24.195 4.31838 24.1298 4.39919C24.0645 4.48001 24.0344 4.54567 23.9993 4.60628L23.9692 4.66689C23.9692 4.66689 23.8638 4.63153 23.7334 4.47496C23.6029 4.31838 23.5678 4.16685 23.5277 3.93451C23.4825 3.70217 23.4624 3.63146 23.3771 3.54559C23.2918 3.46478 23.2617 3.42437 23.2617 3.42437H23.2968L23.2918 3.41932Z" fill="#1A1A18"/>
<path d="M24.04 3.67211C24.04 3.67211 24.1454 3.76808 24.2157 3.83374C24.2809 3.8994 24.3511 3.95496 24.3511 4.03578V4.11659C24.3511 4.11659 24.4916 4.12669 24.5819 4.08629C24.6773 4.04588 24.7977 4.03073 24.883 4.04083C24.9683 4.05598 25.0937 4.10649 25.1339 4.1368C25.174 4.1671 25.2242 4.1873 25.2242 4.1873C25.2242 4.1873 25.2844 4.07113 25.3547 4.03578C25.4249 4.00042 25.4199 3.96002 25.4199 3.96002C25.4199 3.96002 25.46 3.91456 25.3797 3.83374C25.3045 3.75293 25.2443 3.79334 25.1891 3.71252C25.1339 3.63676 25.0837 3.60645 25.0837 3.52564V3.44483C25.0837 3.44483 25.0636 3.40947 25.0034 3.44483L24.9482 3.48018C24.9482 3.48018 24.9482 3.39937 24.8679 3.36401C24.7877 3.32865 24.8027 3.36401 24.7174 3.40947C24.6371 3.45493 24.5518 3.42967 24.4816 3.46503C24.4113 3.50039 24.4816 3.53069 24.3361 3.57615C24.1906 3.62161 24.04 3.66706 24.04 3.66706V3.67211Z" fill="#1A1A18"/>
<path d="M25.2292 3.58649C25.2292 3.58649 25.3797 3.53093 25.4249 3.51577C25.47 3.50062 25.47 3.52082 25.4951 3.56123C25.5252 3.59659 25.5403 3.6471 25.5854 3.62184C25.6306 3.59659 25.6607 3.63194 25.6607 3.69255C25.6607 3.74811 25.6707 3.85418 25.731 3.87439C25.7962 3.89459 25.8614 3.87439 25.9066 3.9451L25.9517 4.02086L25.8664 4.00571C25.8664 4.00571 25.8664 4.01581 25.7661 3.9451C25.6657 3.87439 25.6607 3.84913 25.5905 3.87439L25.5202 3.89459C25.5202 3.89459 25.4751 3.84408 25.4098 3.75316C25.3446 3.66225 25.3245 3.67235 25.2643 3.64205L25.2041 3.60669L25.2292 3.58649Z" fill="#1A1A18"/>
<path fill-rule="evenodd" clip-rule="evenodd" d="M23.5576 8.33418C23.1813 8.21801 22.8652 8.08668 22.5089 8.07153C22.0423 8.05133 21.7814 8.28872 21.3047 8.29882C21.5355 8.4756 21.7914 8.70289 22.0975 8.7332C22.529 8.77866 22.9003 8.39479 23.2766 8.36448C22.9153 8.37458 22.4788 8.66754 22.0624 8.36448C22.4638 8.18265 22.9906 8.19275 23.5576 8.33418Z" fill="#1A1A18"/>
<path fill-rule="evenodd" clip-rule="evenodd" d="M19.79 9.86935C20.8588 11.2179 23.9898 10.5967 24.0199 8.27832C24.1654 8.65714 24.2256 9.05111 24.035 9.38446C24.4865 9.2885 25.1037 9.25314 25.5051 9.51579C25.9115 9.77843 26.4083 10.5209 25.5402 10.6219C25.5402 11.6372 23.9848 11.6776 24.0299 10.5007C24.0249 10.4957 24.1604 10.3997 24.1654 10.3946C24.1855 11.324 25.2492 11.2129 25.2241 10.4148C25.199 9.44507 24.2106 9.68247 23.769 9.95016C22.5397 10.6926 21.0746 11.3038 19.8553 10.0259L19.79 9.86935Z" fill="#1A1A18"/>
<path fill-rule="evenodd" clip-rule="evenodd" d="M19.5586 9.76367C19.8898 10.3546 20.1256 10.885 20.5471 11.3244C21.089 11.9002 21.671 11.9254 22.2531 12.476C22.1678 11.9861 22.1076 11.4103 21.7664 11.0062C21.2897 10.4405 20.4166 10.4708 19.9299 10.0566C20.3815 10.4708 21.2345 10.6324 21.4101 11.4961C20.7277 11.2486 20.0955 10.6021 19.5636 9.76367H19.5586Z" fill="#1A1A18"/>
<path fill-rule="evenodd" clip-rule="evenodd" d="M15.3792 16.759C16.4429 13.0264 14.8774 9.20291 10.9837 8.01595C7.62191 6.98557 4.516 7.74825 2.1828 9.68779C3.63792 7.63208 6.66856 7.09164 9.02183 6.67242C12.1579 6.11177 15.344 7.85937 17.2909 10.3747C20.0857 13.9911 22.6096 25.7698 29.0422 22.2847L28.42 22.5372C22.459 24.4061 20.166 12.4809 17.3712 8.85945C15.4293 6.34411 11.8568 4.53084 8.71576 5.09149C5.75536 5.61678 2.28316 6.11177 1.65093 9.78376L1.59072 10.2131C0.998643 10.7939 0.461757 11.4505 -0.00488281 12.1829L0.371439 12.0769C0.712638 11.9405 1.05885 11.7536 1.41009 11.5364V11.5819C1.41009 11.5819 1.41009 11.5516 1.41009 11.5364C2.80499 10.6778 4.28017 9.37969 5.8808 9.17765C7.31584 8.99582 8.43477 8.92511 9.87483 9.06148C12.5693 9.32413 14.9477 11.2738 14.6767 14.2083C14.4609 16.5822 12.6195 17.9359 10.4769 16.8348C8.71576 15.9307 7.78248 13.0163 10.196 12.3951C7.54163 11.597 6.43274 15.4508 7.55167 17.3399C9.37808 20.426 14.3907 20.229 15.3792 16.759ZM22.1881 14.3902H22.1781C22.4038 14.7841 22.6447 15.1023 22.8906 15.3599C24.145 17.057 25.3392 18.4763 26.5434 19.1784C28.5003 20.3199 30.1962 20.7997 31.6162 20.9007C31.2048 21.1785 30.6528 20.9513 30.1862 20.9917C29.1726 21.0826 28.9418 21.7998 28.2644 22.4463C28.3849 22.3301 28.8365 22.0877 28.997 22.0624C29.1676 22.0321 29.278 22.113 29.4586 22.0827C29.9453 22.0018 30.427 21.6887 30.8786 21.3907C30.2163 22.2039 28.9017 22.9464 27.8229 22.9009C29.1977 23.4262 31.26 22.3605 31.8771 20.9159C33.7035 20.9866 35.0533 20.4159 35.8862 19.8199C38.4452 17.9914 39.9806 13.6477 38.7111 10.5464C37.4317 7.41995 34.6017 5.06119 31.4406 5.94509C30.713 5.91984 30.2213 5.49556 30.1159 5.1218C29.9654 4.60156 30.1611 4.08131 30.5073 3.9904C30.8535 3.87423 30.9589 4.0005 30.974 4.12677C31.0041 4.24799 30.8887 4.24799 30.7933 4.24294C30.6077 4.21769 30.4019 4.44498 30.4822 4.73793C30.5725 5.02078 30.7883 5.1622 31.1345 5.04603C31.4657 4.93996 31.5961 4.56115 31.5159 4.24294C31.4155 3.89948 31.0091 3.58128 30.4622 3.75806C29.9253 3.92474 29.6894 4.5965 29.85 5.18241C29.9504 5.53597 30.3167 5.96024 30.9639 6.09157C30.698 6.19258 30.4321 6.3138 30.1661 6.46028C28.0888 7.61188 26.2925 11.2283 28.4651 13.5315L28.144 13.1173C27 10.5666 28.0587 8.2988 29.7246 7.07144C28.3447 8.68267 28.8766 11.7081 30.8385 12.688H30.8485C28.8465 11.6576 28.3598 8.49073 29.9052 6.93506C30.0306 6.8492 30.1561 6.77343 30.2916 6.69767C33.9695 4.64196 37.3564 7.4553 38.4854 10.8343C39.5039 13.8649 38.1642 17.6581 35.7307 19.3956C34.9529 19.9512 33.6835 20.5472 31.9775 20.5674C32.0076 20.4462 32.0327 20.3249 32.0377 20.2037C31.9925 20.3502 31.9424 20.4664 31.8872 20.5674C30.4722 20.5674 28.7612 20.1633 26.7792 19.0067C26.3628 18.7642 25.9463 18.4309 25.5298 18.0268C26.8796 18.9562 28.5053 19.5471 30.0708 19.7795C32.4993 20.1381 36.9148 18.249 36.383 14.2942C36.4382 15.8903 36.1672 16.6125 35.1336 17.7591C34.3157 18.6683 33.252 19.1582 32.0929 19.441C29.9755 19.9562 28.3748 19.2188 26.5283 18.1278C25.6352 17.6025 24.727 16.9762 23.9593 16.2186C23.9192 16.163 23.874 16.1125 23.8389 16.057C24.5765 16.4105 25.2589 16.3095 25.6553 16.057C26.3728 15.5822 26.7441 14.6124 26.3176 13.8851C25.8861 13.1325 25.1485 13.0719 24.717 13.3446C24.3356 13.6123 24.1199 14.1578 24.3808 14.6073C24.6517 15.0872 25.0231 15.1427 25.3843 14.9306C25.7456 14.6932 25.7406 14.2336 25.5098 14.077C25.3944 13.981 25.2789 13.8649 25.4194 13.7639C25.5549 13.6376 25.7857 13.6073 26.0517 14.0821C26.3427 14.5265 26.0768 15.2943 25.4295 15.7084C24.9879 15.9963 24.1149 15.9812 23.3221 15.3599C19.037 9.43525 14.0144 -0.267493 3.86371 5.22786L2.64944 7.21286C12.2783 -0.59075 17.7023 8.11697 22.1931 14.3902H22.1881ZM27.6172 12.4203C27.5519 14.1073 29.6192 16.0469 31.2198 15.6529C30.0557 15.6529 30.2414 14.7185 29.9955 14.1023C29.6192 13.1628 28.9217 13.1527 28.149 12.7032C28.2895 12.784 28.6307 13.1426 28.701 13.2891C28.7762 13.4406 28.7411 13.5719 28.8164 13.7335C29.0321 14.173 29.4486 14.5417 29.84 14.8801C28.9318 14.4912 27.8931 13.4608 27.6172 12.4203ZM33.829 12.3041C33.9293 12.1627 33.9946 11.996 34.0197 11.8294C34.0598 11.6425 34.0498 11.4556 33.9594 11.3041L33.9394 11.2839C33.8892 11.193 33.8139 11.1121 33.7186 11.0515C33.7086 11.0515 33.7036 11.0414 33.6985 11.0364C33.6985 11.0364 33.6734 11.0263 33.6584 11.0212L33.6132 11.001C33.6484 11.0162 33.6785 11.0414 33.7086 11.0616L33.8491 11.2031C33.8491 11.2031 33.8591 11.2182 33.8641 11.2233C33.9394 11.3798 33.8691 11.5516 33.6835 11.6425C33.9795 11.9304 33.5982 12.5062 33.3473 12.7082C33.3473 12.7082 33.3573 12.7082 33.3573 12.7032C32.6398 13.2032 31.6062 13.082 30.8535 12.7032C30.8636 12.7082 30.8736 12.7183 30.8836 12.7234C31.8069 13.183 33.1416 13.2689 33.819 12.3041H33.829ZM33.3473 12.7082C33.3373 12.7082 33.3373 12.7133 33.3473 12.7082V12.7082ZM36.388 14.2437C36.388 14.2437 36.393 14.2942 36.398 14.3194C36.398 14.2841 36.398 14.2538 36.398 14.2184V14.2437H36.388ZM36.097 14.6326C36.1271 14.4609 36.2274 14.3801 36.2575 14.2033C36.3378 13.7184 36.2174 13.1628 36.0919 12.6476C36.5987 13.5214 36.8396 14.9963 36.4632 16.0064C37.4868 14.6983 36.9399 11.8546 35.4346 11.1728C36.3679 11.895 35.6855 12.5314 35.53 13.178C35.2941 14.1629 35.8511 14.6073 36.2074 15.4458C36.1421 15.2943 36.0719 14.7942 36.102 14.6326H36.097Z" fill="#1A1A18"/>
<path fill-rule="evenodd" clip-rule="evenodd" d="M32.8154 19.1073C34.3659 17.5112 38.3298 18.7285 38.0789 21.7236C38.3148 21.2539 38.4402 20.7539 38.2345 20.2993C38.8015 20.4811 39.5993 20.6074 40.1512 20.3245C40.7132 20.0366 41.4357 19.1477 40.3318 18.9002C40.4573 17.592 38.4502 17.3294 38.3699 18.8598C38.3599 18.8699 38.5255 19.0063 38.5305 19.0164C38.671 17.8193 40.0308 18.1022 39.9053 19.1325C39.7548 20.3852 38.5104 19.9407 37.9685 19.5366C36.4733 18.4153 34.6569 17.4304 32.9208 18.9204L32.8154 19.1123V19.1073Z" fill="#1A1A18"/>
<path d="M87.9894 17.8955C86.0776 20.9614 83.8699 25.0627 81.3661 30.1944C80.0916 32.7956 78.9426 35.3614 77.929 37.8919C76.8201 40.6901 76.2632 42.4832 76.2632 43.2661C76.2632 43.9277 76.5592 44.2611 77.1513 44.2611C78.2602 44.2611 79.7755 43.4732 81.6872 41.9023C83.5036 40.4275 84.7128 39.0991 85.2999 37.9222C85.6562 37.801 85.8769 37.9222 85.9723 38.2909C85.2397 39.6193 83.9401 41.0437 82.0736 42.569C80.0665 44.2156 78.4258 45.0389 77.1513 45.0389C75.0238 45.0389 73.9651 43.8722 73.9651 41.5336C73.9651 40.4022 74.3565 38.9678 75.1342 37.2202C75.6309 36.0635 76.5391 34.321 77.8638 31.9824C79.4243 29.3054 81.05 26.5022 82.751 23.5777L82.3596 23.8353C80.6837 26.1941 78.0846 29.76 74.5672 34.528C73.0569 36.4726 71.0498 38.7051 68.546 41.2407C66.5139 43.2812 65.2645 44.4631 64.7929 44.7813C64.557 44.9531 64.3814 45.0036 64.261 44.9278C64.0954 44.8318 64.1054 44.6096 64.2961 44.2661C64.9334 43.2358 66.0673 41.1649 67.6931 38.0687C69.7453 33.7199 71.6219 30.0176 73.3228 26.9669C74.3414 25.1738 75.4905 23.1838 76.7649 20.9967L76.5191 20.9614C74.3213 23.4212 70.8642 27.3911 66.1376 32.8714C63.6087 35.8968 60.5279 38.4879 56.8901 40.6497C52.023 43.5742 47.1459 45.0389 42.2587 45.0389C39.3284 45.0389 36.9701 44.3874 35.1738 43.0842C33.2621 41.7104 32.3037 39.8163 32.3037 37.407C32.3037 34.0381 34.2305 31.149 38.079 28.7397C41.7619 26.4517 45.9768 25.3102 50.7284 25.3102C52.876 25.3102 54.8379 25.5577 56.6091 26.0476C57.9538 26.4416 58.8771 26.8608 59.3738 27.3002C59.3989 27.376 59.3136 27.4467 59.128 27.5225C58.9423 27.5982 58.7366 27.6083 58.5258 27.5578C56.87 26.6234 54.4164 26.1587 51.1549 26.1587C47.0907 26.1587 43.197 27.4467 39.4639 30.0176C35.7308 32.5936 33.8642 35.2958 33.8642 38.1293C33.8642 42.2205 36.6992 44.2611 42.3691 44.2611C46.3581 44.2611 50.4926 43.1145 54.7676 40.8265C58.7567 38.7102 62.1937 35.9877 65.0789 32.6643C72.8512 23.704 77.3971 18.7339 78.7168 17.749C78.9275 17.6025 79.3289 17.4561 79.921 17.3045C80.3927 17.1833 80.6285 17.2793 80.6285 17.5975C80.6285 17.6733 80.5783 17.7591 80.488 17.8551C79.8257 18.4713 78.6465 20.4714 76.9456 23.8656C75.5757 26.7648 73.6389 30.7247 71.1351 35.7403C69.8356 38.0536 68.807 39.6749 68.0543 40.6093L68.1597 40.7204C68.4909 40.4275 69.4994 39.2607 71.1803 37.2252C73.3128 34.6493 75.2546 32.1693 77.0058 29.7903C79.7906 26.0527 82.6757 22.1887 85.6712 18.2036C85.8368 17.9915 86.2583 17.749 86.9407 17.4864C87.2919 17.3702 87.588 17.3096 87.8238 17.3096C88.2001 17.3096 88.2603 17.5066 87.9994 17.9005L87.9894 17.8955Z" fill="#1A1A18"/>
<path d="M97.7984 33.9775C97.7984 34.0532 97.7282 34.1997 97.5877 34.422C97.5425 34.4977 96.9153 35.9827 95.7111 38.8768C94.6473 41.4275 94.1155 42.9731 94.1155 43.5186C94.1155 43.8924 94.2559 44.0742 94.542 44.0742C95.0839 44.0742 95.982 43.2863 97.2364 41.7154C97.3318 41.6902 97.4321 41.7255 97.5375 41.8265C97.6428 41.9276 97.683 42.0336 97.6629 42.1599C96.3884 44.054 95.0638 44.9985 93.694 44.9985C92.5851 44.9985 92.0281 44.4227 92.0281 43.2661C92.0281 42.8721 92.2188 42.1498 92.5951 41.0891C90.6583 43.6954 89.1129 44.9985 87.9538 44.9985C86.7496 44.9985 86.1475 44.2207 86.1475 42.6599C86.1475 40.483 87.1761 38.4071 89.2283 36.4272C91.2102 34.523 93.2524 33.5684 95.3548 33.5684C96.4185 33.5684 97.1862 33.6441 97.6579 33.7906C97.7532 33.8411 97.7984 33.9017 97.7984 33.9775ZM94.7878 35.1947C94.7878 34.7503 94.6222 34.528 94.2911 34.528C93.3227 34.528 92.0181 35.715 90.3773 38.0939C88.7366 40.4729 87.9137 42.2458 87.9137 43.4075C87.9137 43.852 88.1043 44.0742 88.4807 44.0742C89.0928 44.0742 90.3372 42.8468 92.1987 40.3972C93.0467 39.2557 93.694 38.2303 94.1305 37.3111C94.567 36.3969 94.7878 35.6897 94.7878 35.1947Z" fill="#1A1A18"/>
<path d="M113.955 24.0927C112.656 27.3859 110.674 32.3155 108.004 38.8766C106.941 41.4425 106.409 43.0032 106.409 43.5487C106.409 43.9225 106.514 44.1094 106.725 44.1094C107.126 44.1094 107.658 43.7659 108.32 43.084C108.722 42.6547 109.123 42.2102 109.525 41.7506C109.786 41.7506 109.916 41.8971 109.916 42.1951C108.642 44.0892 107.332 45.0337 105.982 45.0337C104.944 45.0337 104.422 44.5033 104.422 43.4477C104.422 42.9578 104.612 42.1799 104.989 41.1243C103.052 43.7305 101.516 45.0337 100.383 45.0337C99.8607 45.0337 99.4292 44.7912 99.088 44.3114C98.7468 43.8316 98.5762 43.2153 98.5762 42.4729C98.5762 40.6899 99.4342 38.8362 101.15 36.9068C103.077 34.7299 105.265 33.6389 107.713 33.6389C107.663 33.6288 107.738 33.6237 107.924 33.6237C110.302 27.9061 111.597 24.8099 111.813 24.3453C111.908 24.1735 111.988 24.0523 112.064 23.9765C112.134 23.9008 112.264 23.8351 112.455 23.7745C112.646 23.7139 112.977 23.623 113.453 23.5018C113.835 23.4058 114.02 23.5119 114.02 23.8351C114.02 23.9109 113.995 23.9967 113.95 24.0927H113.955ZM107.297 35.2703C107.297 34.8258 107.096 34.6036 106.695 34.6036C105.701 34.6036 104.382 35.8562 102.726 38.3564C101.145 40.7606 100.352 42.4577 100.352 43.4477C100.352 43.8922 100.493 44.1144 100.779 44.1144C101.486 44.1144 102.761 42.887 104.607 40.4374C105.48 39.2959 106.133 38.2806 106.554 37.3917C107.051 36.3007 107.297 35.5936 107.297 35.2754V35.2703Z" fill="#1A1A18"/>
<path d="M123.665 24.8659C123.665 25.578 123.344 26.5731 122.707 27.8509C122.115 29.0328 121.397 30.1491 120.544 31.2047C119.079 33.0735 117.483 34.5838 115.762 35.7404C113.73 40.4832 112.717 43.1652 112.717 43.7764C112.717 44.1451 112.882 44.3269 113.213 44.3269C113.71 44.3269 114.357 44.0441 115.16 43.4784C115.843 43.0137 116.304 42.6045 116.54 42.2611C116.896 42.3116 117.072 42.4581 117.072 42.7056C116.741 43.15 116.269 43.5895 115.657 44.0339C114.734 44.6754 113.826 44.9936 112.927 44.9936C111.673 44.9936 111.051 44.4178 111.051 43.2612C111.051 42.352 111.698 40.3115 112.998 37.1395C114.157 34.2857 115.23 31.9522 116.219 30.1339C117.162 28.3914 118.191 26.8913 119.3 25.6336C120.574 24.2092 121.663 23.4971 122.561 23.4971C123.294 23.4971 123.66 23.9516 123.66 24.8608L123.665 24.8659ZM122.391 24.8305C122.391 24.5578 122.285 24.4264 122.069 24.4264C121.789 24.4264 121.222 25.0477 120.369 26.2902C119.521 27.5327 118.798 28.8409 118.206 30.2147L116.4 34.306C117.89 33.0281 119.129 31.5785 120.118 29.9571C121.628 27.4974 122.386 25.7902 122.386 24.8305H122.391Z" fill="#1A1A18"/>
<path d="M127.453 35.1899C127.453 36.786 126.565 38.2255 124.794 39.5033C123.379 40.4883 122.079 41.0388 120.895 41.1651C120.614 41.953 120.469 42.5541 120.469 42.9733C120.469 43.8319 120.905 44.2613 121.778 44.2613C122.486 44.2613 123.289 43.9279 124.187 43.2663C124.894 42.7258 125.436 42.1854 125.817 41.6449C126.124 41.4732 126.314 41.5843 126.384 41.9783C125.983 42.5692 125.426 43.145 124.719 43.7107C123.61 44.5441 122.521 44.9633 121.457 44.9633C119.636 44.9633 118.728 44.0289 118.728 42.1601C118.728 40.2913 119.52 38.3568 121.101 36.4274C122.681 34.4979 124.172 33.5332 125.567 33.5332C126.816 33.5332 127.443 34.0837 127.443 35.1899H127.453ZM125.963 34.9677C125.963 34.503 125.797 34.2656 125.471 34.2656C124.98 34.2656 124.277 34.9525 123.359 36.3314C122.516 37.5588 121.788 38.9023 121.181 40.3519C122.235 40.3014 123.299 39.665 124.362 38.4326C125.431 37.2052 125.963 36.0485 125.963 34.9677Z" fill="#1A1A18"/>
<path d="M139.249 34.0076C139.249 33.9318 139.083 34.2399 138.752 34.9319C138.256 35.9623 137.593 37.4523 136.77 39.3918C135.732 41.8263 135.21 43.2254 135.21 43.5942C135.21 43.9629 135.421 44.1498 135.847 44.1498C136.7 44.1498 137.558 43.3618 138.431 41.791C138.878 41.6445 139.104 41.7152 139.104 42.0132C138.772 42.6294 138.336 43.2153 137.794 43.781C136.966 44.5942 136.188 44.9983 135.456 44.9983C134.111 44.9983 133.439 44.4427 133.439 43.3366C133.439 42.5486 133.805 41.2708 134.537 39.5029C135.054 38.2756 135.516 37.3058 135.917 36.5886L135.777 36.4017C135.21 36.7452 134.066 38.0634 132.34 40.3464C131.231 41.8466 130.333 43.0992 129.645 44.1093C129.314 44.6245 128.832 44.8821 128.19 44.8821C127.909 44.8821 127.764 44.7357 127.764 44.4377C127.764 44.3871 128.411 42.9224 129.711 40.0333C130.844 37.4927 131.411 35.9875 131.411 35.5178C131.411 35.0481 131.246 34.8157 130.915 34.8157C130.794 34.8157 130.338 34.9622 129.535 35.2602C129.274 35.1592 129.194 34.9572 129.289 34.6592C130.187 33.9571 131.156 33.6035 132.194 33.6035C132.525 33.6035 132.826 33.7197 133.097 33.9571C133.368 34.1945 133.504 34.5177 133.504 34.9369C133.504 35.7047 132.902 37.3462 131.697 39.8717L131.838 39.9474C132.52 38.9625 133.469 37.826 134.673 36.5381C135.877 35.2501 136.74 34.4369 137.257 34.1036C137.774 33.7702 138.306 33.6035 138.853 33.6035C139.114 33.6035 139.244 33.7399 139.244 34.0076H139.249Z" fill="#1A1A18"/>
</g>
<defs>
<clipPath id="clip0_75_6384">
<rect width="185" height="68" fill="white"/>
</clipPath>
</defs>
</svg>
