<svg width="185" height="67" viewBox="0 0 185 67" fill="none" xmlns="http://www.w3.org/2000/svg">
<g clip-path="url(#clip0_75_6486)">
<path fill-rule="evenodd" clip-rule="evenodd" d="M128.667 54.3396C125.616 51.0351 117.473 53.2198 117.794 59.2365C117.342 58.2761 117.112 57.2608 117.568 56.375C116.399 56.7034 114.768 56.9025 113.664 56.3003C112.545 55.6882 111.12 53.8568 113.383 53.4388C113.213 50.8062 117.302 50.413 117.382 53.4786C117.403 53.4985 117.056 53.7573 117.046 53.7772C116.841 51.3636 114.051 51.8513 114.246 53.9165C114.477 56.4297 117.041 55.6285 118.16 54.8522C121.271 52.7023 125.034 50.846 128.466 53.9464L128.667 54.3346V54.3396Z" fill="#1A1A18"/>
<path fill-rule="evenodd" clip-rule="evenodd" d="M148.688 60.1226C147.764 63.3972 141.613 64.8105 139.811 60.6899C139.831 61.4861 140.022 62.2426 140.619 62.6756C139.731 62.8696 138.577 63.3076 138.045 64.0989C137.503 64.9001 137.172 66.622 138.818 66.1044C139.586 67.9159 142.441 66.7365 141.462 64.6662C141.467 64.6463 141.151 64.5965 141.141 64.5866C141.813 66.2637 139.796 66.9256 139.229 65.4774C138.542 63.7206 140.514 63.3524 141.517 63.4768C144.307 63.8152 147.433 63.7256 148.678 60.451V60.1226H148.688Z" fill="#1A1A18"/>
<path fill-rule="evenodd" clip-rule="evenodd" d="M163.951 50.6272C161.201 49.1641 161.061 43.1524 165.06 42.2168C164.342 42.0874 163.64 42.1272 163.143 42.6099C163.133 41.744 162.952 40.5844 162.345 39.9425C161.728 39.2905 160.258 38.6635 160.419 40.3008C158.667 40.689 159.194 43.5804 161.216 43.0429C161.231 43.0528 161.337 42.7642 161.347 42.7542C159.731 43.0777 159.51 41.0672 160.9 40.8034C162.586 40.4799 162.556 42.3909 162.265 43.3116C161.457 45.8646 160.97 48.8058 163.655 50.5675L163.946 50.6322L163.951 50.6272Z" fill="#1A1A18"/>
<path fill-rule="evenodd" clip-rule="evenodd" d="M159.064 39.5244C158.583 40.0221 158.206 40.4849 157.67 40.8134C156.972 41.2364 156.38 41.107 155.647 41.4951C155.858 41.0323 156.069 40.4749 156.516 40.1664C157.143 39.7285 158.016 39.9972 158.613 39.7235C158.051 40.0121 157.148 39.9424 156.751 40.7536C157.509 40.6939 158.307 40.2211 159.064 39.5294V39.5244Z" fill="#1A1A18"/>
<path fill-rule="evenodd" clip-rule="evenodd" d="M158.347 39.833C158.352 40.3406 158.397 40.7786 158.297 41.2314C158.156 41.8236 157.79 42.0675 157.614 42.6597C157.484 42.3114 157.308 41.9182 157.378 41.5201C157.474 40.9627 158.056 40.6342 158.221 40.1714C158.086 40.6193 157.589 41.0672 157.8 41.6893C158.156 41.2563 158.322 40.5895 158.352 39.833H158.347Z" fill="#1A1A18"/>
<path d="M162.471 34.4732C162.471 34.4732 162.315 34.1447 162.039 34.2244C161.763 34.299 161.508 34.5429 161.407 34.6922C161.312 34.8415 161.237 34.8464 161.096 35.0007C160.956 35.16 160.93 35.1401 160.86 35.3043C160.79 35.4635 160.755 35.5183 160.534 35.6029C160.313 35.6875 159.932 35.9264 159.807 36.0956C159.681 36.2648 159.696 36.4638 159.561 36.6679C159.405 36.9068 159.094 37.2601 159.139 37.5786C159.154 37.6931 159.23 37.7677 159.27 37.8623C159.651 37.5338 159.666 36.8968 159.967 36.5236C160.213 36.22 160.539 35.8119 160.875 35.6178C160.348 36.0607 160.374 36.1105 160.163 36.3394C160.022 36.4987 159.867 36.7774 159.776 36.9864C159.686 37.2103 159.576 37.7428 159.33 37.9966C159.511 37.8971 159.832 37.3596 159.982 37.2501C160.449 36.9117 161.196 35.3242 161.553 34.941C161.111 35.6526 160.012 37.6931 159.395 38.0862C159.711 37.8921 160.022 37.9469 160.93 37.2551C160.644 37.5885 159.932 38.0464 159.586 38.1658C159.295 38.2654 159.315 38.4694 159.199 38.7182C159.199 38.7182 160.067 38.6187 160.348 38.3052C160.634 37.9917 161.086 37.499 161.297 36.9665C161.508 36.434 161.743 35.6278 161.834 35.359C161.919 35.0853 162.009 34.9659 162.2 34.7718C162.391 34.5777 162.466 34.4682 162.466 34.4682L162.471 34.4732Z" fill="#1A1A18"/>
<path d="M159.009 38.8177C159.039 38.0363 158.357 36.8469 157.85 36.3592C158.256 36.9315 158.874 37.9965 158.859 38.8624C158.517 38.6833 158.031 37.7925 157.81 37.474C157.524 37.0659 156.872 36.1203 156.571 35.7272C156.32 35.3987 156.435 35.5679 156.244 35.2693C157.072 36.3045 157.93 37.9418 158.708 39.0366C158.322 38.4892 157.614 38.1906 157.158 37.7178C156.686 37.2251 156.149 36.4986 155.592 35.7769C157.293 38.3399 158.096 38.8724 158.573 39.161C157.78 38.967 157.408 38.7878 157.022 38.5887C156.636 38.3897 156.084 37.9965 155.437 37.464C155.878 37.8721 156.731 38.529 156.992 38.6783C157.414 38.9172 157.945 39.2058 158.267 39.3651C157.544 39.2357 156.259 38.5539 155.672 38.0015C155.291 37.6432 154.96 37.3097 155.095 36.9813C155.231 36.6479 155.291 36.623 155.261 36.4587C155.231 36.3045 155.256 36.2 155.316 36.1751C155.376 36.1452 155.411 36.1303 155.432 35.986C155.452 35.8416 155.562 35.6824 155.657 35.6077C155.753 35.5381 155.783 35.563 155.828 35.4833C155.868 35.4037 155.903 35.2942 156.044 35.1748C156.184 35.0553 156.244 35.0902 156.285 35.0802C156.325 35.0653 156.41 35.0056 156.596 34.9956C156.781 34.9857 156.997 35.125 157.213 35.2594C157.439 35.3937 157.986 35.8914 158.317 36.4339C158.653 36.9763 158.924 37.3993 158.989 37.678C159.049 37.9169 159.22 38.4494 159.009 38.8177Z" fill="#1A1A18"/>
<path d="M155.136 37.6533C155.136 37.6533 154.97 37.6732 154.865 37.7628C154.764 37.8524 154.704 37.8972 154.579 37.932C154.453 37.9668 154.358 38.0067 154.368 38.1062C154.378 38.2057 154.453 38.3053 154.443 38.36C154.433 38.4147 154.443 38.4396 154.554 38.4993C154.669 38.5541 155.146 38.7382 155.306 38.793C155.462 38.8427 155.883 39.0717 156.169 39.1214C156.46 39.1662 156.621 39.1413 156.791 39.1662C156.962 39.1961 157.037 39.1712 157.238 39.2209C157.439 39.2707 157.549 39.2807 157.549 39.2807C157.549 39.2807 156.917 39.0667 156.596 38.8477C156.275 38.6238 155.893 38.4297 155.647 38.2107C155.402 37.9917 155.211 37.7628 155.211 37.7628L155.141 37.6633L155.136 37.6533Z" fill="#1A1A18"/>
<path d="M154.096 38.4244C154.096 38.4244 153.77 38.3199 153.605 38.3249C153.439 38.3249 153.359 38.4045 153.334 38.514C153.309 38.6185 153.299 38.7479 153.364 38.8176L153.429 38.8872C153.429 38.8872 153.414 38.8126 153.479 38.8176C153.544 38.8176 153.72 38.9669 153.906 39.0863C154.091 39.2057 154.392 39.36 154.829 39.4844C155.286 39.6188 155.918 39.6934 156.585 39.7034C156.786 39.7034 157.403 39.6835 157.91 39.5242C157.759 39.5392 157.207 39.5441 156.971 39.5043C156.731 39.4645 156.415 39.4944 156.154 39.4944C155.622 39.4944 155.07 39.4944 154.643 39.0465C155.16 39.5392 155.883 39.4695 156.595 39.4546C157.097 39.4446 157.554 39.5591 158.06 39.4645C157.744 39.3998 157.388 39.4347 157.062 39.4048C156.59 39.36 156.204 39.3849 155.406 39.0664C154.603 38.7429 154.096 38.4344 154.096 38.4344V38.4244Z" fill="#1A1A18"/>
<path d="M155.652 35.4139C155.652 35.4139 155.29 35.2646 155.175 35.3393C155.06 35.4089 154.954 35.5085 154.954 35.5781V35.6428C154.954 35.6428 154.924 35.6478 154.839 35.6926C154.753 35.7374 154.748 35.7573 154.753 35.8568C154.753 35.9564 154.794 36.0211 154.753 36.0559C154.718 36.0907 154.623 36.0758 154.573 36.1256C154.528 36.1803 154.528 36.2798 154.543 36.3694C154.558 36.464 154.563 36.4988 154.563 36.4988C154.563 36.4988 154.503 36.5735 154.447 36.6133C154.392 36.6531 154.327 36.7029 154.342 36.7974C154.357 36.892 154.483 37.2105 154.573 37.3349C154.663 37.4593 154.698 37.5339 154.698 37.5339C154.698 37.5339 154.869 37.4444 154.929 37.4344L154.989 37.4245C154.989 37.4245 154.904 37.2105 154.894 37.101C154.879 36.9865 155.009 36.7178 155.06 36.6481C155.11 36.5784 155.08 36.4391 155.08 36.3197C155.08 36.2002 155.17 36.0459 155.235 35.9962C155.3 35.9464 155.265 35.8519 155.336 35.7125C155.406 35.5732 155.416 35.5134 155.506 35.4786C155.601 35.4438 155.647 35.4089 155.647 35.4089L155.652 35.4139Z" fill="#1A1A18"/>
<path d="M159.019 33.1247C159.019 33.1247 158.818 32.9157 158.652 32.9256C158.487 32.9356 158.351 32.9704 158.236 33.055C158.12 33.1396 158 33.3984 158.03 33.5975C158.06 33.8015 158.085 33.9807 158.085 33.9807C158.085 33.9807 158.085 34.2594 158.1 34.3937C158.115 34.5281 158.206 34.7222 158.191 34.8317C158.176 34.9412 158.15 35.0059 158.11 35.1502C158.07 35.2945 158.05 35.5384 158.055 35.6528C158.055 35.6528 158.431 36.0957 158.502 36.2201C158.572 36.3446 158.778 36.6332 158.873 36.8572C158.968 37.0811 159.003 37.2204 159.003 37.2204C159.003 37.2204 159.054 37.0214 159.164 36.8372C159.274 36.6581 159.4 36.5834 159.445 36.3545C159.49 36.1256 159.576 35.9315 159.646 35.8768L159.721 35.822C159.721 35.822 159.49 35.1104 159.31 34.8367C159.129 34.5629 158.798 34.0205 158.733 33.7667C158.692 33.6224 158.532 33.2889 158.622 33.1347C158.702 33.0003 158.918 33.0152 159.019 33.1197V33.1247Z" fill="#1A1A18"/>
<path d="M157.885 33.025C157.885 33.025 157.549 33.239 157.544 33.3833C157.544 33.5227 157.458 33.7416 157.544 33.9755C157.624 34.2094 157.749 34.5976 157.684 34.7668C157.619 34.936 157.479 35.2147 157.479 35.2147C157.479 35.2147 157.484 35.2446 157.639 35.369C157.795 35.4934 157.86 35.583 157.86 35.583C157.86 35.583 157.9 35.3292 157.94 35.1251C157.98 34.9211 158.056 34.8614 157.995 34.513C157.935 34.1597 157.91 33.9158 157.87 33.7416C157.83 33.5625 157.79 33.4381 157.87 33.239C157.95 33.0399 157.885 33.02 157.885 33.02V33.025Z" fill="#1A1A18"/>
<path d="M157.418 33.3383C157.418 33.3383 157.248 33.2936 157.162 33.2886C157.077 33.2886 156.957 33.403 156.957 33.5623C156.952 33.7215 156.896 33.8858 156.846 34.0749C156.796 34.269 156.691 34.5178 156.726 34.6472L156.766 34.7766C156.766 34.7766 156.916 34.8711 157.037 34.9209C157.157 34.9707 157.228 35.0204 157.293 35.0752L157.363 35.1249C157.363 35.1249 157.458 35.0204 157.514 34.7716C157.574 34.5178 157.524 34.3337 157.438 34.05C157.358 33.7663 157.338 33.6718 157.388 33.5324C157.443 33.3881 157.448 33.3334 157.448 33.3334L157.408 33.3483L157.418 33.3383Z" fill="#1A1A18"/>
<path d="M156.721 34.0698C156.721 34.0698 156.656 34.239 156.621 34.3535C156.586 34.468 156.536 34.5725 156.581 34.6571L156.626 34.7466C156.626 34.7466 156.47 34.8412 156.345 34.8512C156.214 34.8611 156.069 34.9158 155.984 34.9805C155.893 35.0452 155.788 35.1796 155.763 35.2344C155.733 35.2891 155.688 35.3438 155.688 35.3438C155.688 35.3438 155.552 35.2493 155.457 35.2543C155.356 35.2543 155.341 35.2144 155.341 35.2144C155.341 35.2144 155.271 35.1846 155.311 35.0552C155.351 34.9208 155.442 34.9258 155.457 34.8064C155.472 34.6869 155.512 34.6272 155.467 34.5376L155.422 34.453C155.422 34.453 155.427 34.3983 155.512 34.4033H155.597C155.597 34.4033 155.552 34.3187 155.622 34.2341C155.698 34.1445 155.698 34.1942 155.813 34.1942C155.928 34.1942 156.014 34.1146 156.109 34.1146C156.209 34.1146 156.144 34.1893 156.34 34.1544C156.53 34.1146 156.721 34.0798 156.721 34.0798V34.0698Z" fill="#1A1A18"/>
<path d="M155.331 34.6821C155.331 34.6821 155.13 34.712 155.07 34.7219C155.009 34.7319 155.024 34.7568 155.019 34.8115C155.009 34.8712 155.019 34.931 154.949 34.931C154.884 34.931 154.874 34.9907 154.904 35.0554C154.934 35.1201 154.984 35.2395 154.924 35.2992C154.864 35.3589 154.774 35.3739 154.769 35.4834V35.5928L154.849 35.5281C154.849 35.5281 154.859 35.5381 154.924 35.3988C154.994 35.2594 154.989 35.2296 155.08 35.2146L155.17 35.1997C155.17 35.1997 155.195 35.1151 155.215 34.9757C155.235 34.8414 155.265 34.8314 155.315 34.7618L155.366 34.6871H155.326L155.331 34.6821Z" fill="#1A1A18"/>
<path fill-rule="evenodd" clip-rule="evenodd" d="M159.882 38.9369C160.238 38.5786 160.519 38.2452 160.911 38.0162C161.423 37.7127 161.849 37.8172 162.386 37.5435C162.23 37.8769 162.07 38.28 161.739 38.5039C161.282 38.8125 160.645 38.6084 160.203 38.8025C160.615 38.5985 161.272 38.6582 161.568 38.071C161.016 38.1058 160.429 38.4392 159.872 38.9369H159.882Z" fill="#1A1A18"/>
<path fill-rule="evenodd" clip-rule="evenodd" d="M149.244 60.252C149.27 61.3916 149.375 62.367 149.144 63.3773C148.843 64.6961 148.025 65.2534 147.649 66.5673C147.358 65.7959 146.956 64.915 147.107 64.0292C147.313 62.785 148.602 62.0386 148.963 61.0034C148.662 62.0087 147.569 63.009 148.045 64.4024C148.823 63.4221 149.189 61.934 149.244 60.252Z" fill="#1A1A18"/>
<path d="M143.088 49.4724C143.088 49.4724 142.646 48.925 142.15 49.1987C141.658 49.4724 141.276 50.0646 141.161 50.3931C141.046 50.7265 140.905 50.7663 140.704 51.1346C140.509 51.5029 140.454 51.483 140.393 51.8214C140.333 52.1598 140.283 52.2842 139.907 52.548C139.53 52.8167 138.903 53.4537 138.743 53.8319C138.582 54.2101 138.697 54.5834 138.532 55.0363C138.341 55.5688 137.91 56.3899 138.14 56.9821C138.221 57.1911 138.396 57.3006 138.522 57.4648C139.104 56.6586 138.848 55.4294 139.244 54.5734C139.576 53.8717 140.012 52.9461 140.569 52.4136C139.771 53.5134 139.826 53.598 139.535 54.1405C139.335 54.5087 139.164 55.1159 139.099 55.5638C139.029 56.0366 139.049 57.1115 138.697 57.7087C138.998 57.43 139.37 56.2506 139.606 55.9719C140.343 55.1059 141.056 51.7119 141.557 50.8111C141.036 52.3788 139.862 56.8129 138.858 57.853C139.375 57.3305 139.997 57.2907 141.417 55.5289C141.021 56.3053 139.872 57.5196 139.259 57.9078C138.743 58.2362 138.873 58.6144 138.778 59.1519C138.778 59.1519 140.388 58.5497 140.785 57.8132C141.186 57.0767 141.828 55.9271 141.984 54.8073C142.14 53.6876 142.24 52.0404 142.28 51.478C142.32 50.9156 142.441 50.6419 142.717 50.1791C142.993 49.7163 143.088 49.4724 143.088 49.4724Z" fill="#1A1A18"/>
<path d="M138.447 59.4308C138.151 57.9179 136.305 55.9771 135.12 55.2803C136.159 56.1861 137.82 57.9179 138.181 59.5801C137.454 59.4059 136.119 57.9329 135.547 57.4302C134.814 56.7883 133.148 55.2903 132.391 54.6831C131.764 54.1755 132.065 54.4443 131.563 53.9615C133.625 55.5491 136.003 58.2713 137.985 59.9832C136.992 59.1223 135.507 58.8934 134.418 58.2016C133.289 57.485 131.929 56.3503 130.549 55.2405C134.96 59.3213 136.736 59.9583 137.78 60.2868C136.179 60.2868 135.391 60.1226 134.553 59.9285C133.725 59.7394 132.491 59.2417 131.016 58.535C132.045 59.1024 133.971 59.9534 134.543 60.1126C135.462 60.3714 136.611 60.66 137.293 60.8193C135.853 60.9139 133.093 60.2271 131.713 59.4507C130.82 58.9481 130.038 58.4753 130.148 57.7736C130.253 57.0769 130.359 56.9923 130.228 56.7086C130.098 56.42 130.098 56.2159 130.203 56.1313C130.303 56.0467 130.364 55.997 130.334 55.7133C130.308 55.4346 130.444 55.0663 130.594 54.8872C130.745 54.7031 130.82 54.7379 130.86 54.5637C130.901 54.3945 130.921 54.1656 131.131 53.872C131.342 53.5734 131.473 53.6182 131.543 53.5783C131.613 53.5336 131.744 53.3743 132.1 53.2698C132.456 53.1653 132.923 53.3295 133.404 53.4788C133.891 53.6231 135.161 54.3199 136.049 55.1957C136.937 56.0716 137.644 56.7534 137.9 57.2511C138.121 57.6791 138.693 58.6196 138.452 59.4209L138.447 59.4308Z" fill="#1A1A18"/>
<path d="M130.513 59.0626C130.513 59.0626 130.197 59.1771 130.047 59.396C129.896 59.62 129.801 59.7295 129.57 59.8539C129.344 59.9783 129.184 60.0977 129.249 60.2868C129.314 60.471 129.5 60.6203 129.505 60.7298C129.515 60.8392 129.535 60.889 129.776 60.9388C130.017 60.9885 131.015 61.113 131.341 61.1378C131.668 61.1627 132.571 61.4016 133.148 61.3518C133.725 61.3021 134.016 61.1727 134.357 61.1478C134.698 61.1179 134.824 61.0383 135.235 61.0383C135.641 61.0383 135.862 61.0035 135.862 61.0035C135.862 61.0035 134.558 60.9039 133.84 60.6302C133.123 60.3615 132.305 60.1624 131.738 59.8638C131.171 59.5603 130.699 59.2169 130.699 59.2169L130.518 59.0576L130.513 59.0626Z" fill="#1A1A18"/>
<path d="M128.883 61.0181C128.883 61.0181 128.211 60.9783 127.895 61.0629C127.578 61.1475 127.458 61.3317 127.458 61.5506C127.458 61.7646 127.493 62.0135 127.654 62.118L127.814 62.2225C127.814 62.2225 127.744 62.0881 127.879 62.0632C128.01 62.0334 128.406 62.2324 128.818 62.3768C129.229 62.5161 129.876 62.6704 130.765 62.7002C131.698 62.7351 132.942 62.5808 134.212 62.2772C134.598 62.1876 135.767 61.8492 136.66 61.3068C136.374 61.4013 135.331 61.6751 134.864 61.7149C134.382 61.7547 133.79 61.9587 133.294 62.0831C132.28 62.332 131.226 62.5957 130.208 61.9438C131.417 62.6355 132.767 62.1628 134.121 61.7895C135.075 61.5258 136.003 61.5258 136.921 61.1077C136.284 61.1376 135.622 61.3715 134.989 61.466C134.066 61.6004 133.344 61.8393 131.668 61.6054C129.992 61.3765 128.878 61.0181 128.878 61.0181H128.883Z" fill="#1A1A18"/>
<path d="M130.484 54.534C130.484 54.534 129.731 54.4245 129.535 54.6136C129.34 54.8077 129.189 55.0416 129.219 55.171L129.249 55.3004C129.249 55.3004 129.194 55.3252 129.054 55.4546C128.913 55.584 128.913 55.6238 128.968 55.813C129.023 56.0021 129.114 56.1066 129.059 56.1912C129.003 56.2758 128.813 56.2957 128.747 56.4151C128.682 56.5346 128.737 56.7286 128.803 56.8979C128.873 57.0671 128.898 57.1367 128.898 57.1367C128.898 57.1367 128.818 57.3059 128.727 57.4154C128.642 57.5199 128.537 57.6443 128.607 57.8135C128.677 57.9827 129.064 58.5352 129.289 58.7342C129.515 58.9283 129.616 59.0527 129.616 59.0527C129.616 59.0527 129.907 58.7989 130.017 58.7541L130.127 58.7044C130.127 58.7044 129.871 58.3361 129.796 58.1271C129.721 57.9181 129.846 57.3408 129.912 57.1815C129.972 57.0223 129.861 56.7734 129.806 56.5445C129.746 56.3156 129.856 55.9722 129.962 55.8478C130.067 55.7234 129.962 55.5542 130.027 55.2556C130.097 54.957 130.087 54.8425 130.253 54.7281C130.413 54.6186 130.484 54.534 130.484 54.534Z" fill="#1A1A18"/>
<path d="M135.877 48.5472C135.877 48.5472 135.396 48.2386 135.085 48.3381C134.768 48.4377 134.528 48.5671 134.347 48.786C134.166 49.005 134.046 49.5475 134.202 49.9257C134.357 50.2989 134.482 50.6323 134.482 50.6323C134.482 50.6323 134.608 51.1648 134.703 51.4187C134.794 51.6675 135.055 52.0009 135.075 52.2199C135.09 52.4389 135.08 52.5732 135.075 52.8668C135.065 53.1605 135.14 53.6382 135.19 53.8522C135.19 53.8522 136.108 54.5141 136.304 54.7181C136.5 54.9222 137.021 55.38 137.302 55.7583C137.583 56.1414 137.714 56.3903 137.714 56.3903C137.714 56.3903 137.714 55.9822 137.849 55.5841C137.98 55.1859 138.18 54.9819 138.16 54.5241C138.14 54.0662 138.216 53.6531 138.331 53.5138L138.446 53.3745C138.446 53.3745 137.684 52.1253 137.212 51.6874C136.745 51.2445 135.867 50.3636 135.627 49.9207C135.481 49.6569 135.029 49.0946 135.13 48.7661C135.225 48.4675 135.647 48.3929 135.887 48.5521L135.877 48.5472Z" fill="#1A1A18"/>
<path d="M133.67 48.8955C133.67 48.8955 133.128 49.4678 133.184 49.7366C133.244 50.0053 133.184 50.4582 133.445 50.8662C133.705 51.2743 134.122 51.9611 134.072 52.3194C134.022 52.6727 133.881 53.2699 133.881 53.2699C133.881 53.2699 133.906 53.3247 134.262 53.4939C134.619 53.6581 134.784 53.8024 134.784 53.8024C134.784 53.8024 134.744 53.2998 134.729 52.8917C134.714 52.4836 134.834 52.3393 134.558 51.6973C134.277 51.0603 134.127 50.6025 133.971 50.279C133.816 49.9605 133.68 49.7366 133.746 49.3235C133.806 48.9104 133.67 48.9005 133.67 48.9005V48.8955Z" fill="#1A1A18"/>
<path d="M132.918 49.7215C132.918 49.7215 132.576 49.7116 132.406 49.7464C132.235 49.7813 132.07 50.0699 132.13 50.3735C132.195 50.682 132.16 51.0155 132.155 51.4086C132.15 51.8018 132.055 52.3343 132.19 52.5582L132.326 52.7822C132.326 52.7822 132.657 52.8916 132.908 52.9265C133.158 52.9663 133.314 53.031 133.475 53.0957L133.635 53.1604C133.635 53.1604 133.771 52.9165 133.766 52.4089C133.766 51.9013 133.585 51.5629 133.299 51.0603C133.013 50.5576 132.938 50.3884 132.973 50.0898C133.008 49.7962 132.998 49.6768 132.998 49.6768L132.928 49.7215H132.918Z" fill="#1A1A18"/>
<path d="M131.914 51.4483C131.914 51.4483 131.864 51.8017 131.844 52.0406C131.824 52.2745 131.784 52.4934 131.909 52.6377L132.034 52.787C132.034 52.787 131.789 53.0408 131.548 53.1205C131.307 53.2001 131.056 53.3743 130.915 53.5435C130.775 53.7127 130.629 54.0163 130.599 54.1357C130.569 54.2551 130.504 54.3796 130.504 54.3796C130.504 54.3796 130.208 54.2651 130.022 54.3198C129.837 54.3746 129.781 54.295 129.781 54.295C129.781 54.295 129.636 54.275 129.656 53.9964C129.671 53.7226 129.842 53.6878 129.822 53.4539C129.802 53.225 129.847 53.0807 129.721 52.9363L129.596 52.792C129.596 52.792 129.586 52.6875 129.746 52.6576L129.907 52.6278C129.907 52.6278 129.781 52.4835 129.877 52.2794C129.972 52.0754 130.002 52.1699 130.223 52.1102C130.449 52.0555 130.564 51.8664 130.755 51.8116C130.941 51.7569 130.86 51.941 131.206 51.7718C131.553 51.6076 131.904 51.4434 131.904 51.4434L131.914 51.4483Z" fill="#1A1A18"/>
<path d="M129.546 53.2848C129.546 53.2848 129.174 53.4291 129.064 53.4789C128.954 53.5286 128.994 53.5635 129.004 53.6779C129.014 53.7924 129.059 53.9068 128.928 53.9367C128.798 53.9666 128.808 54.086 128.893 54.1955C128.979 54.305 129.124 54.509 129.044 54.6533C128.959 54.7976 128.793 54.8673 128.828 55.0813L128.863 55.2953L128.999 55.1261C128.999 55.1261 129.019 55.146 129.094 54.8474C129.164 54.5488 129.139 54.4941 129.305 54.4194L129.47 54.3448C129.47 54.3448 129.47 54.1706 129.455 53.8969C129.435 53.6232 129.49 53.6033 129.551 53.439L129.611 53.2798H129.536L129.546 53.2848Z" fill="#1A1A18"/>
<path fill-rule="evenodd" clip-rule="evenodd" d="M140.168 59.2417C140.685 58.3907 141.071 57.6194 141.718 56.9873C142.561 56.1662 143.424 56.1562 144.328 55.3799C144.177 56.0965 144.057 56.9376 143.53 57.5198C142.792 58.331 141.488 58.2464 140.735 58.8237C141.427 58.2315 142.712 58.0424 143.013 56.7783C141.979 57.1117 141.006 58.0274 140.168 59.2417Z" fill="#1A1A18"/>
<path fill-rule="evenodd" clip-rule="evenodd" d="M139.214 60.1128C138.226 61.5908 137.488 62.9395 136.294 64.0145C134.734 65.4179 133.188 65.3681 131.527 66.6968C131.843 65.4328 132.119 63.9348 133.098 62.9345C134.473 61.5361 136.791 61.7899 138.171 60.8145C136.891 61.8148 134.588 62.0686 133.961 64.2981C135.832 63.7805 137.629 62.2179 139.204 60.1178L139.214 60.1128Z" fill="#1A1A18"/>
<path fill-rule="evenodd" clip-rule="evenodd" d="M160.659 58.6841C160.142 58.5199 159.716 58.3358 159.224 58.3059C158.587 58.2711 158.216 58.5846 157.568 58.5846C157.879 58.8285 158.226 59.142 158.647 59.1918C159.239 59.2614 159.756 58.7488 160.273 58.714C159.776 58.724 159.169 59.1121 158.602 58.6941C159.154 58.4552 159.881 58.4801 160.654 58.6841H160.659Z" fill="#1A1A18"/>
<path fill-rule="evenodd" clip-rule="evenodd" d="M160.048 58.7392C159.872 58.3809 159.747 58.0574 159.511 57.7787C159.205 57.4204 158.859 57.3806 158.527 57.0322C158.562 57.3258 158.578 57.6643 158.768 57.9181C159.034 58.2714 159.556 58.2863 159.837 58.5501C159.581 58.2863 159.074 58.1619 158.999 57.6444C159.4 57.8185 159.757 58.2216 160.048 58.7392Z" fill="#1A1A18"/>
<path d="M164.839 60.9485C164.839 60.9485 164.844 61.2322 164.628 61.2819C164.408 61.3317 164.142 61.257 164.021 61.1874C163.901 61.1177 163.851 61.1426 163.695 61.0878C163.54 61.0281 163.529 61.048 163.424 60.9634C163.319 60.8788 163.274 60.8539 163.093 60.8788C162.907 60.8987 162.556 60.8788 162.411 60.8092C162.265 60.7395 162.205 60.5952 162.034 60.5006C161.839 60.3911 161.497 60.2617 161.417 60.0229C161.387 59.9383 161.417 59.8586 161.407 59.774C161.788 59.8636 162.029 60.3015 162.37 60.4508C162.651 60.5753 163.023 60.7345 163.329 60.7445C162.802 60.63 162.802 60.5902 162.571 60.5056C162.416 60.4508 162.21 60.3115 162.069 60.197C161.924 60.0726 161.658 59.7442 161.397 59.6596C161.558 59.6596 161.974 59.9183 162.12 59.9383C162.566 59.998 163.655 60.8291 164.041 60.9684C163.479 60.64 161.984 59.6148 161.412 59.575C161.703 59.5949 161.899 59.4356 162.782 59.5799C162.461 59.4555 161.798 59.4008 161.517 59.4456C161.277 59.4854 161.216 59.3361 161.051 59.2017C161.051 59.2017 161.693 58.9479 162.004 59.0624C162.315 59.1768 162.802 59.346 163.143 59.6446C163.479 59.9382 163.931 60.411 164.091 60.5703C164.247 60.7295 164.357 60.7793 164.558 60.844C164.764 60.9087 164.854 60.9585 164.854 60.9585L164.839 60.9485Z" fill="#1A1A18"/>
<path d="M160.871 59.2019C161.172 59.7393 161.116 60.8242 160.936 61.3567C161.016 60.8043 161.071 59.8289 160.75 59.2267C160.575 59.4756 160.554 60.2818 160.509 60.5903C160.454 60.9835 160.339 61.8892 160.263 62.2724C160.203 62.5959 160.228 62.4317 160.198 62.7153C160.409 61.6752 160.429 60.2121 160.585 59.1571C160.509 59.6846 160.118 60.1574 159.967 60.66C159.812 61.1825 159.696 61.8942 159.561 62.6059C159.842 60.1773 160.213 59.5005 160.444 59.1222C159.957 59.5552 159.762 59.819 159.561 60.1026C159.36 60.3863 159.114 60.869 158.854 61.4811C159.014 61.0333 159.38 60.2519 159.511 60.0479C159.722 59.7194 159.993 59.3213 160.158 59.0874C159.701 59.4507 159.044 60.4062 158.828 61.0133C158.688 61.4065 158.578 61.7598 158.788 61.944C158.999 62.1231 159.054 62.1231 159.089 62.2426C159.124 62.367 159.175 62.4267 159.23 62.4217C159.28 62.4217 159.31 62.4217 159.375 62.5113C159.441 62.6009 159.576 62.6805 159.666 62.6905C159.757 62.7054 159.772 62.6755 159.827 62.7153C159.882 62.7552 159.947 62.8199 160.088 62.8497C160.228 62.8845 160.258 62.8348 160.289 62.8248C160.319 62.8199 160.404 62.8298 160.534 62.7651C160.67 62.7004 160.765 62.5262 160.876 62.3471C160.981 62.1729 161.187 61.6155 161.232 61.1129C161.272 60.6102 161.312 60.2121 161.262 59.9882C161.217 59.7991 161.152 59.3611 160.871 59.182V59.2019Z" fill="#1A1A18"/>
<path d="M158.572 61.4661C158.572 61.4661 158.447 61.5159 158.346 61.491C158.246 61.4661 158.186 61.4561 158.085 61.481C157.985 61.5059 157.905 61.5159 157.875 61.4362C157.845 61.3616 157.865 61.267 157.84 61.2322C157.814 61.1974 157.804 61.1775 157.87 61.0978C157.93 61.0182 158.201 60.7097 158.291 60.6101C158.381 60.5156 158.592 60.1971 158.778 60.0577C158.964 59.9184 159.089 59.8736 159.194 59.794C159.305 59.7094 159.365 59.6994 159.485 59.5899C159.606 59.4804 159.681 59.4307 159.681 59.4307C159.681 59.4307 159.315 59.8139 159.164 60.0926C159.019 60.3712 158.823 60.6499 158.728 60.8938C158.632 61.1376 158.582 61.3715 158.582 61.3715L158.567 61.4711L158.572 61.4661Z" fill="#1A1A18"/>
<path d="M157.574 61.3169C157.574 61.3169 157.383 61.511 157.262 61.5707C157.147 61.6305 157.062 61.6056 157.007 61.5409C156.951 61.4762 156.896 61.3916 156.921 61.3169L156.941 61.2423C156.941 61.2423 156.956 61.302 157.002 61.2722C157.047 61.2473 157.117 61.0781 157.202 60.9238C157.293 60.7695 157.448 60.5505 157.709 60.2967C157.98 60.033 158.396 59.7443 158.858 59.4905C158.999 59.4109 159.44 59.1969 159.847 59.1223C159.736 59.172 159.35 59.3711 159.199 59.4855C159.044 59.605 158.813 59.7045 158.632 59.7991C158.261 59.9981 157.875 60.2072 157.734 60.6799C157.92 60.1425 158.452 59.9185 158.958 59.6647C159.315 59.4856 159.591 59.2317 159.977 59.1123C159.776 59.2765 159.515 59.386 159.3 59.5303C158.989 59.7394 158.708 59.8638 158.261 60.3913C157.814 60.9138 157.569 61.3269 157.569 61.3269L157.574 61.3169Z" fill="#1A1A18"/>
<path d="M159.732 62.8398C159.732 62.8398 159.531 63.0787 159.426 63.0737C159.315 63.0737 159.21 63.0389 159.185 62.9891L159.16 62.9443C159.16 62.9443 159.14 62.9543 159.065 62.9493C158.989 62.9493 158.979 62.9393 158.944 62.8647C158.909 62.795 158.914 62.7353 158.874 62.7254C158.834 62.7154 158.774 62.7602 158.723 62.7403C158.673 62.7204 158.638 62.6507 158.618 62.581C158.593 62.5114 158.588 62.4815 158.588 62.4815C158.588 62.4815 158.518 62.4516 158.462 62.4417C158.407 62.4317 158.347 62.4218 158.322 62.3521C158.297 62.2824 158.277 62.0087 158.287 61.8893C158.307 61.7698 158.302 61.7052 158.302 61.7052C158.302 61.7052 158.452 61.7052 158.503 61.6902L158.548 61.6753C158.548 61.6753 158.563 61.8545 158.598 61.9391C158.628 62.0237 158.814 62.163 158.879 62.1929C158.939 62.2227 158.969 62.3322 159.009 62.4118C159.049 62.4964 159.17 62.5711 159.235 62.581C159.3 62.591 159.31 62.6706 159.411 62.7403C159.511 62.81 159.536 62.8498 159.611 62.8398C159.692 62.8299 159.732 62.8398 159.732 62.8398Z" fill="#1A1A18"/>
<path d="M162.903 63.1833C162.903 63.1833 162.837 63.4073 162.717 63.462C162.597 63.5168 162.491 63.5466 162.381 63.5267C162.27 63.5118 162.095 63.3774 162.045 63.2231C161.995 63.0689 161.949 62.9345 161.949 62.9345C161.949 62.9345 161.849 62.7404 161.814 62.6409C161.774 62.5413 161.769 62.3672 161.719 62.2975C161.668 62.2278 161.628 62.188 161.548 62.1034C161.468 62.0188 161.367 61.8546 161.327 61.7749C161.327 61.7749 161.433 61.3271 161.438 61.2126C161.443 61.0981 161.483 60.8194 161.468 60.6254C161.453 60.4362 161.428 60.3218 161.428 60.3218C161.428 60.3218 161.533 60.4412 161.678 60.5308C161.819 60.6154 161.934 60.6204 162.045 60.7647C162.16 60.909 162.286 61.0135 162.356 61.0235L162.426 61.0334C162.426 61.0334 162.516 61.6157 162.486 61.8795C162.461 62.1382 162.421 62.6459 162.461 62.8449C162.486 62.9644 162.491 63.258 162.612 63.3276C162.717 63.3923 162.863 63.2978 162.898 63.1883L162.903 63.1833Z" fill="#1A1A18"/>
<path d="M162.15 63.6757C162.15 63.6757 161.839 63.6508 161.788 63.5512C161.738 63.4517 161.603 63.3323 161.578 63.1382C161.553 62.9441 161.497 62.6256 161.392 62.531C161.287 62.4365 161.091 62.2971 161.091 62.2971C161.091 62.2971 161.086 62.2723 161.146 62.1279C161.211 61.9836 161.226 61.894 161.226 61.894C161.226 61.894 161.342 62.0583 161.447 62.1827C161.548 62.3121 161.623 62.322 161.703 62.5908C161.783 62.8595 161.854 63.0387 161.889 63.178C161.924 63.3173 161.939 63.4219 162.069 63.5264C162.195 63.6359 162.155 63.6757 162.155 63.6757H162.15Z" fill="#1A1A18"/>
<path d="M161.709 63.6311C161.709 63.6311 161.608 63.7256 161.548 63.7654C161.488 63.8003 161.363 63.7605 161.302 63.651C161.242 63.5415 161.147 63.4469 161.041 63.3325C160.936 63.218 160.77 63.0787 160.755 62.9742L160.735 62.8697C160.735 62.8697 160.806 62.7452 160.871 62.6656C160.936 62.586 160.966 62.5213 161.001 62.4616L161.031 62.4019C161.031 62.4019 161.137 62.4367 161.267 62.591C161.398 62.7452 161.433 62.8945 161.473 63.1235C161.518 63.3524 161.538 63.4221 161.623 63.5067C161.709 63.5863 161.739 63.6261 161.739 63.6261H161.704L161.709 63.6311Z" fill="#1A1A18"/>
<path d="M160.961 63.3821C160.961 63.3821 160.856 63.2876 160.786 63.2229C160.72 63.1582 160.65 63.1034 160.65 63.0238V62.9442C160.65 62.9442 160.51 62.9342 160.419 62.974C160.324 63.0139 160.204 63.0288 160.118 63.0188C160.033 63.0039 159.907 62.9541 159.867 62.9243C159.827 62.8944 159.777 62.8745 159.777 62.8745C159.777 62.8745 159.717 62.989 159.647 63.0238C159.576 63.0586 159.581 63.0985 159.581 63.0985C159.581 63.0985 159.541 63.1433 159.621 63.2229C159.697 63.3025 159.757 63.2627 159.812 63.3423C159.867 63.417 159.918 63.4468 159.918 63.5264V63.6061C159.918 63.6061 159.938 63.6409 159.998 63.6061L160.053 63.5712C160.053 63.5712 160.053 63.6509 160.133 63.6857C160.214 63.7205 160.198 63.6857 160.284 63.6409C160.364 63.5961 160.449 63.621 160.52 63.5862C160.59 63.5513 160.52 63.5215 160.665 63.4767C160.811 63.4319 160.961 63.3871 160.961 63.3871V63.3821Z" fill="#1A1A18"/>
<path d="M159.771 63.4719C159.771 63.4719 159.621 63.5267 159.576 63.5416C159.531 63.5565 159.531 63.5366 159.505 63.4968C159.475 63.462 159.46 63.4122 159.415 63.4371C159.37 63.462 159.34 63.4271 159.34 63.3674C159.34 63.3127 159.33 63.2082 159.27 63.1883C159.204 63.1684 159.139 63.1883 159.094 63.1186L159.049 63.0439L159.134 63.0589C159.134 63.0589 159.134 63.0489 159.234 63.1186C159.335 63.1883 159.34 63.2132 159.41 63.1883L159.48 63.1684C159.48 63.1684 159.525 63.2181 159.591 63.3077C159.656 63.3973 159.676 63.3873 159.736 63.4172L159.796 63.452L159.771 63.4719Z" fill="#1A1A18"/>
<path fill-rule="evenodd" clip-rule="evenodd" d="M161.442 58.7889C161.819 58.9034 162.135 59.0328 162.491 59.0477C162.958 59.0676 163.219 58.8337 163.695 58.8238C163.464 58.6496 163.209 58.4256 162.903 58.3958C162.471 58.351 162.1 58.7292 161.723 58.7591C162.085 58.7491 162.521 58.4605 162.938 58.7591C162.536 58.9382 162.009 58.9283 161.442 58.7889Z" fill="#1A1A18"/>
<path fill-rule="evenodd" clip-rule="evenodd" d="M165.21 57.2757C164.142 55.9469 161.011 56.5591 160.981 58.8433C160.835 58.4701 160.775 58.0819 160.966 57.7535C160.514 57.848 159.897 57.8829 159.495 57.6241C159.089 57.3653 158.592 56.6337 159.46 56.5342C159.46 55.5339 161.016 55.4941 160.971 56.6536C160.976 56.6586 160.84 56.7532 160.835 56.7581C160.815 55.8424 159.751 55.9519 159.776 56.7382C159.801 57.6937 160.79 57.4598 161.231 57.1961C162.461 56.4645 163.926 55.8623 165.145 57.1214L165.21 57.2757Z" fill="#1A1A18"/>
<path fill-rule="evenodd" clip-rule="evenodd" d="M165.442 57.3804C165.11 56.7982 164.875 56.2756 164.453 55.8427C163.911 55.2753 163.329 55.2505 162.747 54.708C162.832 55.1907 162.893 55.7581 163.234 56.1562C163.71 56.7136 164.584 56.6837 165.07 57.0918C164.619 56.6837 163.766 56.5245 163.59 55.6735C164.272 55.9173 164.905 56.5543 165.437 57.3804H165.442Z" fill="#1A1A18"/>
<path fill-rule="evenodd" clip-rule="evenodd" d="M169.621 50.4879C168.557 54.1656 170.123 57.9329 174.017 59.1024C177.378 60.1176 180.484 59.3662 182.817 57.4552C181.362 59.4806 178.332 60.0131 175.978 60.4262C172.842 60.9786 169.656 59.2567 167.709 56.7783C164.915 53.2151 162.391 41.6097 155.958 45.0435L156.58 44.7947C162.541 42.9533 164.834 54.7031 167.629 58.2713C169.571 60.7497 173.143 62.5363 176.285 61.9839C179.245 61.4663 182.717 60.9786 183.349 57.3606L183.41 56.9376C184.002 56.3653 184.539 55.7183 185.005 54.9967L184.629 55.1012C184.288 55.2356 183.941 55.4197 183.59 55.6337V55.5889C183.59 55.5889 183.59 55.6188 183.59 55.6337C182.195 56.4797 180.72 57.7587 179.119 57.9578C177.684 58.1369 176.566 58.2066 175.125 58.0723C172.431 57.8135 170.053 55.8925 170.324 53.0011C170.539 50.6621 172.381 49.3284 174.523 50.4133C176.285 51.3041 177.218 54.1756 174.804 54.7877C177.459 55.574 178.568 51.7768 177.449 49.9156C175.622 46.8749 170.61 47.069 169.621 50.4879ZM162.812 52.8219H162.822C162.596 52.4338 162.356 52.1202 162.11 51.8664C160.855 50.1943 159.661 48.7959 158.457 48.1041C156.5 46.9794 154.804 46.5066 153.384 46.4071C153.796 46.1334 154.347 46.3573 154.814 46.3175C155.828 46.2279 156.058 45.5213 156.736 44.8843C156.615 44.9987 156.164 45.2376 156.003 45.2625C155.833 45.2923 155.722 45.2127 155.542 45.2426C155.055 45.3222 154.573 45.6307 154.122 45.9244C154.784 45.1231 156.099 44.3916 157.177 44.4364C155.803 43.9188 153.74 44.9689 153.123 46.3922C151.297 46.3225 149.947 46.8848 149.114 47.4721C146.555 49.2736 145.02 53.5535 146.289 56.6091C147.569 59.6896 150.399 62.0137 153.56 61.1428C154.287 61.1677 154.779 61.5857 154.884 61.954C155.035 62.4666 154.839 62.9792 154.493 63.0688C154.147 63.1832 154.041 63.0588 154.026 62.9344C153.996 62.815 154.112 62.815 154.207 62.8199C154.393 62.8448 154.598 62.6209 154.518 62.3322C154.428 62.0535 154.212 61.9142 153.866 62.0286C153.535 62.1332 153.404 62.5064 153.484 62.8199C153.585 63.1583 153.991 63.4719 154.538 63.2977C155.075 63.1335 155.311 62.4716 155.15 61.8943C155.05 61.5459 154.684 61.1279 154.036 60.9985C154.302 60.899 154.568 60.7795 154.834 60.6352C156.911 59.5005 158.708 55.9373 156.535 53.668L156.856 54.076C158 56.5892 156.942 58.8237 155.276 60.033C156.656 58.4455 156.124 55.4645 154.162 54.4991H154.152C156.154 55.5143 156.641 58.6346 155.095 60.1674C154.97 60.252 154.844 60.3267 154.709 60.4013C151.031 62.4268 147.644 59.6548 146.515 56.3255C145.496 53.3395 146.836 49.6021 149.27 47.8901C150.047 47.3427 151.317 46.7555 153.023 46.7356C152.993 46.855 152.968 46.9744 152.963 47.0939C153.008 46.9495 153.058 46.8351 153.113 46.7356C154.528 46.7356 156.239 47.1337 158.221 48.2733C158.638 48.5122 159.054 48.8407 159.47 49.2388C158.121 48.3231 156.495 47.7408 154.929 47.5119C152.501 47.1586 148.085 49.0198 148.617 52.9165C148.562 51.3439 148.833 50.6322 149.867 49.5025C150.685 48.6068 151.748 48.124 152.907 47.8453C155.025 47.3377 156.625 48.0643 158.472 49.1392C159.365 49.6568 160.273 50.2739 161.041 51.0204C161.081 51.0751 161.126 51.1249 161.161 51.1797C160.424 50.8313 159.741 50.9308 159.345 51.1797C158.627 51.6475 158.256 52.603 158.683 53.3196C159.114 54.0611 159.852 54.1208 160.283 53.8521C160.665 53.5883 160.88 53.0509 160.619 52.6079C160.349 52.1352 159.977 52.0804 159.616 52.2894C159.255 52.5233 159.26 52.9762 159.491 53.1305C159.606 53.225 159.721 53.3395 159.581 53.439C159.445 53.5634 159.215 53.5933 158.949 53.1255C158.658 52.6876 158.924 51.9311 159.571 51.523C160.012 51.2394 160.885 51.2543 161.678 51.8664C165.978 57.7239 171.001 67.279 181.147 61.8694L182.361 59.9136C172.732 67.6024 167.308 59.0228 162.817 52.8418L162.812 52.8219ZM157.383 54.7628C157.448 53.1006 155.381 51.1896 153.78 51.5778C154.945 51.5778 154.759 52.4985 155.005 53.1056C155.381 54.0312 156.079 54.0412 156.851 54.4841C156.711 54.4045 156.37 54.0512 156.299 53.9068C156.224 53.7575 156.259 53.6281 156.184 53.4689C155.968 53.0359 155.552 52.6726 155.16 52.3392C156.068 52.7224 157.107 53.7376 157.383 54.7628ZM151.171 54.8773C151.071 55.0166 151.006 55.1808 150.981 55.3451C150.94 55.5292 150.951 55.7133 151.041 55.8626L151.061 55.8825C151.111 55.9721 151.186 56.0518 151.282 56.1115C151.292 56.1115 151.297 56.1214 151.302 56.1264C151.302 56.1264 151.327 56.1364 151.342 56.1413L151.387 56.1612C151.352 56.1463 151.322 56.1214 151.292 56.1015L151.151 55.9622C151.151 55.9622 151.141 55.9472 151.136 55.9423C151.061 55.788 151.131 55.6188 151.317 55.5292C151.021 55.2455 151.402 54.6782 151.653 54.4791C151.653 54.4791 151.643 54.4791 151.643 54.4841C152.36 53.9914 153.394 54.1109 154.147 54.4841C154.137 54.4791 154.127 54.4692 154.117 54.4642C153.193 54.0113 151.859 53.9267 151.181 54.8773H151.171ZM151.653 54.4791C151.663 54.4742 151.663 54.4791 151.653 54.4791V54.4791ZM148.612 52.9663C148.612 52.9663 148.607 52.9165 148.602 52.8916C148.602 52.9264 148.602 52.9563 148.602 52.9911V52.9663H148.612ZM148.903 52.5831C148.873 52.7523 148.773 52.8319 148.743 53.0061C148.662 53.4838 148.783 54.0312 148.908 54.5389C148.402 53.6779 148.161 52.2247 148.537 51.2294C147.513 52.5184 148.06 55.3202 149.566 55.992C148.632 55.2804 149.315 54.6533 149.47 54.0163C149.706 53.0459 149.149 52.6079 148.793 51.7818C148.858 51.9311 148.928 52.4238 148.898 52.5831H148.903Z" fill="#1A1A18"/>
<path fill-rule="evenodd" clip-rule="evenodd" d="M152.184 48.1736C150.634 49.7462 146.67 48.5468 146.921 45.5957C146.685 46.0585 146.56 46.5512 146.765 46.9991C146.198 46.8199 145.401 46.6955 144.849 46.9742C144.287 47.2579 143.564 48.1338 144.668 48.3776C144.543 49.6666 146.55 49.9253 146.63 48.4174C146.64 48.4075 146.474 48.2731 146.469 48.2632C146.329 49.4426 144.969 49.1639 145.095 48.1487C145.245 46.9145 146.489 47.3524 147.031 47.7506C148.527 48.8554 150.343 49.8258 152.079 48.3577L152.184 48.1686V48.1736Z" fill="#1A1A18"/>
<path fill-rule="evenodd" clip-rule="evenodd" d="M56.333 12.6606C59.3837 15.9651 67.5273 13.7804 67.2062 7.76367C67.6578 8.72416 67.8886 9.73938 67.432 10.6252C68.6011 10.2968 70.2318 10.0977 71.3357 10.6999C72.4547 11.312 73.8797 13.1434 71.6167 13.5614C71.7873 16.194 67.6979 16.5872 67.6177 13.5216C67.5976 13.5017 67.9438 13.2429 67.9538 13.223C68.1596 15.6367 70.9494 15.1489 70.7537 13.0837C70.5229 10.5705 67.9589 11.3717 66.8399 12.1481C63.729 14.298 59.9658 16.1542 56.5337 13.0538L56.333 12.6656V12.6606Z" fill="#1A1A18"/>
<path fill-rule="evenodd" clip-rule="evenodd" d="M36.3125 6.87794C37.2357 3.60334 43.3874 2.18998 45.1887 6.31061C45.1686 5.51435 44.9779 4.75791 44.3808 4.32494C45.269 4.13086 46.423 3.69292 46.9549 2.90164C47.4968 2.1004 47.828 0.3785 46.1822 0.896066C45.4145 -0.915417 42.5594 0.264038 43.5379 2.3343C43.5329 2.35421 43.849 2.40398 43.859 2.41393C43.1867 0.736815 45.2037 0.0749268 45.7707 1.52312C46.4581 3.27986 44.4862 3.64813 43.4827 3.52371C40.6929 3.1853 37.5669 3.27488 36.3225 6.54949V6.87794H36.3125Z" fill="#1A1A18"/>
<path fill-rule="evenodd" clip-rule="evenodd" d="M21.0493 16.3731C23.799 17.8363 23.9395 23.848 19.9404 24.7836C20.658 24.913 21.3604 24.8732 21.8572 24.3904C21.8672 25.2564 22.0478 26.4159 22.655 27.0579C23.2721 27.7098 24.7423 28.3369 24.5817 26.6996C26.3329 26.3114 25.806 23.42 23.7839 23.9575C23.7689 23.9475 23.6635 24.2362 23.6535 24.2461C25.2692 23.9226 25.4899 25.9332 24.1 26.197C22.4141 26.5204 22.4442 24.6094 22.7352 23.6887C23.5431 21.1357 24.0298 18.1946 21.3454 16.4329L21.0543 16.3682L21.0493 16.3731Z" fill="#1A1A18"/>
<path fill-rule="evenodd" clip-rule="evenodd" d="M25.9365 27.4761C26.4182 26.9784 26.7945 26.5156 27.3314 26.1872C28.0289 25.7642 28.621 25.8935 29.3535 25.5054C29.1428 25.9682 28.932 26.5256 28.4855 26.8341C27.8583 27.2721 26.9852 27.0033 26.3881 27.277C26.9501 26.9884 27.8533 27.0581 28.2497 26.2469C27.492 26.3066 26.6942 26.7794 25.9365 27.4711V27.4761Z" fill="#1A1A18"/>
<path fill-rule="evenodd" clip-rule="evenodd" d="M26.6541 27.1675C26.6491 26.6599 26.6039 26.222 26.7043 25.7691C26.8448 25.1769 27.2111 24.933 27.3867 24.3408C27.5171 24.6892 27.6927 25.0823 27.6225 25.4805C27.5272 26.0378 26.9451 26.3663 26.7795 26.8291C26.915 26.3812 27.4118 25.9333 27.201 25.3113C26.8448 25.7442 26.6792 26.4111 26.6491 27.1675H26.6541Z" fill="#1A1A18"/>
<path d="M22.5293 32.5322C22.5293 32.5322 22.6848 32.8606 22.9608 32.781C23.2368 32.7063 23.4927 32.4625 23.593 32.3132C23.6884 32.1639 23.7636 32.1589 23.9041 32.0046C24.0446 31.8454 24.0697 31.8653 24.14 31.7011C24.2102 31.5418 24.2453 31.4871 24.4661 31.4025C24.6869 31.3179 25.0682 31.079 25.1937 30.9098C25.3191 30.7406 25.304 30.5415 25.4395 30.3375C25.5951 30.0986 25.9062 29.7453 25.861 29.4268C25.8459 29.3123 25.7707 29.2376 25.7305 29.1431C25.3492 29.4715 25.3342 30.1085 25.0331 30.4818C24.7872 30.7854 24.4611 31.1934 24.1249 31.3875C24.6518 30.9446 24.6267 30.8948 24.8374 30.6659C24.9779 30.5067 25.1334 30.228 25.2238 30.019C25.3141 29.795 25.4245 29.2625 25.6703 29.0087C25.4897 29.1082 25.1686 29.6457 25.018 29.7552C24.5514 30.0936 23.8038 31.6812 23.4475 32.0644C23.8891 31.3527 24.9879 29.3123 25.6051 28.9191C25.289 29.1132 24.9779 29.0585 24.0697 29.7502C24.3557 29.4168 25.0682 28.959 25.4144 28.8395C25.7055 28.74 25.6854 28.5359 25.8008 28.2871C25.8008 28.2871 24.9327 28.3866 24.6518 28.7002C24.3657 29.0137 23.9142 29.5064 23.7034 30.0389C23.4927 30.5714 23.2569 31.3776 23.1665 31.6463C23.0812 31.92 22.9909 32.0395 22.8002 32.2336C22.6096 32.4276 22.5343 32.5371 22.5343 32.5371L22.5293 32.5322Z" fill="#1A1A18"/>
<path d="M25.9919 28.1827C25.9618 28.964 26.6442 30.1534 27.151 30.6411C26.7446 30.0688 26.1274 29.0038 26.1425 28.1379C26.4837 28.317 26.9704 29.2079 27.1911 29.5264C27.4771 29.9344 28.1294 30.88 28.4305 31.2732C28.6814 31.6016 28.566 31.4324 28.7566 31.731C27.9287 30.6959 27.0707 29.0586 26.293 27.9637C26.6793 28.5111 27.3868 28.8097 27.8434 29.2825C28.3151 29.7752 28.852 30.5018 29.4089 31.2234C27.708 28.6604 26.9051 28.1279 26.4285 27.8393C27.2212 28.0334 27.5925 28.2125 27.9789 28.4116C28.3653 28.6107 28.9172 29.0038 29.5645 29.5363C29.1229 29.1282 28.2699 28.4713 28.009 28.322C27.5875 28.0831 27.0557 27.7945 26.7345 27.6353C27.4571 27.7646 28.7416 28.4464 29.3286 28.9988C29.71 29.3572 30.0412 29.6906 29.9057 30.019C29.7702 30.3525 29.71 30.3774 29.7401 30.5416C29.7702 30.6959 29.7451 30.8004 29.6849 30.8253C29.6247 30.8551 29.5896 30.87 29.5695 31.0144C29.5494 31.1587 29.439 31.3179 29.3437 31.3926C29.2484 31.4623 29.2183 31.4374 29.1731 31.517C29.133 31.5966 29.0978 31.7061 28.9573 31.8256C28.8169 31.945 28.7566 31.9102 28.7165 31.9201C28.6764 31.935 28.5911 31.9948 28.4054 32.0047C28.2198 32.0147 28.004 31.8753 27.7882 31.741C27.5624 31.6066 27.0155 31.1089 26.6844 30.5665C26.3482 30.024 26.0772 29.601 26.012 29.3223C25.9518 29.0834 25.7812 28.5509 25.9919 28.1827Z" fill="#1A1A18"/>
<path d="M29.8656 29.3471C29.8656 29.3471 30.0312 29.3272 30.1366 29.2376C30.2369 29.148 30.2971 29.1032 30.4226 29.0684C30.548 29.0335 30.6434 28.9937 30.6333 28.8942C30.6233 28.7947 30.548 28.6951 30.5581 28.6404C30.5681 28.5857 30.5581 28.5608 30.4477 28.5011C30.3323 28.4463 29.8556 28.2622 29.695 28.2074C29.5395 28.1577 29.118 27.9287 28.832 27.879C28.541 27.8342 28.3804 27.8591 28.2098 27.8342C28.0392 27.8043 27.9639 27.8292 27.7632 27.7794C27.5625 27.7297 27.4521 27.7197 27.4521 27.7197C27.4521 27.7197 28.0844 27.9337 28.4055 28.1527C28.7266 28.3766 29.108 28.5707 29.3538 28.7897C29.5997 29.0087 29.7904 29.2376 29.7904 29.2376L29.8606 29.3371L29.8656 29.3471Z" fill="#1A1A18"/>
<path d="M30.9034 28.5807C30.9034 28.5807 31.2295 28.6853 31.3951 28.6803C31.5607 28.6803 31.641 28.6007 31.6661 28.4912C31.6911 28.3867 31.7012 28.2573 31.636 28.1876L31.5707 28.1179C31.5707 28.1179 31.5858 28.1926 31.5205 28.1876C31.4553 28.1876 31.2797 28.0383 31.0941 27.9189C30.9084 27.7994 30.6073 27.6451 30.1708 27.5207C29.7142 27.3864 29.082 27.3117 28.4146 27.3018C28.2139 27.3018 27.5968 27.3217 27.09 27.4809C27.2405 27.466 27.7925 27.461 28.0283 27.5008C28.2691 27.5406 28.5852 27.5108 28.8462 27.5108C29.378 27.5108 29.93 27.5108 30.3565 27.9587C29.8396 27.466 29.1171 27.5357 28.4046 27.5506C27.9028 27.5605 27.4462 27.4461 26.9395 27.5406C27.2556 27.6053 27.6118 27.5705 27.938 27.6004C28.4096 27.6451 28.796 27.6203 29.5938 27.9388C30.3966 28.2622 30.9034 28.5708 30.9034 28.5708V28.5807Z" fill="#1A1A18"/>
<path d="M29.3486 31.5868C29.3486 31.5868 29.7099 31.7361 29.8253 31.6615C29.9407 31.5918 30.0461 31.4923 30.0461 31.4226V31.3579C30.0461 31.3579 30.0762 31.3529 30.1615 31.3081C30.2468 31.2634 30.2518 31.2434 30.2468 31.1439C30.2468 31.0444 30.2066 30.9797 30.2468 30.9448C30.2819 30.91 30.3772 30.9249 30.4274 30.8752C30.4726 30.8204 30.4726 30.7209 30.4575 30.6313C30.4425 30.5368 30.4375 30.5019 30.4375 30.5019C30.4375 30.5019 30.4977 30.4273 30.5529 30.3875C30.6081 30.3477 30.6733 30.2979 30.6582 30.2033C30.6432 30.1088 30.5177 29.7903 30.4274 29.6659C30.3371 29.5414 30.302 29.4668 30.302 29.4668C30.302 29.4668 30.1314 29.5564 30.0712 29.5663L30.011 29.5763C30.011 29.5763 30.0963 29.7903 30.1063 29.8998C30.1213 30.0142 29.9909 30.283 29.9407 30.3526C29.8905 30.4223 29.9206 30.5617 29.9206 30.6811C29.9206 30.8005 29.8303 30.9548 29.7651 31.0046C29.6999 31.0543 29.735 31.1489 29.6647 31.2882C29.5945 31.4276 29.5845 31.4873 29.4941 31.5221C29.3988 31.557 29.3536 31.5918 29.3536 31.5918L29.3486 31.5868Z" fill="#1A1A18"/>
<path d="M25.9866 33.876C25.9866 33.876 26.1874 34.085 26.3529 34.0751C26.5185 34.0651 26.654 34.0303 26.7694 33.9457C26.8848 33.8611 27.0052 33.6023 26.9751 33.4032C26.945 33.1992 26.9199 33.02 26.9199 33.02C26.9199 33.02 26.9199 32.7413 26.9049 32.607C26.8898 32.4726 26.7995 32.2785 26.8146 32.169C26.8296 32.0596 26.8547 31.9949 26.8948 31.8505C26.935 31.7062 26.9551 31.4624 26.95 31.3479C26.95 31.3479 26.5737 30.905 26.5035 30.7806C26.4332 30.6562 26.2275 30.3675 26.1322 30.1436C26.0368 29.9196 26.0017 29.7803 26.0017 29.7803C26.0017 29.7803 25.9515 29.9793 25.8411 30.1635C25.7307 30.3426 25.6053 30.4173 25.5601 30.6462C25.515 30.8751 25.4297 31.0692 25.3594 31.124L25.2842 31.1787C25.2842 31.1787 25.515 31.8904 25.6956 32.1641C25.8763 32.4378 26.2074 32.9802 26.2727 33.234C26.3128 33.3784 26.4734 33.7118 26.383 33.8661C26.3028 34.0004 26.087 33.9855 25.9866 33.881V33.876Z" fill="#1A1A18"/>
<path d="M27.1153 33.9755C27.1153 33.9755 27.4515 33.7615 27.4565 33.6171C27.4565 33.4778 27.5418 33.2588 27.4565 33.0249C27.3762 32.791 27.2508 32.4028 27.316 32.2336C27.3812 32.0644 27.5217 31.7857 27.5217 31.7857C27.5217 31.7857 27.5167 31.7559 27.3612 31.6315C27.2056 31.5071 27.1404 31.4175 27.1404 31.4175C27.1404 31.4175 27.1003 31.6713 27.0601 31.8753C27.02 32.0794 26.9447 32.1391 27.0049 32.4874C27.0651 32.8408 27.0902 33.0846 27.1304 33.2588C27.1705 33.438 27.2106 33.5624 27.1304 33.7615C27.0501 33.9605 27.1153 33.9804 27.1153 33.9804V33.9755Z" fill="#1A1A18"/>
<path d="M27.5817 33.6621C27.5817 33.6621 27.7523 33.7069 27.8376 33.7119C27.9229 33.7119 28.0433 33.5974 28.0433 33.4381C28.0484 33.2789 28.1036 33.1147 28.1537 32.9256C28.2039 32.7315 28.3093 32.4826 28.2742 32.3532L28.234 32.2238C28.234 32.2238 28.0835 32.1293 27.9631 32.0795C27.8426 32.0298 27.7724 31.98 27.7072 31.9253L27.6369 31.8755C27.6369 31.8755 27.5416 31.98 27.4864 32.2288C27.4262 32.4826 27.4763 32.6668 27.5616 32.9504C27.6419 33.2341 27.662 33.3287 27.6118 33.468C27.5566 33.6123 27.5516 33.6671 27.5516 33.6671L27.5918 33.6521L27.5817 33.6621Z" fill="#1A1A18"/>
<path d="M28.2793 32.9303C28.2793 32.9303 28.3445 32.7611 28.3796 32.6466C28.4148 32.5321 28.4649 32.4276 28.4198 32.343L28.3746 32.2534C28.3746 32.2534 28.5302 32.1589 28.6556 32.1489C28.7861 32.139 28.9316 32.0842 29.0169 32.0195C29.1072 31.9548 29.2126 31.8205 29.2377 31.7657C29.2678 31.711 29.3129 31.6562 29.3129 31.6562C29.3129 31.6562 29.4484 31.7508 29.5437 31.7458C29.6441 31.7458 29.6591 31.7856 29.6591 31.7856C29.6591 31.7856 29.7294 31.8155 29.6892 31.9449C29.6491 32.0793 29.5588 32.0743 29.5437 32.1937C29.5287 32.3132 29.4885 32.3729 29.5337 32.4625L29.5789 32.5471C29.5789 32.5471 29.5738 32.6018 29.4885 32.5968H29.4032C29.4032 32.5968 29.4484 32.6814 29.3782 32.766C29.3029 32.8556 29.3029 32.8058 29.1875 32.8058C29.0721 32.8058 28.9868 32.8855 28.8914 32.8855C28.7911 32.8855 28.8563 32.8108 28.6606 32.8457C28.47 32.8855 28.2793 32.9203 28.2793 32.9203V32.9303Z" fill="#1A1A18"/>
<path d="M29.6699 32.3184C29.6699 32.3184 29.8706 32.2886 29.9308 32.2786C29.991 32.2687 29.976 32.2438 29.981 32.189C29.991 32.1293 29.981 32.0696 30.0512 32.0696C30.1165 32.0696 30.1265 32.0099 30.0964 31.9452C30.0663 31.8805 30.0161 31.7611 30.0763 31.7013C30.1365 31.6416 30.2268 31.6267 30.2319 31.5172V31.4077L30.1516 31.4724C30.1516 31.4724 30.1415 31.4625 30.0763 31.6018C30.0061 31.7411 30.0111 31.771 29.9208 31.7859L29.8305 31.8009C29.8305 31.8009 29.8054 31.8855 29.7853 32.0248C29.7652 32.1592 29.7351 32.1691 29.6849 32.2388L29.6348 32.3135H29.6749L29.6699 32.3184Z" fill="#1A1A18"/>
<path fill-rule="evenodd" clip-rule="evenodd" d="M25.1181 28.0635C24.7618 28.4218 24.4808 28.7552 24.0894 28.9841C23.5776 29.2877 23.1511 29.1832 22.6143 29.4569C22.7698 29.1235 22.9304 28.7204 23.2615 28.4964C23.7181 28.1879 24.3554 28.3919 24.7969 28.1978C24.3855 28.4019 23.7282 28.3422 23.4321 28.9294C23.9841 28.8946 24.5711 28.5611 25.1281 28.0635H25.1181Z" fill="#1A1A18"/>
<path fill-rule="evenodd" clip-rule="evenodd" d="M35.7558 6.74841C35.7307 5.60877 35.6253 4.63336 35.8561 3.62311C36.1572 2.30431 36.975 1.74693 37.3514 0.433105C37.6424 1.20448 38.0438 2.08534 37.8933 2.97117C37.6875 4.21532 36.398 4.96181 36.0367 5.99695C36.3378 4.99167 37.4316 3.99138 36.955 2.59793C36.1772 3.57832 35.811 5.06632 35.7558 6.74841Z" fill="#1A1A18"/>
<path d="M41.9121 17.5276C41.9121 17.5276 42.3537 18.0751 42.8504 17.8013C43.3421 17.5276 43.7235 16.9354 43.8389 16.607C43.9543 16.2735 44.0948 16.2337 44.2955 15.8655C44.4912 15.4972 44.5464 15.5171 44.6066 15.1787C44.6668 14.8403 44.717 14.7159 45.0933 14.4521C45.4696 14.1834 46.0968 13.5464 46.2574 13.1681C46.4179 12.7899 46.3025 12.4167 46.4681 11.9638C46.6588 11.4313 47.0903 10.6102 46.8595 10.0179C46.7792 9.80893 46.6036 9.69944 46.4782 9.53521C45.8961 10.3414 46.152 11.5706 45.7556 12.4266C45.4245 13.1283 44.9879 14.054 44.431 14.5865C45.2288 13.4866 45.1736 13.402 45.4646 12.8596C45.6653 12.4913 45.8359 11.8842 45.9011 11.4363C45.9714 10.9635 45.9513 9.88855 46.3025 9.29136C46.0015 9.57005 45.6302 10.7495 45.3943 11.0282C44.6568 11.8941 43.9443 15.2882 43.4425 16.1889C43.9643 14.6213 45.1384 10.1871 46.142 9.14704C45.6252 9.66958 45.003 9.70939 43.583 11.4711C43.9794 10.6948 45.1284 9.48047 45.7406 9.0923C46.2574 8.76384 46.1269 8.38562 46.2223 7.84814C46.2223 7.84814 44.6116 8.45031 44.2152 9.18685C43.8138 9.92339 43.1715 11.073 43.016 12.1927C42.8604 13.3125 42.7601 14.9597 42.7199 15.5221C42.6798 16.0844 42.5594 16.3581 42.2834 16.821C42.0074 17.2838 41.9121 17.5276 41.9121 17.5276Z" fill="#1A1A18"/>
<path d="M46.5533 7.56958C46.8494 9.08246 48.6959 11.0233 49.88 11.7201C48.8414 10.8143 47.1805 9.08246 46.8193 7.42028C47.5468 7.59446 48.8815 9.06753 49.4535 9.57017C50.1861 10.2122 51.8519 11.7101 52.6096 12.3173C53.2368 12.8249 52.9358 12.5561 53.4375 13.0389C51.3753 11.4513 48.9969 8.72913 47.015 7.01717C48.0084 7.87813 49.4937 8.10705 50.5825 8.7988C51.7115 9.51543 53.0712 10.6501 54.4511 11.7599C50.0406 7.67906 48.2643 7.04206 47.2207 6.7136C48.8213 6.7136 49.6091 6.87783 50.447 7.07192C51.2749 7.26103 52.5093 7.75869 53.9844 8.46537C52.9558 7.89803 51.0291 7.04703 50.457 6.88778C49.5388 6.629 48.3898 6.34036 47.7074 6.18111C49.1474 6.08655 51.9071 6.77332 53.287 7.54967C54.1801 8.05231 54.9629 8.52509 54.8525 9.22679C54.7471 9.92351 54.6418 10.0081 54.7722 10.2918C54.9027 10.5804 54.9027 10.7845 54.7973 10.8691C54.6969 10.9537 54.6367 11.0034 54.6668 11.2871C54.6919 11.5658 54.5565 11.9341 54.4059 12.1132C54.2554 12.2973 54.1801 12.2625 54.14 12.4367C54.0998 12.6059 54.0798 12.8348 53.869 13.1284C53.6583 13.427 53.5278 13.3822 53.4576 13.4221C53.3873 13.4669 53.2569 13.6261 52.9006 13.7306C52.5444 13.8351 52.0777 13.6709 51.5961 13.5216C51.1093 13.3773 49.8399 12.6805 48.9518 11.8047C48.0636 10.9288 47.3562 10.247 47.1003 9.74933C46.8795 9.32134 46.3075 8.38076 46.5483 7.57953L46.5533 7.56958Z" fill="#1A1A18"/>
<path d="M54.4865 7.94301C54.4865 7.94301 54.8026 7.82855 54.9531 7.60958C55.1037 7.38563 55.199 7.27615 55.4298 7.15173C55.6556 7.02732 55.8162 6.90788 55.7509 6.71877C55.6857 6.53463 55.5 6.38533 55.495 6.27585C55.485 6.16636 55.4649 6.1166 55.2241 6.06683C54.9832 6.01706 53.9847 5.89265 53.6586 5.86777C53.3324 5.84288 52.4293 5.60401 51.8522 5.65377C51.2752 5.70354 50.9842 5.83293 50.643 5.85781C50.3018 5.88767 50.1763 5.9673 49.7649 5.9673C49.3585 5.9673 49.1377 6.00214 49.1377 6.00214C49.1377 6.00214 50.4423 6.10167 51.1598 6.37538C51.8773 6.64412 52.6952 6.84318 53.2622 7.14178C53.8292 7.44535 54.3008 7.78873 54.3008 7.78873L54.4815 7.94799L54.4865 7.94301Z" fill="#1A1A18"/>
<path d="M56.1173 5.98723C56.1173 5.98723 56.7897 6.02704 57.1058 5.94244C57.4219 5.85784 57.5423 5.6737 57.5423 5.45473C57.5423 5.24074 57.5072 4.99191 57.3467 4.8874L57.1861 4.78289C57.1861 4.78289 57.2563 4.91726 57.1209 4.94214C56.9904 4.972 56.594 4.77294 56.1826 4.62862C55.7711 4.48927 55.1239 4.335 54.2357 4.30514C53.3025 4.2703 52.0581 4.42458 50.7886 4.72815C50.4023 4.81773 49.2332 5.15614 48.34 5.69859C48.626 5.60403 49.6697 5.33032 50.1363 5.2905C50.618 5.25069 51.2101 5.04665 51.7068 4.92224C52.7204 4.67341 53.7741 4.40965 54.7927 5.06158C53.5834 4.36983 52.2337 4.84261 50.8789 5.21586C49.9256 5.47962 48.9973 5.47962 48.0791 5.89765C48.7163 5.86779 49.3787 5.63389 50.0109 5.53934C50.9341 5.40497 51.6567 5.16609 53.3326 5.39999C55.0084 5.62891 56.1224 5.98723 56.1224 5.98723H56.1173Z" fill="#1A1A18"/>
<path d="M54.5166 12.4665C54.5166 12.4665 55.2692 12.576 55.4649 12.3869C55.6606 12.1928 55.8111 11.9589 55.781 11.8295L55.7509 11.7001C55.7509 11.7001 55.8061 11.6752 55.9466 11.5458C56.0871 11.4164 56.0871 11.3766 56.0319 11.1875C55.9767 10.9984 55.8864 10.8939 55.9416 10.8093C55.9968 10.7247 56.1875 10.7048 56.2527 10.5854C56.3179 10.4659 56.2627 10.2718 56.1975 10.1026C56.1273 9.93342 56.1022 9.86375 56.1022 9.86375C56.1022 9.86375 56.1825 9.69454 56.2728 9.58506C56.3581 9.48055 56.4634 9.35613 56.3932 9.18693C56.3229 9.01772 55.9366 8.46532 55.7108 8.26626C55.485 8.07217 55.3846 7.94775 55.3846 7.94775C55.3846 7.94775 55.0936 8.20156 54.9832 8.24635L54.8729 8.29612C54.8729 8.29612 55.1287 8.66438 55.204 8.8734C55.2793 9.08242 55.1538 9.6597 55.0886 9.81896C55.0284 9.97821 55.1388 10.227 55.194 10.456C55.2542 10.6849 55.1438 11.0283 55.0384 11.1527C54.9331 11.2771 55.0384 11.4463 54.9732 11.7449C54.903 12.0435 54.913 12.158 54.7474 12.2724C54.5868 12.3819 54.5166 12.4665 54.5166 12.4665Z" fill="#1A1A18"/>
<path d="M49.1227 18.4535C49.1227 18.4535 49.6044 18.762 49.9155 18.6625C50.2316 18.563 50.4725 18.4336 50.6531 18.2146C50.8337 17.9956 50.9542 17.4532 50.7986 17.075C50.6431 16.7017 50.5176 16.3683 50.5176 16.3683C50.5176 16.3683 50.3922 15.8358 50.2969 15.582C50.2065 15.3331 49.9456 14.9997 49.9256 14.7807C49.9105 14.5618 49.9205 14.4274 49.9256 14.1338C49.9356 13.8402 49.8603 13.3624 49.8102 13.1484C49.8102 13.1484 48.8919 12.4865 48.6962 12.2825C48.5006 12.0784 47.9787 11.6206 47.6977 11.2424C47.4167 10.8592 47.2863 10.6104 47.2863 10.6104C47.2863 10.6104 47.2863 11.0184 47.1508 11.4166C47.0204 11.8147 46.8196 12.0187 46.8397 12.4766C46.8598 12.9344 46.7845 13.3475 46.6691 13.4868L46.5537 13.6262C46.5537 13.6262 47.3164 14.8753 47.788 15.3132C48.2547 15.7562 49.1328 16.637 49.3736 17.0799C49.5191 17.3437 49.9707 17.9061 49.8704 18.2345C49.775 18.5331 49.3535 18.6078 49.1127 18.4485L49.1227 18.4535Z" fill="#1A1A18"/>
<path d="M51.3307 18.1052C51.3307 18.1052 51.8726 17.5329 51.8174 17.2641C51.7572 16.9954 51.8174 16.5425 51.5565 16.1344C51.2956 15.7264 50.8791 15.0396 50.9293 14.6813C50.9795 14.3279 51.12 13.7307 51.12 13.7307C51.12 13.7307 51.0949 13.676 50.7386 13.5068C50.3824 13.3426 50.2168 13.1982 50.2168 13.1982C50.2168 13.1982 50.2569 13.7009 50.272 14.109C50.287 14.517 50.1666 14.6614 50.4426 15.3033C50.7236 15.9403 50.8741 16.3982 51.0297 16.7217C51.1852 17.0402 51.3207 17.2641 51.2554 17.6772C51.1952 18.0902 51.3307 18.1002 51.3307 18.1002V18.1052Z" fill="#1A1A18"/>
<path d="M52.0835 17.2792C52.0835 17.2792 52.4247 17.2891 52.5953 17.2543C52.7659 17.2194 52.9314 16.9308 52.8712 16.6272C52.806 16.3187 52.8411 15.9852 52.8461 15.5921C52.8512 15.1989 52.9465 14.6664 52.811 14.4425L52.6755 14.2186C52.6755 14.2186 52.3444 14.1091 52.0935 14.0742C51.8426 14.0344 51.6871 13.9697 51.5265 13.905L51.3659 13.8403C51.3659 13.8403 51.2305 14.0842 51.2355 14.5918C51.2355 15.0994 51.4161 15.4378 51.7021 15.9405C51.9881 16.4431 52.0634 16.6123 52.0283 16.9109C51.9932 17.2045 52.0032 17.324 52.0032 17.324L52.0734 17.2792H52.0835Z" fill="#1A1A18"/>
<path d="M53.0872 15.5572C53.0872 15.5572 53.1374 15.2039 53.1575 14.965C53.1775 14.7311 53.2177 14.5121 53.0922 14.3678L52.9668 14.2185C52.9668 14.2185 53.2127 13.9647 53.4535 13.8851C53.6944 13.8054 53.9452 13.6312 54.0857 13.462C54.2262 13.2928 54.3717 12.9893 54.4018 12.8698C54.4319 12.7504 54.4972 12.626 54.4972 12.626C54.4972 12.626 54.7932 12.7404 54.9789 12.6857C55.1645 12.631 55.2197 12.7106 55.2197 12.7106C55.2197 12.7106 55.3652 12.7305 55.3452 13.0092C55.3301 13.2829 55.1595 13.3177 55.1796 13.5516C55.1996 13.7805 55.1545 13.9249 55.2799 14.0692L55.4054 14.2135C55.4054 14.2135 55.4154 14.318 55.2548 14.3479L55.0943 14.3777C55.0943 14.3777 55.2197 14.5221 55.1244 14.7261C55.029 14.9301 54.9989 14.8356 54.7782 14.8953C54.5524 14.95 54.437 15.1392 54.2463 15.1939C54.0606 15.2486 54.1409 15.0645 53.7947 15.2337C53.4485 15.3979 53.0973 15.5622 53.0973 15.5622L53.0872 15.5572Z" fill="#1A1A18"/>
<path d="M55.4549 13.7156C55.4549 13.7156 55.8262 13.5713 55.9366 13.5215C56.047 13.4718 56.0068 13.4369 55.9968 13.3225C55.9867 13.208 55.9416 13.0935 56.072 13.0637C56.2025 13.0338 56.1925 12.9144 56.1072 12.8049C56.0219 12.6954 55.8764 12.4914 55.9566 12.3471C56.0419 12.2027 56.2075 12.1331 56.1724 11.9191L56.1373 11.7051L56.0018 11.8743C56.0018 11.8743 55.9817 11.8544 55.9065 12.153C55.8362 12.4516 55.8613 12.5063 55.6957 12.581L55.5301 12.6556C55.5301 12.6556 55.5301 12.8298 55.5452 13.1035C55.5653 13.3772 55.5101 13.3971 55.4499 13.5614L55.3896 13.7206H55.4649L55.4549 13.7156Z" fill="#1A1A18"/>
<path fill-rule="evenodd" clip-rule="evenodd" d="M44.8325 7.75879C44.3157 8.60979 43.9293 9.38116 43.282 10.0132C42.4391 10.8343 41.576 10.8443 40.6729 11.6206C40.8234 10.904 40.9438 10.063 41.4707 9.48069C42.2082 8.66951 43.5128 8.75411 44.2655 8.17682C43.573 8.76904 42.2885 8.95815 41.9875 10.2222C43.0211 9.88878 43.9945 8.97308 44.8325 7.75879Z" fill="#1A1A18"/>
<path fill-rule="evenodd" clip-rule="evenodd" d="M45.7861 6.88776C46.7746 5.40971 47.5122 4.06105 48.7064 2.9861C50.2669 1.5827 51.8123 1.63246 53.4731 0.303711C53.157 1.56777 52.8811 3.06573 51.9026 4.06602C50.5278 5.46445 48.2096 5.21064 46.8298 6.18606C48.1093 5.18576 50.4124 4.93195 51.0396 2.70243C49.168 3.22 47.3717 4.78265 45.7962 6.88278L45.7861 6.88776Z" fill="#1A1A18"/>
<path fill-rule="evenodd" clip-rule="evenodd" d="M24.3457 8.32124C24.8625 8.48547 25.289 8.6696 25.7807 8.69946C26.418 8.7343 26.7893 8.42078 27.4366 8.42078C27.1255 8.17692 26.7793 7.8634 26.3578 7.81363C25.7657 7.74396 25.2489 8.25655 24.7321 8.29138C25.2288 8.28143 25.8359 7.89326 26.4029 8.31129C25.851 8.55017 25.1234 8.52528 24.3507 8.32124H24.3457Z" fill="#1A1A18"/>
<path fill-rule="evenodd" clip-rule="evenodd" d="M24.9531 8.26123C25.1287 8.61955 25.2542 8.94303 25.49 9.22171C25.7961 9.58003 26.1423 9.61984 26.4735 9.96821C26.4383 9.67459 26.4233 9.33618 26.2326 9.08237C25.9667 8.72903 25.4449 8.7141 25.1639 8.45034C25.4198 8.7141 25.9265 8.83852 26.0018 9.35608C25.6004 9.1819 25.2441 8.7788 24.9531 8.26123Z" fill="#1A1A18"/>
<path d="M20.1615 6.05175C20.1615 6.05175 20.1565 5.76809 20.3723 5.71832C20.5931 5.66855 20.859 5.7432 20.9794 5.81288C21.0998 5.88255 21.15 5.85766 21.3056 5.91241C21.4611 5.97213 21.4711 5.95222 21.5765 6.03682C21.6819 6.12142 21.727 6.14631 21.9077 6.12142C22.0933 6.10152 22.4446 6.12142 22.5901 6.1911C22.7356 6.26077 22.7958 6.40509 22.9664 6.49965C23.1621 6.60913 23.5033 6.73852 23.5836 6.9774C23.6137 7.062 23.5836 7.14163 23.5936 7.22623C23.2123 7.13665 22.9714 6.69871 22.6302 6.54941C22.3492 6.425 21.9779 6.26575 21.6718 6.25579C22.1987 6.37025 22.1987 6.41007 22.4295 6.49467C22.5851 6.54941 22.7908 6.68876 22.9313 6.80322C23.0768 6.92763 23.3427 7.25609 23.6036 7.34069C23.4431 7.34069 23.0266 7.08191 22.8811 7.062C22.4345 7.00228 21.3457 6.17119 20.9593 6.03185C21.5213 6.3603 23.0166 7.38548 23.5886 7.42529C23.2976 7.40539 23.1019 7.56464 22.2188 7.42032C22.5399 7.54473 23.2022 7.59948 23.4832 7.55469C23.7241 7.51487 23.7843 7.66417 23.9498 7.79854C23.9498 7.79854 23.3076 8.05235 22.9965 7.93788C22.6854 7.82342 22.1987 7.65422 21.8575 7.35562C21.5213 7.062 21.0697 6.58923 20.9092 6.42997C20.7536 6.27072 20.6432 6.22096 20.4425 6.15626C20.2368 6.09156 20.1465 6.0418 20.1465 6.0418L20.1615 6.05175Z" fill="#1A1A18"/>
<path d="M24.1296 7.80361C23.8286 7.26614 23.8838 6.18124 24.0644 5.64874C23.9841 6.20115 23.9289 7.17656 24.2501 7.77873C24.4257 7.5299 24.4457 6.72369 24.4909 6.41514C24.5461 6.02199 24.6615 5.11625 24.7368 4.73305C24.797 4.40957 24.7719 4.5738 24.802 4.29013C24.5913 5.33024 24.5712 6.79336 24.4156 7.8484C24.4909 7.32088 24.8823 6.84811 25.0328 6.34547C25.1884 5.82293 25.3038 5.11127 25.4392 4.39962C25.1582 6.8282 24.7869 7.50502 24.5561 7.88324C25.0428 7.45027 25.2385 7.18651 25.4392 6.90285C25.6399 6.61918 25.8858 6.13645 26.1467 5.52433C25.9862 5.97222 25.6199 6.75355 25.4894 6.95759C25.2787 7.28605 25.0077 7.68418 24.8421 7.91808C25.2987 7.55478 25.9561 6.59928 26.1718 5.99213C26.3123 5.59898 26.4227 5.24564 26.212 5.06151C26.0012 4.88235 25.946 4.88235 25.9109 4.76291C25.8758 4.63849 25.8256 4.57878 25.7704 4.58375C25.7202 4.58375 25.6901 4.58375 25.6249 4.49417C25.5597 4.40459 25.4242 4.32497 25.3339 4.31502C25.2435 4.30009 25.2285 4.32995 25.1733 4.29013C25.1181 4.25032 25.0529 4.18562 24.9124 4.15576C24.7719 4.12093 24.7418 4.17069 24.7117 4.18065C24.6816 4.18562 24.5963 4.17567 24.4658 4.24037C24.3303 4.30506 24.235 4.47924 24.1246 4.6584C24.0192 4.83258 23.8135 5.38996 23.7684 5.8926C23.7282 6.39524 23.6881 6.79336 23.7383 7.01731C23.7834 7.20642 23.8486 7.64436 24.1296 7.82352V7.80361Z" fill="#1A1A18"/>
<path d="M26.4282 5.53921C26.4282 5.53921 26.5537 5.48944 26.654 5.51433C26.7544 5.53921 26.8146 5.54916 26.9149 5.52428C27.0153 5.4994 27.0956 5.48944 27.1257 5.56907C27.1558 5.64372 27.1357 5.73827 27.1608 5.77311C27.1859 5.80795 27.1959 5.82785 27.1307 5.90748C27.0705 5.9871 26.7995 6.29565 26.7092 6.39519C26.6189 6.48974 26.4082 6.80824 26.2225 6.94759C26.0369 7.08693 25.9114 7.13172 25.806 7.21135C25.6957 7.29595 25.6354 7.3059 25.515 7.41539C25.3946 7.52487 25.3193 7.57464 25.3193 7.57464C25.3193 7.57464 25.6856 7.19144 25.8362 6.91275C25.9817 6.63406 26.1774 6.35537 26.2727 6.11152C26.368 5.86767 26.4182 5.63376 26.4182 5.63376L26.4333 5.53423L26.4282 5.53921Z" fill="#1A1A18"/>
<path d="M27.4269 5.68324C27.4269 5.68324 27.6176 5.48915 27.738 5.42944C27.8534 5.36972 27.9387 5.3946 27.9939 5.4593C28.0491 5.52399 28.1043 5.60859 28.0792 5.68324L28.0591 5.75789C28.0591 5.75789 28.0441 5.69817 27.9989 5.72803C27.9537 5.75291 27.8835 5.92212 27.7982 6.07639C27.7079 6.23067 27.5523 6.44964 27.2914 6.70345C27.0205 6.96721 26.604 7.25585 26.1424 7.50966C26.0019 7.58928 25.5603 7.80327 25.1539 7.87792C25.2643 7.82816 25.6506 7.62909 25.8012 7.51463C25.9567 7.39519 26.1875 7.29566 26.3682 7.20111C26.7395 7.00204 27.1258 6.79302 27.2663 6.32025C27.0807 6.85772 26.5488 7.08167 26.042 7.33547C25.6858 7.51463 25.4098 7.76844 25.0234 7.88788C25.2241 7.72365 25.4851 7.61416 25.7008 7.46984C26.0119 7.26083 26.2929 7.13641 26.7395 6.60889C27.186 6.08635 27.4319 5.67329 27.4319 5.67329L27.4269 5.68324Z" fill="#1A1A18"/>
<path d="M25.2686 4.16073C25.2686 4.16073 25.4693 3.92186 25.5746 3.92683C25.685 3.92683 25.7904 3.96167 25.8155 4.01144L25.8406 4.05623C25.8406 4.05623 25.8606 4.04627 25.9359 4.05125C26.0112 4.05125 26.0212 4.0612 26.0563 4.13585C26.0914 4.20552 26.0864 4.26524 26.1266 4.2752C26.1667 4.28515 26.2269 4.24036 26.2771 4.26027C26.3273 4.28017 26.3624 4.34985 26.3825 4.41952C26.4076 4.48919 26.4126 4.51905 26.4126 4.51905C26.4126 4.51905 26.4828 4.54891 26.538 4.55886C26.5932 4.56882 26.6534 4.57877 26.6785 4.64844C26.7036 4.71811 26.7237 4.99183 26.7136 5.11127C26.6936 5.2307 26.6986 5.2954 26.6986 5.2954C26.6986 5.2954 26.5481 5.2954 26.4979 5.31033L26.4527 5.32526C26.4527 5.32526 26.4377 5.1461 26.4025 5.0615C26.3724 4.9769 26.1868 4.83755 26.1216 4.80769C26.0613 4.77783 26.0312 4.66835 25.9911 4.58872C25.951 4.50412 25.8305 4.42947 25.7653 4.41952C25.7001 4.40957 25.69 4.32994 25.5897 4.26027C25.4893 4.19059 25.4642 4.15078 25.389 4.16073C25.3087 4.17069 25.2686 4.16073 25.2686 4.16073Z" fill="#1A1A18"/>
<path d="M22.0977 3.81735C22.0977 3.81735 22.1629 3.5934 22.2833 3.53866C22.4037 3.48391 22.5091 3.45405 22.6195 3.47396C22.7299 3.48889 22.9055 3.62326 22.9557 3.77753C23.0058 3.93181 23.051 4.06618 23.051 4.06618C23.051 4.06618 23.1514 4.26026 23.1865 4.3598C23.2266 4.45933 23.2316 4.63351 23.2818 4.70318C23.332 4.77285 23.3721 4.81267 23.4524 4.89727C23.5327 4.98187 23.6331 5.1461 23.6732 5.22572C23.6732 5.22572 23.5678 5.67362 23.5628 5.78808C23.5578 5.90254 23.5176 6.18123 23.5327 6.37532C23.5478 6.56443 23.5728 6.67889 23.5728 6.67889C23.5728 6.67889 23.4675 6.55945 23.322 6.46988C23.1815 6.38527 23.0661 6.3803 22.9557 6.23598C22.8403 6.09165 22.7148 5.98715 22.6446 5.97719L22.5743 5.96724C22.5743 5.96724 22.484 5.38498 22.5141 5.12122C22.5392 4.86243 22.5793 4.35482 22.5392 4.15576C22.5141 4.03632 22.5091 3.7427 22.3887 3.67303C22.2833 3.60833 22.1378 3.70288 22.1027 3.81237L22.0977 3.81735Z" fill="#1A1A18"/>
<path d="M22.851 3.32471C22.851 3.32471 23.1621 3.34959 23.2122 3.44912C23.2624 3.54865 23.3979 3.66809 23.423 3.86218C23.4481 4.05627 23.5033 4.37477 23.6086 4.46933C23.714 4.56388 23.9097 4.70323 23.9097 4.70323C23.9097 4.70323 23.9147 4.72811 23.8545 4.87243C23.7893 5.01675 23.7742 5.10633 23.7742 5.10633C23.7742 5.10633 23.6588 4.9421 23.5534 4.81769C23.4531 4.6883 23.3778 4.67834 23.2975 4.40961C23.2173 4.14087 23.147 3.96171 23.1119 3.82237C23.0768 3.68302 23.0617 3.57851 22.9313 3.47401C22.8058 3.36452 22.846 3.32471 22.846 3.32471H22.851Z" fill="#1A1A18"/>
<path d="M23.2918 3.36928C23.2918 3.36928 23.3922 3.27473 23.4524 3.23491C23.5126 3.20008 23.638 3.23989 23.6983 3.34937C23.7585 3.45886 23.8538 3.55342 23.9592 3.66788C24.0645 3.78234 24.2301 3.92168 24.2452 4.02619L24.2652 4.1307C24.2652 4.1307 24.195 4.25512 24.1298 4.33474C24.0645 4.41437 24.0344 4.47906 23.9993 4.53878L23.9692 4.5985C23.9692 4.5985 23.8638 4.56367 23.7334 4.40939C23.6029 4.25512 23.5678 4.10582 23.5277 3.87689C23.4825 3.64797 23.4624 3.5783 23.3771 3.4937C23.2918 3.41407 23.2617 3.37426 23.2617 3.37426H23.2968L23.2918 3.36928Z" fill="#1A1A18"/>
<path d="M24.04 3.61806C24.04 3.61806 24.1454 3.71261 24.2157 3.77731C24.2809 3.842 24.3511 3.89675 24.3511 3.97637V4.056C24.3511 4.056 24.4916 4.06595 24.5819 4.02614C24.6773 3.98632 24.7977 3.97139 24.883 3.98135C24.9683 3.99628 25.0937 4.04604 25.1339 4.0759C25.174 4.10576 25.2242 4.12567 25.2242 4.12567C25.2242 4.12567 25.2844 4.01121 25.3547 3.97637C25.4249 3.94153 25.4199 3.90172 25.4199 3.90172C25.4199 3.90172 25.46 3.85693 25.3797 3.77731C25.3045 3.69768 25.2443 3.73749 25.1891 3.65787C25.1339 3.58322 25.0837 3.55336 25.0837 3.47373V3.39411C25.0837 3.39411 25.0636 3.35927 25.0034 3.39411L24.9482 3.42894C24.9482 3.42894 24.9482 3.34932 24.8679 3.31448C24.7877 3.27965 24.8027 3.31448 24.7174 3.35927C24.6371 3.40406 24.5518 3.37918 24.4816 3.41402C24.4113 3.44885 24.4816 3.47871 24.3361 3.5235C24.1906 3.56829 24.04 3.61308 24.04 3.61308V3.61806Z" fill="#1A1A18"/>
<path d="M25.2292 3.53361C25.2292 3.53361 25.3797 3.47887 25.4249 3.46394C25.47 3.44901 25.47 3.46892 25.4951 3.50873C25.5252 3.54357 25.5403 3.59333 25.5854 3.56845C25.6306 3.54357 25.6607 3.5784 25.6607 3.63812C25.6607 3.69286 25.6707 3.79737 25.731 3.81728C25.7962 3.83719 25.8614 3.81728 25.9066 3.88695L25.9517 3.9616L25.8664 3.94667C25.8664 3.94667 25.8664 3.95662 25.7661 3.88695C25.6657 3.81728 25.6607 3.7924 25.5905 3.81728L25.5202 3.83719C25.5202 3.83719 25.4751 3.78742 25.4098 3.69784C25.3446 3.60826 25.3245 3.61822 25.2643 3.58836L25.2041 3.55352L25.2292 3.53361Z" fill="#1A1A18"/>
<path fill-rule="evenodd" clip-rule="evenodd" d="M23.5576 8.21165C23.1813 8.09718 22.8652 7.96779 22.5089 7.95286C22.0423 7.93296 21.7814 8.16686 21.3047 8.17681C21.5355 8.35099 21.7914 8.57494 22.0975 8.6048C22.529 8.64959 22.9003 8.27136 23.2766 8.2415C22.9153 8.25146 22.4788 8.5401 22.0624 8.2415C22.4638 8.06235 22.9906 8.0723 23.5576 8.21165Z" fill="#1A1A18"/>
<path fill-rule="evenodd" clip-rule="evenodd" d="M19.79 9.72437C20.8588 11.0531 23.9898 10.441 24.0199 8.15674C24.1654 8.52998 24.2256 8.91816 24.035 9.24661C24.4865 9.15206 25.1037 9.11722 25.5051 9.37601C25.9115 9.63479 26.4083 10.3664 25.5402 10.4659C25.5402 11.4662 23.9848 11.506 24.0299 10.3464C24.0249 10.3415 24.1604 10.2469 24.1654 10.2419C24.1855 11.1576 25.2492 11.0481 25.2241 10.2618C25.199 9.30633 24.2106 9.54023 23.769 9.80399C22.5397 10.5356 21.0746 11.1377 19.8553 9.87864L19.79 9.72437Z" fill="#1A1A18"/>
<path fill-rule="evenodd" clip-rule="evenodd" d="M19.5586 9.62012C19.8898 10.2024 20.1256 10.7249 20.5471 11.1579C21.089 11.7252 21.671 11.7501 22.2531 12.2926C22.1678 11.8098 22.1076 11.2425 21.7664 10.8444C21.2897 10.287 20.4166 10.3168 19.9299 9.90876C20.3815 10.3168 21.2345 10.4761 21.4101 11.3271C20.7277 11.0832 20.0955 10.4462 19.5636 9.62012H19.5586Z" fill="#1A1A18"/>
<path fill-rule="evenodd" clip-rule="evenodd" d="M15.3792 16.5128C16.4429 12.8351 14.8774 9.06779 10.9837 7.89828C7.62191 6.88306 4.516 7.63452 2.1828 9.54554C3.63792 7.52006 6.66856 6.98757 9.02183 6.57451C12.1579 6.0221 15.344 7.74401 17.2909 10.2224C20.0857 13.7856 22.6096 25.391 29.0422 21.9572L28.42 22.206C22.459 24.0474 20.166 12.2976 17.3712 8.72938C15.4293 6.25103 11.8568 4.46443 8.71576 5.01683C5.75536 5.5344 2.28316 6.02211 1.65093 9.6401L1.59072 10.0631C0.998643 10.6354 0.461757 11.2824 -0.00488281 12.004L0.371439 11.8995C0.712638 11.7651 1.05885 11.581 1.41009 11.367V11.4118C1.41009 11.4118 1.41009 11.3819 1.41009 11.367C2.80499 10.521 4.28017 9.24197 5.8808 9.0429C7.31584 8.86375 8.43477 8.79407 9.87483 8.92844C12.5693 9.18722 14.9477 11.1082 14.6767 13.9996C14.4609 16.3386 12.6195 17.6723 10.4769 16.5874C8.71576 15.6966 7.78248 12.8251 10.196 12.213C7.54163 11.4267 6.43274 15.2238 7.55167 17.0851C9.37808 20.1258 14.3907 19.9317 15.3792 16.5128ZM22.1881 14.1788H22.1781C22.4038 14.5669 22.6447 14.8805 22.8906 15.1343C24.145 16.8064 25.3392 18.2048 26.5434 18.8966C28.5003 20.0213 30.1962 20.4941 31.6162 20.5936C31.2048 20.8673 30.6528 20.6434 30.1862 20.6832C29.1726 20.7728 28.9418 21.4794 28.2644 22.1164C28.3849 22.002 28.8365 21.7631 28.997 21.7382C29.1676 21.7084 29.278 21.788 29.4586 21.7581C29.9453 21.6785 30.427 21.3699 30.8786 21.0763C30.2163 21.8776 28.9017 22.6091 27.8229 22.5643C29.1977 23.0819 31.26 22.0318 31.8771 20.6085C33.7035 20.6782 35.0533 20.1158 35.8862 19.5286C38.4452 17.7271 39.9806 13.4472 38.7111 10.3916C37.4317 7.31104 34.6017 4.98697 31.4406 5.85788C30.713 5.83299 30.2213 5.41496 30.1159 5.04669C29.9654 4.5341 30.1611 4.02151 30.5073 3.93193C30.8535 3.81747 30.9589 3.94189 30.974 4.0663C31.0041 4.18574 30.8887 4.18574 30.7933 4.18076C30.6077 4.15588 30.4019 4.37983 30.4822 4.66847C30.5725 4.94716 30.7883 5.0865 31.1345 4.97204C31.4657 4.86753 31.5961 4.49429 31.5159 4.18076C31.4155 3.84235 31.0091 3.52883 30.4622 3.70301C29.9253 3.86724 29.6894 4.52912 29.85 5.10641C29.9504 5.45477 30.3167 5.87281 30.9639 6.0022C30.698 6.10173 30.4321 6.22117 30.1661 6.36549C28.0888 7.50016 26.2925 11.0634 28.4651 13.3327L28.144 12.9247C27 10.4115 28.0587 8.17697 29.7246 6.96766C28.3447 8.5552 28.8766 11.5362 30.8385 12.5016H30.8485C28.8465 11.4864 28.3598 8.36608 29.9052 6.83329C30.0306 6.74869 30.1561 6.67404 30.2916 6.59939C33.9695 4.57391 37.3564 7.34588 38.4854 10.6752C39.5039 13.6612 38.1642 17.3986 35.7307 19.1106C34.9529 19.658 33.6835 20.2452 31.9775 20.2651C32.0076 20.1457 32.0327 20.0263 32.0377 19.9068C31.9925 20.0511 31.9424 20.1656 31.8872 20.2651C30.4722 20.2651 28.7612 19.867 26.7792 18.7274C26.3628 18.4885 25.9463 18.16 25.5298 17.7619C26.8796 18.6776 28.5053 19.2599 30.0708 19.4888C32.4993 19.8421 36.9148 17.9809 36.383 14.0842C36.4382 15.6568 36.1672 16.3685 35.1336 17.4982C34.3157 18.3939 33.252 18.8767 32.0929 19.1554C29.9755 19.663 28.3748 18.9364 26.5283 17.8614C25.6352 17.3439 24.727 16.7268 23.9593 15.9803C23.9192 15.9255 23.874 15.8758 23.8389 15.821C24.5765 16.1694 25.2589 16.0699 25.6553 15.821C26.3728 15.3532 26.7441 14.3977 26.3176 13.6811C25.8861 12.9396 25.1485 12.8799 24.717 13.1486C24.3356 13.4124 24.1199 13.9498 24.3808 14.3928C24.6517 14.8655 25.0231 14.9203 25.3843 14.7113C25.7456 14.4774 25.7406 14.0245 25.5098 13.8702C25.3944 13.7757 25.2789 13.6612 25.4194 13.5617C25.5549 13.4372 25.7857 13.4074 26.0517 13.8752C26.3427 14.3131 26.0768 15.0696 25.4295 15.4777C24.9879 15.7613 24.1149 15.7464 23.3221 15.1343C19.037 9.29671 14.0144 -0.263344 3.86371 5.1512L2.64944 7.107C12.2783 -0.581847 17.7023 7.99782 22.1931 14.1788H22.1881ZM27.6172 12.2379C27.5519 13.9001 29.6192 15.8111 31.2198 15.4229C30.0557 15.4229 30.2414 14.5022 29.9955 13.8951C29.6192 12.9694 28.9217 12.9595 28.149 12.5166C28.2895 12.5962 28.6307 12.9495 28.701 13.0939C28.7762 13.2432 28.7411 13.3725 28.8164 13.5318C29.0321 13.9648 29.4486 14.3281 29.84 14.6615C28.9318 14.2783 27.8931 13.2631 27.6172 12.2379ZM33.829 12.1234C33.9293 11.9841 33.9946 11.8198 34.0197 11.6556C34.0598 11.4715 34.0498 11.2874 33.9594 11.1381L33.9394 11.1181C33.8892 11.0286 33.8139 10.9489 33.7186 10.8892C33.7086 10.8892 33.7036 10.8793 33.6985 10.8743C33.6985 10.8743 33.6734 10.8643 33.6584 10.8594L33.6132 10.8395C33.6484 10.8544 33.6785 10.8793 33.7086 10.8992L33.8491 11.0385C33.8491 11.0385 33.8591 11.0535 33.8641 11.0584C33.9394 11.2127 33.8691 11.3819 33.6835 11.4715C33.9795 11.7552 33.5982 12.3225 33.3473 12.5215C33.3473 12.5215 33.3573 12.5215 33.3573 12.5166C32.6398 13.0093 31.6062 12.8898 30.8535 12.5166C30.8636 12.5215 30.8736 12.5315 30.8836 12.5365C31.8069 12.9893 33.1416 13.074 33.819 12.1234H33.829ZM33.3473 12.5215C33.3373 12.5215 33.3373 12.5265 33.3473 12.5215V12.5215ZM36.388 14.0344C36.388 14.0344 36.393 14.0842 36.398 14.1091C36.398 14.0742 36.398 14.0444 36.398 14.0096V14.0344H36.388ZM36.097 14.4176C36.1271 14.2484 36.2274 14.1688 36.2575 13.9946C36.3378 13.5169 36.2174 12.9694 36.0919 12.4618C36.5987 13.3228 36.8396 14.7759 36.4632 15.7713C37.4868 14.4823 36.9399 11.6805 35.4346 11.0087C36.3679 11.7203 35.6855 12.3474 35.53 12.9844C35.2941 13.9548 35.8511 14.3928 36.2074 15.2189C36.1421 15.0696 36.0719 14.5769 36.102 14.4176H36.097Z" fill="#1A1A18"/>
<path fill-rule="evenodd" clip-rule="evenodd" d="M32.8154 18.8265C34.3659 17.2539 38.3298 18.4533 38.0789 21.4044C38.3148 20.9416 38.4402 20.4489 38.2345 20.001C38.8015 20.1802 39.5993 20.3046 40.1512 20.0259C40.7132 19.7422 41.4357 18.8663 40.3318 18.6225C40.4573 17.3335 38.4502 17.0748 38.3699 18.5827C38.3599 18.5926 38.5255 18.727 38.5305 18.7369C38.671 17.5575 40.0308 17.8362 39.9053 18.8514C39.7548 20.0856 38.5104 19.6477 37.9685 19.2495C36.4733 18.1447 34.6569 17.1743 32.9208 18.6424L32.8154 18.8315V18.8265Z" fill="#1A1A18"/>
<path d="M87.9894 17.6322C86.0776 20.653 83.8699 24.694 81.3661 29.7502C80.0916 32.3131 78.9426 34.8412 77.929 37.3345C76.8201 40.0916 76.2632 41.8583 76.2632 42.6296C76.2632 43.2816 76.5592 43.61 77.1513 43.61C78.2602 43.61 79.7755 42.8337 81.6872 41.2859C83.5036 39.8328 84.7128 38.5239 85.2999 37.3644C85.6562 37.2449 85.8769 37.3644 85.9723 37.7277C85.2397 39.0365 83.9401 40.4399 82.0736 41.9429C80.0665 43.5652 78.4258 44.3764 77.1513 44.3764C75.0238 44.3764 73.9651 43.2268 73.9651 40.9227C73.9651 39.8079 74.3565 38.3945 75.1342 36.6726C75.6309 35.533 76.5391 33.8161 77.8638 31.5119C79.4243 28.8743 81.05 26.1123 82.751 23.2308L82.3596 23.4846C80.6837 25.8087 78.0846 29.3222 74.5672 34.0201C73.0569 35.9361 71.0498 38.1358 68.546 40.634C66.5139 42.6446 65.2645 43.8091 64.7929 44.1226C64.557 44.2918 64.3814 44.3416 64.261 44.2669C64.0954 44.1724 64.1054 43.9534 64.2961 43.615C64.9334 42.5998 66.0673 40.5594 67.6931 37.5087C69.7453 33.2239 71.6219 29.576 73.3228 26.5701C74.3414 24.8034 75.4905 22.8427 76.7649 20.6878L76.5191 20.653C74.3213 23.0766 70.8642 26.9882 66.1376 32.3878C63.6087 35.3688 60.5279 37.9218 56.8901 40.0517C52.023 42.9332 47.1459 44.3764 42.2587 44.3764C39.3284 44.3764 36.9701 43.7344 35.1738 42.4505C33.2621 41.0968 32.3037 39.2306 32.3037 36.8568C32.3037 33.5374 34.2305 30.6908 38.079 28.3169C41.7619 26.0625 45.9768 24.9378 50.7284 24.9378C52.876 24.9378 54.8379 25.1817 56.6091 25.6644C57.9538 26.0526 58.8771 26.4656 59.3738 26.8986C59.3989 26.9732 59.3136 27.0429 59.128 27.1176C58.9423 27.1922 58.7366 27.2022 58.5258 27.1524C56.87 26.2317 54.4164 25.7739 51.1549 25.7739C47.0907 25.7739 43.197 27.0429 39.4639 29.576C35.7308 32.1141 33.8642 34.7765 33.8642 37.5684C33.8642 41.5995 36.6992 43.61 42.3691 43.61C46.3581 43.61 50.4926 42.4803 54.7676 40.2259C58.7567 38.1407 62.1937 35.4583 65.0789 32.1837C72.8512 23.3552 77.3971 18.4583 78.7168 17.4878C78.9275 17.3435 79.3289 17.1992 79.921 17.0499C80.3927 16.9305 80.6285 17.025 80.6285 17.3385C80.6285 17.4132 80.5783 17.4978 80.488 17.5923C79.8257 18.1995 78.6465 20.1702 76.9456 23.5145C75.5757 26.3711 73.6389 30.2727 71.1351 35.2145C69.8356 37.4938 68.807 39.0913 68.0543 40.0119L68.1597 40.1214C68.4909 39.8328 69.4994 38.6832 71.1803 36.6776C73.3128 34.1395 75.2546 31.696 77.0058 29.3521C79.7906 25.6694 82.6757 21.8623 85.6712 17.9357C85.8368 17.7267 86.2583 17.4878 86.9407 17.229C87.2919 17.1146 87.588 17.0549 87.8238 17.0549C88.2001 17.0549 88.2603 17.249 87.9994 17.6371L87.9894 17.6322Z" fill="#1A1A18"/>
<path d="M97.7984 33.4778C97.7984 33.5525 97.7282 33.6968 97.5877 33.9158C97.5425 33.9904 96.9153 35.4535 95.7111 38.3051C94.6473 40.8183 94.1155 42.3411 94.1155 42.8786C94.1155 43.2469 94.2559 43.426 94.542 43.426C95.0839 43.426 95.982 42.6497 97.2364 41.102C97.3318 41.0771 97.4321 41.1119 97.5375 41.2115C97.6428 41.311 97.683 41.4155 97.6629 41.5399C96.3884 43.4061 95.0638 44.3368 93.694 44.3368C92.5851 44.3368 92.0281 43.7694 92.0281 42.6298C92.0281 42.2416 92.2188 41.53 92.5951 40.4849C90.6583 43.0528 89.1129 44.3368 87.9538 44.3368C86.7496 44.3368 86.1475 43.5704 86.1475 42.0326C86.1475 39.8877 87.1761 37.8423 89.2283 35.8915C91.2102 34.0153 93.2524 33.0747 95.3548 33.0747C96.4185 33.0747 97.1862 33.1494 97.6579 33.2937C97.7532 33.3434 97.7984 33.4032 97.7984 33.4778ZM94.7878 34.6772C94.7878 34.2392 94.6222 34.0203 94.2911 34.0203C93.3227 34.0203 92.0181 35.1898 90.3773 37.5337C88.7366 39.8777 87.9137 41.6245 87.9137 42.7691C87.9137 43.2071 88.1043 43.426 88.4807 43.426C89.0928 43.426 90.3372 42.2167 92.1987 39.8031C93.0467 38.6784 93.694 37.6681 94.1305 36.7624C94.567 35.8616 94.7878 35.1649 94.7878 34.6772Z" fill="#1A1A18"/>
<path d="M113.955 23.7388C112.656 26.9835 110.674 31.8407 108.004 38.3053C106.941 40.8334 106.409 42.3712 106.409 42.9087C106.409 43.2769 106.514 43.4611 106.725 43.4611C107.126 43.4611 107.658 43.1227 108.32 42.4508C108.722 42.0278 109.123 41.5899 109.525 41.137C109.786 41.137 109.916 41.2813 109.916 41.5749C108.642 43.4412 107.332 44.3718 105.982 44.3718C104.944 44.3718 104.422 43.8492 104.422 42.8091C104.422 42.3264 104.612 41.56 104.989 40.5199C103.052 43.0878 101.516 44.3718 100.383 44.3718C99.8607 44.3718 99.4292 44.1329 99.088 43.6601C98.7468 43.1874 98.5762 42.5802 98.5762 41.8487C98.5762 40.0919 99.4342 38.2655 101.15 36.3644C103.077 34.2195 105.265 33.1446 107.713 33.1446C107.663 33.1346 107.738 33.1296 107.924 33.1296C110.302 27.4961 111.597 24.4455 111.813 23.9876C111.908 23.8184 111.988 23.699 112.064 23.6243C112.134 23.5497 112.264 23.485 112.455 23.4253C112.646 23.3656 112.977 23.276 113.453 23.1565C113.835 23.062 114.02 23.1665 114.02 23.485C114.02 23.5596 113.995 23.6442 113.95 23.7388H113.955ZM107.297 34.752C107.297 34.3141 107.096 34.0951 106.695 34.0951C105.701 34.0951 104.382 35.3293 102.726 37.7927C101.145 40.1616 100.352 41.8337 100.352 42.8091C100.352 43.2471 100.493 43.466 100.779 43.466C101.486 43.466 102.761 42.2567 104.607 39.8431C105.48 38.7184 106.133 37.7181 106.554 36.8422C107.051 35.7672 107.297 35.0705 107.297 34.757V34.752Z" fill="#1A1A18"/>
<path d="M123.665 24.5C123.665 25.2017 123.344 26.1821 122.707 27.4412C122.115 28.6057 121.397 29.7056 120.544 30.7457C119.079 32.587 117.483 34.075 115.762 35.2147C113.73 39.8877 112.717 42.5303 112.717 43.1324C112.717 43.4957 112.882 43.6749 113.213 43.6749C113.71 43.6749 114.357 43.3962 115.16 42.8388C115.843 42.381 116.304 41.9779 116.54 41.6394C116.896 41.6892 117.072 41.8335 117.072 42.0774C116.741 42.5153 116.269 42.9483 115.657 43.3862C114.734 44.0183 113.826 44.3318 112.927 44.3318C111.673 44.3318 111.051 43.7645 111.051 42.6248C111.051 41.729 111.698 39.7185 112.998 36.5932C114.157 33.7814 115.23 31.4822 116.219 29.6906C117.162 27.9737 118.191 26.4956 119.3 25.2565C120.574 23.8531 121.663 23.1514 122.561 23.1514C123.294 23.1514 123.66 23.5993 123.66 24.4951L123.665 24.5ZM122.391 24.4652C122.391 24.1965 122.285 24.0671 122.069 24.0671C121.789 24.0671 121.222 24.6792 120.369 25.9034C119.521 27.1277 118.798 28.4166 118.206 29.7702L116.4 33.8013C117.89 32.5422 119.129 31.1139 120.118 29.5164C121.628 27.0928 122.386 25.4107 122.386 24.4652H122.391Z" fill="#1A1A18"/>
<path d="M127.453 34.6724C127.453 36.245 126.565 37.6633 124.794 38.9224C123.379 39.8928 122.079 40.4353 120.895 40.5597C120.614 41.336 120.469 41.9283 120.469 42.3413C120.469 43.1873 120.905 43.6103 121.778 43.6103C122.486 43.6103 123.289 43.2819 124.187 42.63C124.894 42.0975 125.436 41.565 125.817 41.0325C126.124 40.8633 126.314 40.9727 126.384 41.3609C125.983 41.9432 125.426 42.5105 124.719 43.0679C123.61 43.889 122.521 44.3021 121.457 44.3021C119.636 44.3021 118.728 43.3814 118.728 41.5401C118.728 39.6987 119.52 37.7927 121.101 35.8916C122.681 33.9906 124.172 33.04 125.567 33.04C126.816 33.04 127.443 33.5825 127.443 34.6724H127.453ZM125.963 34.4534C125.963 33.9955 125.797 33.7616 125.471 33.7616C124.98 33.7616 124.277 34.4385 123.359 35.7971C122.516 37.0064 121.788 38.3302 121.181 39.7585C122.235 39.7087 123.299 39.0816 124.362 37.8673C125.431 36.658 125.963 35.5184 125.963 34.4534Z" fill="#1A1A18"/>
<path d="M139.249 33.5075C139.249 33.4329 139.083 33.7364 138.752 34.4182C138.256 35.4335 137.593 36.9015 136.77 38.8126C135.732 41.2113 135.21 42.5898 135.21 42.9531C135.21 43.3164 135.421 43.5005 135.847 43.5005C136.7 43.5005 137.558 42.7242 138.431 41.1764C138.878 41.0321 139.104 41.1018 139.104 41.3954C138.772 42.0026 138.336 42.5799 137.794 43.1372C136.966 43.9385 136.188 44.3366 135.456 44.3366C134.111 44.3366 133.439 43.7892 133.439 42.6993C133.439 41.9229 133.805 40.6639 134.537 38.922C135.054 37.7127 135.516 36.7572 135.917 36.0505L135.777 35.8664C135.21 36.2048 134.066 37.5037 132.34 39.7531C131.231 41.2312 130.333 42.4654 129.645 43.4607C129.314 43.9683 128.832 44.2221 128.19 44.2221C127.909 44.2221 127.764 44.0778 127.764 43.7842C127.764 43.7344 128.411 42.2912 129.711 39.4446C130.844 36.9414 131.411 35.4583 131.411 34.9955C131.411 34.5327 131.246 34.3038 130.915 34.3038C130.794 34.3038 130.338 34.4481 129.535 34.7417C129.274 34.6422 129.194 34.4431 129.289 34.1495C130.187 33.4577 131.156 33.1094 132.194 33.1094C132.525 33.1094 132.826 33.2238 133.097 33.4577C133.368 33.6916 133.504 34.0101 133.504 34.4232C133.504 35.1796 132.902 36.797 131.697 39.2853L131.838 39.36C132.52 38.3895 133.469 37.2698 134.673 36.0008C135.877 34.7317 136.74 33.9305 137.257 33.6021C137.774 33.2736 138.306 33.1094 138.853 33.1094C139.114 33.1094 139.244 33.2437 139.244 33.5075H139.249Z" fill="#1A1A18"/>
</g>
<defs>
<clipPath id="clip0_75_6486">
<rect width="185" height="67" fill="white"/>
</clipPath>
</defs>
</svg>
