<svg width="16" height="16" viewBox="0 0 16 16" fill="none" xmlns="http://www.w3.org/2000/svg">
<path d="M7 6.25C7 6.1837 6.97366 6.12011 6.92678 6.07322C6.87989 6.02634 6.8163 6 6.75 6C6.6837 6 6.62011 6.02634 6.57322 6.07322C6.52634 6.12011 6.5 6.1837 6.5 6.25V11.75C6.5 11.8163 6.52634 11.8799 6.57322 11.9268C6.62011 11.9737 6.6837 12 6.75 12C6.8163 12 6.87989 11.9737 6.92678 11.9268C6.97366 11.8799 7 11.8163 7 11.75V6.25ZM9.25 6C9.3163 6 9.37989 6.02634 9.42678 6.07322C9.47366 6.12011 9.5 6.1837 9.5 6.25V11.75C9.5 11.8163 9.47366 11.8799 9.42678 11.9268C9.37989 11.9737 9.3163 12 9.25 12C9.1837 12 9.12011 11.9737 9.07322 11.9268C9.02634 11.8799 9 11.8163 9 11.75V6.25C9 6.1837 9.02634 6.12011 9.07322 6.07322C9.12011 6.02634 9.1837 6 9.25 6ZM10.25 3.25V3.5H14.25C14.3163 3.5 14.3799 3.52634 14.4268 3.57322C14.4737 3.62011 14.5 3.6837 14.5 3.75C14.5 3.8163 14.4737 3.87989 14.4268 3.92678C14.3799 3.97366 14.3163 4 14.25 4H12.9785L12.1645 12.9535C12.1137 13.5127 11.8556 14.0328 11.441 14.4115C11.0263 14.7901 10.485 15.0001 9.9235 15H6.0765C5.51495 15.0001 4.97368 14.7901 4.55902 14.4115C4.14436 14.0328 3.88629 13.5127 3.8355 12.9535L3.0215 4H1.75C1.6837 4 1.62011 3.97366 1.57322 3.92678C1.52634 3.87989 1.5 3.8163 1.5 3.75C1.5 3.6837 1.52634 3.62011 1.57322 3.57322C1.62011 3.52634 1.6837 3.5 1.75 3.5H5.75V3.25C5.75 2.65326 5.98705 2.08097 6.40901 1.65901C6.83097 1.23705 7.40326 1 8 1C8.59674 1 9.16903 1.23705 9.59099 1.65901C10.0129 2.08097 10.25 2.65326 10.25 3.25ZM6.25 3.25V3.5H9.75V3.25C9.75 2.78587 9.56563 2.34075 9.23744 2.01256C8.90925 1.68437 8.46413 1.5 8 1.5C7.53587 1.5 7.09075 1.68437 6.76256 2.01256C6.43437 2.34075 6.25 2.78587 6.25 3.25ZM3.524 4L4.334 12.9085C4.37354 13.3433 4.57414 13.7475 4.89644 14.042C5.21874 14.3364 5.63945 14.4998 6.076 14.5H9.923C10.3597 14.5 10.7807 14.3368 11.1032 14.0423C11.4257 13.7479 11.6264 13.3434 11.666 12.9085L12.4765 4H3.524Z" fill="#FF1818"/>
</svg>
