<svg width="136" height="24" viewBox="0 0 136 24" fill="none" xmlns="http://www.w3.org/2000/svg">
<path d="M15.8569 15.858L20.9999 21.001M10.3639 3.00001C9.38967 2.98866 8.42289 3.17074 7.51955 3.53569C6.61621 3.90065 5.79428 4.44124 5.10136 5.12613C4.40844 5.81102 3.85831 6.6266 3.48285 7.52562C3.10739 8.42465 2.91406 9.38924 2.91406 10.3635C2.91406 11.3378 3.10739 12.3024 3.48285 13.2014C3.85831 14.1004 4.40844 14.916 5.10136 15.6009C5.79428 16.2858 6.61621 16.8264 7.51955 17.1913C8.42289 17.5563 9.38967 17.7384 10.3639 17.727C12.3019 17.7044 14.1529 16.9187 15.5154 15.5402C16.8779 14.1617 17.6421 12.3017 17.6421 10.3635C17.6421 8.42532 16.8779 6.56528 15.5154 5.18681C14.1529 3.80834 12.3019 3.0226 10.3639 3.00001Z" stroke="#0A0B0C"/>
<path fill-rule="evenodd" clip-rule="evenodd" d="M61.25 8.25C61.0511 8.25 60.8603 8.32902 60.7197 8.46967C60.579 8.61032 60.5 8.80109 60.5 9V19.125C60.5 20.543 61.707 21.75 63.125 21.75H75.875C77.293 21.75 78.5 20.601 78.5 19.184V9C78.5 8.80109 78.421 8.61032 78.2803 8.46967C78.1397 8.32902 77.9489 8.25 77.75 8.25H61.25Z" stroke="#0A0B0C"/>
<path d="M65 8.25V6.75C65 5.55653 65.4741 4.41193 66.318 3.56802C67.1619 2.72411 68.3065 2.25 69.5 2.25C70.6935 2.25 71.8381 2.72411 72.682 3.56802C73.5259 4.41193 74 5.55653 74 6.75V8.25" stroke="#0A0B0C"/>
<g clip-path="url(#clip0_75_6594)">
<path d="M116.241 21.8702H134.758C134.87 21.8702 134.976 21.8259 135.055 21.7472C135.134 21.6684 135.178 21.5616 135.178 21.4502V16.2142C135.177 14.9856 134.688 13.8077 133.819 12.939C132.951 12.0702 131.773 11.5816 130.544 11.5802H128.312C129.24 10.9742 129.948 10.0847 130.33 9.04402C130.712 8.00336 130.747 6.86722 130.431 5.80477C130.115 4.74231 129.464 3.81035 128.576 3.14765C127.687 2.48495 126.608 2.12695 125.5 2.12695C124.391 2.12695 123.312 2.48495 122.424 3.14765C121.535 3.81035 120.885 4.74231 120.568 5.80477C120.252 6.86722 120.288 8.00336 120.67 9.04402C121.051 10.0847 121.759 10.9742 122.687 11.5802H120.455C119.227 11.5816 118.049 12.0702 117.18 12.939C116.311 13.8077 115.823 14.9856 115.821 16.2142V21.4502C115.821 21.5616 115.866 21.6684 115.944 21.7472C116.023 21.8259 116.13 21.8702 116.241 21.8702ZM121.195 7.27517C121.195 6.42372 121.447 5.59139 121.92 4.88344C122.393 4.17548 123.066 3.6237 123.852 3.29786C124.639 2.97203 125.505 2.88678 126.34 3.05289C127.175 3.21899 127.942 3.62901 128.544 4.23107C129.146 4.83314 129.556 5.60021 129.722 6.4353C129.888 7.27039 129.803 8.13598 129.477 8.92262C129.151 9.70925 128.599 10.3816 127.891 10.8546C127.184 11.3277 126.351 11.5802 125.5 11.5802C124.358 11.5789 123.264 11.1249 122.457 10.3178C121.65 9.51078 121.196 8.41653 121.195 7.27517ZM116.661 16.2142C116.662 15.2083 117.063 14.244 117.774 13.5327C118.485 12.8214 119.449 12.4213 120.455 12.4202H130.544C131.55 12.4213 132.514 12.8214 133.226 13.5327C133.937 14.244 134.337 15.2083 134.338 16.2142V21.0302H116.661V16.2142Z" fill="#0A0B0C"/>
</g>
<defs>
<clipPath id="clip0_75_6594">
<rect width="21" height="21" fill="white" transform="translate(115 1.5)"/>
</clipPath>
</defs>
</svg>
