<svg width="112" height="32" viewBox="0 0 112 32" fill="none" xmlns="http://www.w3.org/2000/svg">
<rect width="32" height="32" rx="8" fill="#0A0B0C"/>
<path d="M10.0411 12.8294C10.0723 12.1481 10.179 11.7087 10.3233 11.3357L10.3252 11.3305C10.4682 10.951 10.6921 10.6071 10.9815 10.3229L10.9856 10.3189L10.9896 10.3149C11.274 10.0251 11.618 9.8014 11.9972 9.65881L12.0037 9.65631C12.3759 9.51158 12.8144 9.4053 13.4963 9.37412M10.0411 12.8294C10.0084 13.5574 10 13.7831 10 15.6705C10 17.5584 10.0079 17.7836 10.0411 18.5117M10.0411 12.8294L10.0411 13.0131M10.3258 20.0108C10.4684 20.3901 10.6921 20.734 10.9819 21.0185L10.9859 21.0224L10.9899 21.0265C11.2741 21.3159 11.618 21.5398 11.9975 21.6828L12.0032 21.685C12.3757 21.8294 12.8145 21.9357 13.4963 21.9669M10.3258 20.0108L10.3233 20.0043C10.1786 19.6322 10.0723 19.1936 10.0411 18.5117M10.3258 20.0108L10.3173 19.9658M10.0411 18.5117L10.0523 18.5705M10.0411 18.5117L10.0411 18.3276M10.3173 19.9658L10.0523 18.5705M10.3173 19.9658C10.2047 19.6685 10.0888 19.2537 10.0523 18.5705M10.3173 19.9658C10.3212 19.9763 10.3251 19.9865 10.3291 19.9967C10.4718 20.3814 10.6979 20.7298 10.9912 21.0168C11.2781 21.31 11.6263 21.5361 12.0109 21.6788C12.3196 21.799 12.7545 21.9247 13.4962 21.9587C14.2448 21.9927 14.476 21.9997 16.3375 21.9997C18.199 21.9997 18.4305 21.9927 19.179 21.9586C19.9216 21.9246 20.356 21.7983 20.6636 21.679C21.0484 21.5363 21.3969 21.3102 21.6838 21.0168C21.977 20.7299 22.2031 20.3817 22.3458 19.9971C22.466 19.6884 22.5917 19.2535 22.6257 18.5118C22.6597 17.7633 22.6667 17.5315 22.6667 15.6705C22.6667 13.8095 22.6597 13.5776 22.6256 12.829C22.5914 12.0825 22.4639 11.6475 22.3441 11.3396C22.1874 10.9352 21.9887 10.6293 21.6833 10.3239C21.3786 10.0197 21.0735 9.82087 20.6687 9.66404C20.3598 9.54325 19.9244 9.41655 19.179 9.38238C19.1142 9.37943 19.0532 9.37669 18.9947 9.37413M10.0523 18.5705C10.0512 18.5512 10.0503 18.5317 10.0494 18.512C10.0464 18.4471 10.0437 18.3861 10.0411 18.3276M13.4963 9.37412C14.2245 9.3409 14.4501 9.33301 16.3375 9.33301C18.2249 9.33301 18.4504 9.34135 19.1784 9.37413M13.4963 9.37412L13.6804 9.37412M19.1784 9.37413L18.9947 9.37413M19.1784 9.37413C19.8598 9.4053 20.2993 9.51196 20.6724 9.65625L20.6775 9.65822C21.0571 9.80118 21.4009 10.0251 21.6851 10.3145L21.689 10.3185L21.6931 10.3225C21.9825 10.6067 22.2064 10.9506 22.3493 11.3303L22.3517 11.3367C22.4964 11.7089 22.6027 12.1474 22.6339 12.8293M13.6804 9.37412L18.9947 9.37413M13.6804 9.37412C14.297 9.34716 14.6378 9.34136 16.3375 9.34136C18.0374 9.34136 18.3781 9.34716 18.9947 9.37413M13.6804 9.37412C13.6219 9.37668 13.5609 9.37943 13.496 9.38238C12.7534 9.41642 12.319 9.54277 12.0114 9.66206C11.6251 9.80525 11.2755 10.0326 10.988 10.3276C10.6854 10.6314 10.4874 10.9358 10.3311 11.3393C10.2103 11.6482 10.0835 12.0838 10.0494 12.8292C10.0464 12.8939 10.0437 12.9547 10.0411 13.0131M22.6339 18.5117C22.6027 19.1936 22.4964 19.6323 22.352 20.0048L22.3498 20.0105C22.2068 20.3901 21.9829 20.7339 21.6935 21.0181L21.6894 21.0221L21.6855 21.0261C21.401 21.3159 21.0571 21.5396 20.6778 21.6822L20.6713 21.6847C20.2991 21.8295 19.8606 21.9357 19.1787 21.9669M10.0411 18.3276C10.0142 17.711 10.0084 17.3702 10.0084 15.6705C10.0084 13.9703 10.0142 13.63 10.0411 13.0131M10.0411 18.3276L10.0411 13.0131M15.2103 18.3917C15.5677 18.5398 15.9507 18.616 16.3375 18.616C17.1187 18.616 17.8679 18.3056 18.4203 17.7533C18.9726 17.2009 19.283 16.4517 19.283 15.6705C19.283 14.8893 18.9726 14.1402 18.4203 13.5878C17.8679 13.0354 17.1187 12.7251 16.3375 12.7251C15.9507 12.7251 15.5677 12.8013 15.2103 12.9493C14.853 13.0973 14.5283 13.3143 14.2548 13.5878C13.9813 13.8613 13.7643 14.186 13.6163 14.5433C13.4683 14.9007 13.3921 15.2837 13.3921 15.6705C13.3921 16.0573 13.4683 16.4403 13.6163 16.7977C13.7643 17.155 13.9813 17.4797 14.2548 17.7533C14.5283 18.0268 14.853 18.2437 15.2103 18.3917ZM14.2482 13.5812C14.8023 13.0271 15.5539 12.7158 16.3375 12.7158C17.1212 12.7158 17.8727 13.0271 18.4268 13.5812C18.9809 14.1353 19.2922 14.8869 19.2922 15.6705C19.2922 16.4542 18.9809 17.2057 18.4268 17.7598C17.8727 18.3139 17.1212 18.6252 16.3375 18.6252C15.5539 18.6252 14.8023 18.3139 14.2482 17.7598C13.6941 17.2057 13.3828 16.4542 13.3828 15.6705C13.3828 14.8869 13.6941 14.1353 14.2482 13.5812ZM20.956 12.0279C20.956 12.2522 20.8669 12.4673 20.7083 12.6259C20.5497 12.7845 20.3346 12.8736 20.1103 12.8736C19.886 12.8736 19.6709 12.7845 19.5123 12.6259C19.3537 12.4673 19.2646 12.2522 19.2646 12.0279C19.2646 11.8036 19.3537 11.5885 19.5123 11.4299C19.6709 11.2713 19.886 11.1822 20.1103 11.1822C20.3346 11.1822 20.5497 11.2713 20.7083 11.4299C20.8669 11.5885 20.956 11.8036 20.956 12.0279Z" stroke="white" stroke-width="0.75" stroke-linejoin="round"/>
<rect x="40" width="32" height="32" rx="8" fill="#0A0B0C"/>
<path d="M62.6668 16.0003C62.6668 12.3184 59.6821 9.33359 56.0002 9.33359C52.3183 9.33359 49.3335 12.3184 49.3335 16.0003C49.3335 19.3278 51.7714 22.0858 54.9585 22.5859V17.9273H53.2658V16.0003H54.9585V14.5315C54.9585 12.8607 55.9538 11.9378 57.4766 11.9378C58.206 11.9378 58.9689 12.068 58.9689 12.068V13.7086H58.1283C57.3001 13.7086 57.0418 14.2225 57.0418 14.7497V16.0003H58.8908L58.5952 17.9273H57.0418V22.5859C60.2289 22.0858 62.6668 19.3278 62.6668 16.0003Z" stroke="white" stroke-width="0.75" stroke-linejoin="round"/>
<rect x="80" width="32" height="32" rx="8" fill="#0A0B0C"/>
<path d="M99.2145 11.4226C98.7258 10.8623 98.432 10.1317 98.432 9.33301H97.8196M99.2145 11.4226C99.6599 11.9334 100.263 12.3049 100.95 12.4504C101.163 12.4968 101.386 12.5216 101.618 12.5216V14.8124C100.43 14.8124 99.3289 14.4317 98.4319 13.7877V18.4468C98.4319 20.7748 96.5389 22.6663 94.2159 22.6663C93.0003 22.6663 91.9023 22.1462 91.1321 21.3197C90.4299 20.5643 90 19.5551 90 18.4468C90 16.1529 91.8373 14.2831 94.1139 14.2335M99.2145 11.4226C99.2026 11.4149 99.1908 11.407 99.179 11.3991M92.657 19.5675C92.4282 19.2517 92.2921 18.8648 92.2921 18.4437C92.2921 17.3819 93.155 16.5182 94.216 16.5182C94.414 16.5182 94.6057 16.5522 94.7851 16.608V14.2676C94.5995 14.2428 94.4109 14.2273 94.216 14.2273C94.182 14.2273 93.9079 14.2456 93.8739 14.2456M97.8163 9.33301H96.1399L96.1368 18.518C96.0997 19.5458 95.2521 20.3724 94.2159 20.3724C93.5726 20.3724 93.0065 20.0535 92.6539 19.5706" stroke="white" stroke-width="0.75" stroke-linejoin="round"/>
</svg>
