<svg width="20" height="20" viewBox="0 0 20 20" fill="none" xmlns="http://www.w3.org/2000/svg">
<path d="M4.14222 9.16814C4.14184 8.97343 4.20965 8.78474 4.33389 8.63481C4.40384 8.55043 4.48976 8.48068 4.58672 8.42955C4.68367 8.37842 4.78976 8.34693 4.89891 8.33686C5.00806 8.3268 5.11812 8.33837 5.22279 8.37091C5.32746 8.40344 5.42468 8.45631 5.50889 8.52648L9.97555 12.2598L14.4506 8.65981C14.5358 8.59059 14.6339 8.5389 14.7392 8.5077C14.8444 8.47651 14.9548 8.46643 15.064 8.47805C15.1732 8.48966 15.279 8.52274 15.3754 8.57539C15.4718 8.62803 15.5568 8.6992 15.6256 8.78481C15.7014 8.87103 15.7586 8.972 15.7936 9.08139C15.8286 9.19077 15.8406 9.30621 15.8289 9.42046C15.8172 9.5347 15.7819 9.64528 15.7254 9.74527C15.6689 9.84526 15.5924 9.93248 15.5006 10.0015L10.5006 14.0265C10.3514 14.149 10.1644 14.216 9.97139 14.216C9.77837 14.216 9.59133 14.149 9.44222 14.0265L4.44222 9.85981C4.34137 9.77621 4.26165 9.67002 4.20953 9.54984C4.1574 9.42967 4.13434 9.2989 4.14222 9.16814Z" fill="#0F0F0F"/>
</svg>
