<svg width="136" height="24" viewBox="0 0 136 24" fill="none" xmlns="http://www.w3.org/2000/svg">
<path d="M21.7099 20.29L17.9999 16.61C19.44 14.8144 20.1374 12.5353 19.9487 10.2413C19.76 7.9473 18.6996 5.81278 16.9854 4.27664C15.2713 2.74051 13.0337 1.91951 10.7328 1.98247C8.43194 2.04543 6.24263 2.98756 4.61505 4.61514C2.98747 6.24272 2.04534 8.43204 1.98237 10.7329C1.91941 13.0338 2.74041 15.2714 4.27655 16.9855C5.81269 18.6997 7.94721 19.7601 10.2412 19.9488C12.5352 20.1375 14.8143 19.4401 16.6099 18L20.2899 21.68C20.3829 21.7737 20.4935 21.8481 20.6153 21.8989C20.7372 21.9497 20.8679 21.9758 20.9999 21.9758C21.1319 21.9758 21.2626 21.9497 21.3845 21.8989C21.5063 21.8481 21.6169 21.7737 21.7099 21.68C21.8901 21.4935 21.9909 21.2443 21.9909 20.985C21.9909 20.7257 21.8901 20.4765 21.7099 20.29ZM10.9999 18C9.61544 18 8.26206 17.5895 7.11091 16.8203C5.95977 16.0511 5.06256 14.9579 4.53275 13.6788C4.00293 12.3997 3.86431 10.9922 4.13441 9.63437C4.4045 8.2765 5.07119 7.02922 6.05016 6.05025C7.02912 5.07128 8.27641 4.4046 9.63427 4.1345C10.9921 3.86441 12.3996 4.00303 13.6787 4.53284C14.9578 5.06266 16.051 5.95986 16.8202 7.11101C17.5894 8.26215 17.9999 9.61553 17.9999 11C17.9999 12.8565 17.2624 14.637 15.9497 15.9497C14.6369 17.2625 12.8564 18 10.9999 18Z" fill="black"/>
<path d="M64 9V5C64 2.79 65.795 1 68 1C70.21 1 72 2.795 72 5V9M60 7H76V23H60V7Z" stroke="black" stroke-width="2" stroke-linecap="round"/>
<g clip-path="url(#clip0_4_19)">
<path fill-rule="evenodd" clip-rule="evenodd" d="M124 21.75C125.712 21.7525 127.394 21.3023 128.875 20.445V17.25C128.875 16.3549 128.519 15.4965 127.886 14.8635C127.254 14.2306 126.395 13.875 125.5 13.875H122.5C121.605 13.875 120.746 14.2306 120.114 14.8635C119.481 15.4965 119.125 16.3549 119.125 17.25V20.445C120.606 21.3023 122.288 21.7525 124 21.75ZM131.125 17.25V18.6555C132.422 17.267 133.285 15.5297 133.608 13.6572C133.931 11.7848 133.7 9.85877 132.943 8.11594C132.186 6.3731 130.936 4.88942 129.348 3.84727C127.759 2.80511 125.9 2.24991 124 2.24991C122.1 2.24991 120.241 2.80511 118.652 3.84727C117.064 4.88942 115.814 6.3731 115.057 8.11594C114.3 9.85877 114.069 11.7848 114.392 13.6572C114.715 15.5297 115.578 17.267 116.875 18.6555V17.25C116.875 16.0902 117.233 14.9586 117.9 14.0102C118.568 13.0618 119.512 12.3429 120.604 11.952C120.038 11.3005 119.671 10.4998 119.547 9.64545C119.423 8.79109 119.547 7.91911 119.905 7.13353C120.263 6.34794 120.839 5.68191 121.566 5.21488C122.292 4.74784 123.137 4.49951 124 4.49951C124.863 4.49951 125.708 4.74784 126.434 5.21488C127.161 5.68191 127.737 6.34794 128.095 7.13353C128.453 7.91911 128.577 8.79109 128.453 9.64545C128.329 10.4998 127.962 11.3005 127.396 11.952C128.488 12.3429 129.432 13.0618 130.1 14.0102C130.767 14.9586 131.125 16.0902 131.125 17.25ZM124 24C127.183 24 130.235 22.7357 132.485 20.4853C134.736 18.2348 136 15.1826 136 12C136 8.8174 134.736 5.76516 132.485 3.51472C130.235 1.26428 127.183 0 124 0C120.817 0 117.765 1.26428 115.515 3.51472C113.264 5.76516 112 8.8174 112 12C112 15.1826 113.264 18.2348 115.515 20.4853C117.765 22.7357 120.817 24 124 24ZM126.25 9C126.25 9.59674 126.013 10.169 125.591 10.591C125.169 11.0129 124.597 11.25 124 11.25C123.403 11.25 122.831 11.0129 122.409 10.591C121.987 10.169 121.75 9.59674 121.75 9C121.75 8.40326 121.987 7.83097 122.409 7.40901C122.831 6.98705 123.403 6.75 124 6.75C124.597 6.75 125.169 6.98705 125.591 7.40901C126.013 7.83097 126.25 8.40326 126.25 9Z" fill="black"/>
</g>
<defs>
<clipPath id="clip0_4_19">
<rect width="24" height="24" fill="white" transform="translate(112)"/>
</clipPath>
</defs>
</svg>
