<svg width="20" height="16" viewBox="0 0 20 16" fill="none" xmlns="http://www.w3.org/2000/svg">
<path d="M10 0C9.19545 0 8.5199 0.558432 8.32471 1.30357H0.440465C0.284308 1.30188 0.138335 1.38335 0.0585591 1.51914C-0.0195197 1.65493 -0.0195197 1.82127 0.0585591 1.95706C0.138335 2.09285 0.284308 2.17432 0.440465 2.17262H8.32471C8.5199 2.91776 9.19545 3.47619 10 3.47619C10.8045 3.47619 11.4801 2.91776 11.6753 2.17262H19.5595C19.7157 2.17432 19.8617 2.09285 19.9414 1.95706C20.0195 1.82127 20.0195 1.65493 19.9414 1.51914C19.8617 1.38335 19.7157 1.30188 19.5595 1.30357H11.6753C11.4801 0.558432 10.8045 0 10 0ZM10 0.869049C10.4719 0.869049 10.8436 1.23228 10.864 1.69906C10.8623 1.72452 10.8623 1.75168 10.864 1.77883C10.8436 2.24391 10.4719 2.60715 10 2.60715C9.52813 2.60715 9.15641 2.24391 9.13604 1.77714C9.13774 1.75168 9.13774 1.72452 9.13604 1.69736C9.15641 1.23228 9.52813 0.869049 10 0.869049ZM16.0833 6.08334C15.2788 6.08334 14.6032 6.64177 14.408 7.38691H0.440465C0.284308 7.38522 0.138335 7.46669 0.0585591 7.60248C-0.0195197 7.73827 -0.0195197 7.90461 0.0585591 8.0404C0.138335 8.17619 0.284308 8.25766 0.440465 8.25596H14.408C14.6032 9.0011 15.2788 9.55954 16.0833 9.55954C16.8879 9.55954 17.5634 9.0011 17.7586 8.25596H19.5595C19.7157 8.25766 19.8617 8.17619 19.9414 8.0404C20.0195 7.90461 20.0195 7.73827 19.9414 7.60248C19.8617 7.46669 19.7157 7.38522 19.5595 7.38691H17.7586C17.5634 6.64177 16.8879 6.08334 16.0833 6.08334ZM16.0833 6.95239C16.5552 6.95239 16.9269 7.31562 16.9473 7.7824C16.9456 7.80786 16.9456 7.83502 16.9473 7.86217C16.9269 8.32725 16.5552 8.69049 16.0833 8.69049C15.6115 8.69049 15.2398 8.32725 15.2194 7.86048C15.2211 7.83502 15.2211 7.80786 15.2194 7.7807C15.2398 7.31562 15.6115 6.95239 16.0833 6.95239ZM5.22023 12.1667C4.41568 12.1667 3.74013 12.7251 3.54494 13.4703H0.440465C0.284308 13.4686 0.138335 13.55 0.0585591 13.6858C-0.0195197 13.8216 -0.0195197 13.9879 0.0585591 14.1237C0.138335 14.2595 0.284308 14.341 0.440465 14.3393H3.54494C3.74013 15.0844 4.41568 15.6429 5.22023 15.6429C6.02478 15.6429 6.70033 15.0844 6.89553 14.3393H19.5595C19.7157 14.341 19.8617 14.2595 19.9414 14.1237C20.0195 13.9879 20.0195 13.8216 19.9414 13.6858C19.8617 13.55 19.7157 13.4686 19.5595 13.4703H6.89553C6.70033 12.7251 6.02478 12.1667 5.22023 12.1667ZM5.22023 13.0357C5.6921 13.0357 6.06382 13.399 6.08419 13.8657C6.08249 13.8912 6.08249 13.9184 6.08419 13.9455C6.06382 14.4106 5.6921 14.7738 5.22023 14.7738C4.74837 14.7738 4.37664 14.4106 4.35628 13.9438C4.35797 13.9184 4.35797 13.8912 4.35628 13.864C4.37664 13.399 4.74837 13.0357 5.22023 13.0357Z" fill="#1A1A1A"/>
</svg>
