<svg width="211" height="77" viewBox="0 0 211 77" fill="none" xmlns="http://www.w3.org/2000/svg">
<g clip-path="url(#clip0_59_655)">
<path fill-rule="evenodd" clip-rule="evenodd" d="M146.75 62.4497C143.271 58.652 133.982 61.1628 134.349 68.0776C133.834 66.9737 133.57 65.807 134.091 64.7889C132.758 65.1664 130.898 65.3952 129.639 64.7031C128.363 63.9996 126.737 61.8949 129.318 61.4145C129.124 58.3889 133.788 57.9371 133.879 61.4602C133.902 61.4831 133.507 61.7805 133.496 61.8034C133.261 59.0295 130.079 59.59 130.303 61.9635C130.566 64.8518 133.49 63.931 134.766 63.0388C138.315 60.568 142.607 58.4347 146.521 61.9979L146.75 62.444V62.4497Z" fill="#1A1A18"/>
<path fill-rule="evenodd" clip-rule="evenodd" d="M169.584 69.0957C168.531 72.8591 161.515 74.4834 159.46 69.7477C159.483 70.6628 159.701 71.5322 160.382 72.0297C159.369 72.2528 158.053 72.7561 157.446 73.6655C156.828 74.5863 156.45 76.5652 158.327 75.9704C159.203 78.0523 162.459 76.6968 161.343 74.3175C161.349 74.2946 160.988 74.2374 160.977 74.226C161.744 76.1534 159.443 76.9141 158.797 75.2498C158.013 73.2308 160.262 72.8076 161.406 72.9506C164.588 73.3395 168.153 73.2365 169.573 69.4732V69.0957H169.584Z" fill="#1A1A18"/>
<path fill-rule="evenodd" clip-rule="evenodd" d="M186.993 58.1832C183.857 56.5017 183.696 49.5927 188.258 48.5174C187.439 48.3687 186.638 48.4145 186.071 48.9692C186.06 47.9741 185.854 46.6415 185.162 45.9037C184.458 45.1544 182.781 44.4338 182.964 46.3155C180.967 46.7616 181.568 50.0845 183.874 49.4668C183.891 49.4783 184.011 49.1465 184.023 49.1351C182.18 49.5069 181.928 47.1962 183.513 46.8931C185.436 46.5214 185.402 48.7176 185.07 49.7757C184.149 52.7097 183.593 56.0899 186.655 58.1145L186.987 58.1889L186.993 58.1832Z" fill="#1A1A18"/>
<path fill-rule="evenodd" clip-rule="evenodd" d="M181.419 45.4231C180.869 45.995 180.44 46.5269 179.828 46.9044C179.032 47.3906 178.357 47.2419 177.522 47.688C177.762 47.1561 178.002 46.5155 178.512 46.1609C179.227 45.6576 180.223 45.9664 180.904 45.6519C180.263 45.9836 179.233 45.9035 178.781 46.8358C179.645 46.7672 180.555 46.2238 181.419 45.4288V45.4231Z" fill="#1A1A18"/>
<path fill-rule="evenodd" clip-rule="evenodd" d="M180.6 45.7778C180.606 46.3612 180.658 46.8645 180.543 47.385C180.383 48.0656 179.965 48.3458 179.765 49.0264C179.616 48.6261 179.416 48.1743 179.496 47.7167C179.605 47.0761 180.268 46.6987 180.457 46.1667C180.303 46.6815 179.736 47.1962 179.977 47.9112C180.383 47.4136 180.572 46.6472 180.606 45.7778H180.6Z" fill="#1A1A18"/>
<path d="M185.305 39.6181C185.305 39.6181 185.127 39.2407 184.812 39.3322C184.498 39.418 184.206 39.6982 184.091 39.8698C183.983 40.0414 183.897 40.0471 183.737 40.2244C183.576 40.4074 183.548 40.3845 183.468 40.5733C183.387 40.7563 183.347 40.8192 183.096 40.9164C182.844 41.0137 182.409 41.2882 182.266 41.4827C182.123 41.6771 182.14 41.9059 181.985 42.1404C181.808 42.4149 181.453 42.821 181.505 43.187C181.522 43.3186 181.608 43.4044 181.653 43.513C182.088 43.1356 182.106 42.4035 182.449 41.9745C182.729 41.6256 183.101 41.1567 183.485 40.9336C182.884 41.4426 182.912 41.4998 182.672 41.7629C182.512 41.9459 182.334 42.2662 182.231 42.5064C182.128 42.7638 182.003 43.3758 181.722 43.6675C181.928 43.5531 182.294 42.9354 182.466 42.8096C182.998 42.4206 183.851 40.5962 184.257 40.1558C183.754 40.9736 182.5 43.3186 181.796 43.7704C182.157 43.5474 182.512 43.6103 183.548 42.8153C183.221 43.1985 182.409 43.7247 182.014 43.8619C181.682 43.9763 181.705 44.2108 181.573 44.4968C181.573 44.4968 182.563 44.3824 182.884 44.0221C183.21 43.6617 183.725 43.0955 183.965 42.4836C184.206 41.8716 184.475 40.945 184.578 40.6362C184.675 40.3216 184.778 40.1844 184.996 39.9613C185.213 39.7383 185.299 39.6124 185.299 39.6124L185.305 39.6181Z" fill="#1A1A18"/>
<path d="M181.356 44.6111C181.39 43.7131 180.612 42.3462 180.034 41.7857C180.497 42.4434 181.201 43.6674 181.184 44.6626C180.795 44.4567 180.24 43.4329 179.988 43.0668C179.662 42.5979 178.918 41.5112 178.575 41.0593C178.288 40.6819 178.42 40.8763 178.203 40.5332C179.147 41.7228 180.125 43.6045 181.012 44.8627C180.572 44.2336 179.765 43.8904 179.244 43.3471C178.706 42.7809 178.094 41.9458 177.459 41.1165C179.399 44.062 180.314 44.674 180.858 45.0057C179.954 44.7827 179.53 44.5768 179.09 44.348C178.649 44.1192 178.019 43.6674 177.281 43.0554C177.785 43.5244 178.758 44.2794 179.055 44.4509C179.536 44.7255 180.143 45.0572 180.509 45.2402C179.685 45.0915 178.22 44.308 177.55 43.6731C177.115 43.2613 176.738 42.8781 176.892 42.5006C177.047 42.1174 177.115 42.0888 177.081 41.9001C177.047 41.7228 177.075 41.6027 177.144 41.5741C177.213 41.5398 177.253 41.5226 177.275 41.3568C177.298 41.1909 177.424 41.0079 177.533 40.9221C177.642 40.842 177.676 40.8706 177.728 40.7791C177.773 40.6876 177.813 40.5618 177.974 40.4245C178.134 40.2872 178.203 40.3273 178.248 40.3158C178.294 40.2987 178.391 40.23 178.603 40.2186C178.815 40.2072 179.061 40.3673 179.307 40.5217C179.565 40.6761 180.188 41.2481 180.566 41.8715C180.95 42.4949 181.259 42.9811 181.333 43.3013C181.402 43.5759 181.596 44.1878 181.356 44.6111Z" fill="#1A1A18"/>
<path d="M176.938 43.2727C176.938 43.2727 176.749 43.2956 176.629 43.3985C176.514 43.5015 176.446 43.553 176.303 43.593C176.16 43.633 176.051 43.6788 176.062 43.7932C176.074 43.9076 176.16 44.0219 176.148 44.0849C176.137 44.1478 176.148 44.1764 176.274 44.245C176.406 44.3079 176.949 44.5195 177.132 44.5824C177.31 44.6396 177.791 44.9027 178.117 44.9599C178.449 45.0114 178.632 44.9828 178.826 45.0114C179.021 45.0457 179.107 45.0171 179.336 45.0743C179.565 45.1315 179.691 45.1429 179.691 45.1429C179.691 45.1429 178.969 44.897 178.603 44.6454C178.237 44.388 177.802 44.1649 177.522 43.9133C177.241 43.6616 177.024 43.3985 177.024 43.3985L176.944 43.2841L176.938 43.2727Z" fill="#1A1A18"/>
<path d="M175.753 44.1593C175.753 44.1593 175.381 44.0392 175.192 44.0449C175.004 44.0449 174.912 44.1364 174.883 44.2622C174.855 44.3823 174.843 44.531 174.918 44.6111L174.992 44.6912C174.992 44.6912 174.975 44.6054 175.049 44.6111C175.124 44.6111 175.324 44.7827 175.536 44.9199C175.747 45.0572 176.091 45.2345 176.589 45.3775C177.11 45.5319 177.831 45.6177 178.592 45.6291C178.821 45.6291 179.525 45.6063 180.103 45.4232C179.931 45.4404 179.301 45.4461 179.032 45.4004C178.758 45.3546 178.397 45.3889 178.1 45.3889C177.493 45.3889 176.863 45.3889 176.377 44.8742C176.966 45.4404 177.791 45.3603 178.603 45.3432C179.175 45.3317 179.696 45.4633 180.274 45.3546C179.914 45.2803 179.507 45.3203 179.135 45.286C178.597 45.2345 178.157 45.2631 177.247 44.8971C176.331 44.5253 175.753 44.1707 175.753 44.1707V44.1593Z" fill="#1A1A18"/>
<path d="M177.527 40.6989C177.527 40.6989 177.115 40.5273 176.984 40.6131C176.852 40.6932 176.732 40.8076 176.732 40.8877V40.962C176.732 40.962 176.697 40.9677 176.6 41.0192C176.503 41.0707 176.497 41.0936 176.503 41.2079C176.503 41.3223 176.549 41.3967 176.503 41.4367C176.463 41.4768 176.354 41.4596 176.297 41.5168C176.245 41.5797 176.245 41.6941 176.263 41.797C176.28 41.9057 176.285 41.9457 176.285 41.9457C176.285 41.9457 176.217 42.0315 176.154 42.0773C176.091 42.123 176.016 42.1802 176.034 42.2889C176.051 42.3976 176.194 42.7636 176.297 42.9066C176.4 43.0496 176.44 43.1354 176.44 43.1354C176.44 43.1354 176.635 43.0324 176.703 43.021L176.772 43.0095C176.772 43.0095 176.675 42.7636 176.663 42.6378C176.646 42.5062 176.795 42.1974 176.852 42.1173C176.909 42.0373 176.875 41.8771 176.875 41.7399C176.875 41.6026 176.978 41.4253 177.052 41.3681C177.127 41.3109 177.087 41.2022 177.167 41.0421C177.247 40.8819 177.258 40.8133 177.361 40.7733C177.47 40.7332 177.522 40.6932 177.522 40.6932L177.527 40.6989Z" fill="#1A1A18"/>
<path d="M181.367 38.068C181.367 38.068 181.138 37.8278 180.95 37.8393C180.761 37.8507 180.606 37.8907 180.475 37.988C180.343 38.0852 180.206 38.3826 180.24 38.6114C180.274 38.8459 180.303 39.0518 180.303 39.0518C180.303 39.0518 180.303 39.3721 180.32 39.5265C180.337 39.6809 180.44 39.904 180.423 40.0298C180.406 40.1556 180.377 40.23 180.331 40.3958C180.286 40.5617 180.263 40.8419 180.269 40.9735C180.269 40.9735 180.698 41.4825 180.778 41.6255C180.858 41.7685 181.093 42.1002 181.201 42.3576C181.31 42.6149 181.35 42.7751 181.35 42.7751C181.35 42.7751 181.407 42.5463 181.533 42.3347C181.659 42.1288 181.802 42.043 181.854 41.7799C181.905 41.5168 182.003 41.2938 182.083 41.2309L182.168 41.1679C182.168 41.1679 181.905 40.3501 181.699 40.0355C181.493 39.7209 181.115 39.0975 181.041 38.8058C180.995 38.64 180.812 38.2568 180.915 38.0795C181.007 37.9251 181.253 37.9422 181.367 38.0623V38.068Z" fill="#1A1A18"/>
<path d="M180.074 37.9537C180.074 37.9537 179.691 38.1997 179.685 38.3655C179.685 38.5257 179.588 38.7773 179.685 39.0461C179.776 39.3149 179.919 39.761 179.845 39.9555C179.771 40.15 179.61 40.4702 179.61 40.4702C179.61 40.4702 179.616 40.5046 179.794 40.6475C179.971 40.7905 180.045 40.8935 180.045 40.8935C180.045 40.8935 180.091 40.6018 180.137 40.3673C180.183 40.1328 180.269 40.0642 180.2 39.6638C180.131 39.2577 180.103 38.9775 180.057 38.7773C180.011 38.5714 179.965 38.4284 180.057 38.1997C180.148 37.9709 180.074 37.948 180.074 37.948V37.9537Z" fill="#1A1A18"/>
<path d="M179.542 38.314C179.542 38.314 179.347 38.2626 179.25 38.2568C179.153 38.2568 179.015 38.3884 179.015 38.5714C179.009 38.7544 178.947 38.9432 178.889 39.1605C178.832 39.3836 178.712 39.6695 178.752 39.8182L178.798 39.9669C178.798 39.9669 178.969 40.0756 179.107 40.1328C179.244 40.19 179.324 40.2472 179.399 40.3101L179.479 40.3673C179.479 40.3673 179.588 40.2472 179.65 39.9612C179.719 39.6695 179.662 39.4579 179.565 39.1319C179.473 38.8059 179.45 38.6972 179.507 38.5371C179.57 38.3712 179.576 38.3083 179.576 38.3083L179.53 38.3255L179.542 38.314Z" fill="#1A1A18"/>
<path d="M178.746 39.1548C178.746 39.1548 178.672 39.3492 178.632 39.4808C178.592 39.6123 178.535 39.7324 178.586 39.8297L178.638 39.9326C178.638 39.9326 178.46 40.0413 178.317 40.0527C178.168 40.0642 178.002 40.1271 177.905 40.2014C177.802 40.2758 177.682 40.4302 177.653 40.4931C177.619 40.556 177.567 40.6189 177.567 40.6189C177.567 40.6189 177.413 40.5103 177.304 40.516C177.19 40.516 177.172 40.4702 177.172 40.4702C177.172 40.4702 177.092 40.4359 177.138 40.2872C177.184 40.1328 177.287 40.1385 177.304 40.0013C177.321 39.864 177.367 39.7954 177.316 39.6924L177.264 39.5952C177.264 39.5952 177.27 39.5323 177.367 39.538H177.464C177.464 39.538 177.413 39.4408 177.493 39.3435C177.579 39.2406 177.579 39.2978 177.71 39.2978C177.842 39.2978 177.939 39.2063 178.048 39.2063C178.163 39.2063 178.088 39.292 178.311 39.252C178.529 39.2063 178.746 39.1662 178.746 39.1662V39.1548Z" fill="#1A1A18"/>
<path d="M177.161 39.8582C177.161 39.8582 176.932 39.8925 176.863 39.9039C176.795 39.9153 176.812 39.9439 176.806 40.0069C176.795 40.0755 176.806 40.1441 176.726 40.1441C176.652 40.1441 176.64 40.2128 176.675 40.2871C176.709 40.3615 176.766 40.4987 176.697 40.5674C176.629 40.636 176.526 40.6531 176.52 40.779V40.9048L176.612 40.8304C176.612 40.8304 176.623 40.8419 176.697 40.6817C176.778 40.5216 176.772 40.4873 176.875 40.4701L176.978 40.453C176.978 40.453 177.007 40.3557 177.029 40.1956C177.052 40.0412 177.087 40.0297 177.144 39.9497L177.201 39.8639H177.155L177.161 39.8582Z" fill="#1A1A18"/>
<path fill-rule="evenodd" clip-rule="evenodd" d="M182.352 44.7484C182.758 44.3366 183.078 43.9534 183.525 43.6903C184.109 43.3414 184.595 43.4615 185.207 43.147C185.03 43.5302 184.847 43.9934 184.469 44.2508C183.948 44.6054 183.221 44.3709 182.718 44.594C183.187 44.3595 183.937 44.4281 184.274 43.7532C183.645 43.7933 182.975 44.1765 182.34 44.7484H182.352Z" fill="#1A1A18"/>
<path fill-rule="evenodd" clip-rule="evenodd" d="M170.219 69.2444C170.248 70.5541 170.368 71.6751 170.105 72.8362C169.761 74.3518 168.829 74.9924 168.399 76.5023C168.067 75.6158 167.61 74.6034 167.781 73.5854C168.016 72.1556 169.487 71.2976 169.899 70.108C169.555 71.2633 168.308 72.4129 168.851 74.0143C169.739 72.8876 170.156 71.1775 170.219 69.2444Z" fill="#1A1A18"/>
<path d="M163.197 56.8563C163.197 56.8563 162.694 56.2271 162.127 56.5417C161.566 56.8563 161.131 57.5369 161 57.9143C160.868 58.2975 160.708 58.3433 160.479 58.7665C160.256 59.1898 160.193 59.1669 160.124 59.5558C160.056 59.9447 159.998 60.0877 159.569 60.3908C159.14 60.6997 158.425 61.4318 158.241 61.8664C158.058 62.3011 158.19 62.7301 158.001 63.2505C157.784 63.8625 157.291 64.8062 157.555 65.4868C157.646 65.727 157.847 65.8528 157.99 66.0416C158.653 65.115 158.362 63.7024 158.814 62.7186C159.191 61.9122 159.689 60.8484 160.325 60.2364C159.415 61.5004 159.478 61.5976 159.146 62.221C158.917 62.6443 158.722 63.342 158.648 63.8568C158.568 64.4001 158.591 65.6355 158.19 66.3218C158.533 66.0015 158.957 64.6461 159.226 64.3258C160.067 63.3306 160.88 59.43 161.452 58.3948C160.857 60.1964 159.518 65.2923 158.373 66.4877C158.962 65.8872 159.672 65.8414 161.292 63.8167C160.84 64.709 159.529 66.1045 158.831 66.5506C158.241 66.9281 158.39 67.3628 158.281 67.9804C158.281 67.9804 160.118 67.2884 160.571 66.4419C161.028 65.5955 161.761 64.2743 161.938 62.9874C162.116 61.7006 162.23 59.8075 162.276 59.1612C162.322 58.5149 162.459 58.2003 162.774 57.6684C163.089 57.1365 163.197 56.8563 163.197 56.8563Z" fill="#1A1A18"/>
<path d="M157.904 68.3006C157.566 66.5619 155.46 64.3314 154.11 63.5307C155.294 64.5716 157.188 66.5619 157.6 68.4722C156.771 68.272 155.248 66.5791 154.596 66.0014C153.76 65.2636 151.861 63.5421 150.996 62.8443C150.281 62.261 150.624 62.5698 150.052 62.015C152.404 63.8395 155.117 66.968 157.377 68.9355C156.244 67.946 154.55 67.6829 153.308 66.8879C152.021 66.0643 150.47 64.7603 148.896 63.4849C153.926 68.1748 155.952 68.9069 157.143 69.2843C155.317 69.2843 154.419 69.0956 153.463 68.8726C152.519 68.6552 151.111 68.0833 149.428 67.2711C150.601 67.9231 152.799 68.9012 153.451 69.0842C154.499 69.3816 155.809 69.7133 156.588 69.8963C154.945 70.005 151.798 69.2157 150.224 68.3235C149.205 67.7458 148.312 67.2025 148.438 66.3961C148.558 65.5953 148.679 65.4981 148.53 65.1721C148.381 64.8404 148.381 64.6059 148.501 64.5087C148.616 64.4114 148.684 64.3542 148.65 64.0282C148.621 63.708 148.776 63.2847 148.948 63.0788C149.119 62.8672 149.205 62.9072 149.251 62.7071C149.297 62.5126 149.32 62.2495 149.56 61.9121C149.8 61.5689 149.949 61.6204 150.029 61.5746C150.109 61.5232 150.258 61.3401 150.664 61.22C151.071 61.0999 151.603 61.2887 152.152 61.4602C152.707 61.6261 154.155 62.4268 155.168 63.4334C156.181 64.44 156.988 65.2236 157.28 65.7955C157.532 66.2874 158.184 67.3684 157.91 68.2892L157.904 68.3006Z" fill="#1A1A18"/>
<path d="M148.856 67.8775C148.856 67.8775 148.495 68.0091 148.324 68.2607C148.152 68.5181 148.043 68.6439 147.78 68.7869C147.523 68.9299 147.339 69.0672 147.414 69.2845C147.488 69.4961 147.7 69.6677 147.706 69.7935C147.717 69.9194 147.74 69.9766 148.015 70.0338C148.289 70.0909 149.428 70.2339 149.8 70.2625C150.172 70.2911 151.202 70.5657 151.86 70.5085C152.519 70.4513 152.851 70.3026 153.24 70.274C153.629 70.2397 153.772 70.1481 154.241 70.1481C154.705 70.1481 154.957 70.1081 154.957 70.1081C154.957 70.1081 153.469 69.9937 152.65 69.6792C151.832 69.3703 150.899 69.1415 150.252 68.7984C149.606 68.4495 149.068 68.0548 149.068 68.0548L148.862 67.8718L148.856 67.8775Z" fill="#1A1A18"/>
<path d="M146.996 70.1253C146.996 70.1253 146.229 70.0795 145.869 70.1767C145.508 70.274 145.371 70.4856 145.371 70.7372C145.371 70.9832 145.411 71.2691 145.594 71.3892L145.777 71.5093C145.777 71.5093 145.697 71.3549 145.852 71.3263C146 71.292 146.452 71.5208 146.922 71.6866C147.391 71.8468 148.129 72.0241 149.142 72.0584C150.207 72.0984 151.626 71.9211 153.074 71.5723C153.514 71.4693 154.848 71.0804 155.866 70.457C155.54 70.5657 154.35 70.8802 153.818 70.926C153.268 70.9717 152.593 71.2062 152.026 71.3492C150.87 71.6352 149.669 71.9383 148.507 71.1891C149.886 71.9841 151.426 71.4407 152.971 71.0118C154.058 70.7086 155.117 70.7086 156.164 70.2282C155.437 70.2625 154.682 70.5313 153.961 70.64C152.908 70.7944 152.084 71.069 150.172 70.8001C148.261 70.5371 146.99 70.1253 146.99 70.1253H146.996Z" fill="#1A1A18"/>
<path d="M148.822 62.6729C148.822 62.6729 147.963 62.5471 147.74 62.7645C147.517 62.9875 147.345 63.2563 147.38 63.405L147.414 63.5537C147.414 63.5537 147.351 63.5823 147.191 63.731C147.03 63.8797 147.03 63.9255 147.093 64.1428C147.156 64.3602 147.259 64.4803 147.196 64.5775C147.133 64.6747 146.916 64.6976 146.842 64.8349C146.767 64.9721 146.83 65.1952 146.905 65.3897C146.985 65.5841 147.013 65.6642 147.013 65.6642C147.013 65.6642 146.922 65.8586 146.819 65.9845C146.721 66.1046 146.601 66.2476 146.681 66.442C146.761 66.6365 147.202 67.2713 147.46 67.5001C147.717 67.7232 147.832 67.8661 147.832 67.8661C147.832 67.8661 148.164 67.5745 148.289 67.523L148.415 67.4658C148.415 67.4658 148.123 67.0426 148.038 66.8023C147.952 66.5621 148.095 65.8987 148.169 65.7157C148.238 65.5326 148.112 65.2467 148.049 64.9836C147.98 64.7205 148.106 64.3258 148.226 64.1829C148.347 64.0399 148.227 63.8454 148.301 63.5023C148.381 63.1591 148.37 63.0275 148.558 62.896C148.742 62.7702 148.822 62.6729 148.822 62.6729Z" fill="#1A1A18"/>
<path d="M154.974 55.7925C154.974 55.7925 154.424 55.4379 154.069 55.5523C153.709 55.6667 153.434 55.8154 153.228 56.067C153.022 56.3187 152.885 56.9421 153.062 57.3768C153.24 57.8057 153.383 58.1889 153.383 58.1889C153.383 58.1889 153.526 58.8009 153.635 59.0926C153.738 59.3785 154.035 59.7617 154.058 60.0134C154.075 60.265 154.064 60.4195 154.058 60.7569C154.047 61.0943 154.132 61.6434 154.19 61.8893C154.19 61.8893 155.237 62.65 155.46 62.8845C155.683 63.119 156.279 63.6452 156.599 64.0799C156.919 64.5203 157.068 64.8062 157.068 64.8062C157.068 64.8062 157.068 64.3372 157.223 63.8797C157.372 63.4221 157.6 63.1876 157.578 62.6615C157.555 62.1353 157.641 61.6606 157.772 61.5004L157.904 61.3403C157.904 61.3403 157.034 59.9047 156.496 59.4014C155.964 58.8924 154.962 57.8801 154.688 57.371C154.522 57.0679 154.007 56.4216 154.121 56.0441C154.23 55.701 154.71 55.6152 154.985 55.7982L154.974 55.7925Z" fill="#1A1A18"/>
<path d="M152.456 56.1929C152.456 56.1929 151.838 56.8506 151.901 57.1594C151.969 57.4683 151.901 57.9888 152.198 58.4577C152.496 58.9267 152.971 59.716 152.913 60.1278C152.856 60.5339 152.696 61.2202 152.696 61.2202C152.696 61.2202 152.725 61.2831 153.131 61.4776C153.537 61.6663 153.726 61.8322 153.726 61.8322C153.726 61.8322 153.68 61.2545 153.663 60.7855C153.646 60.3165 153.783 60.1507 153.469 59.4129C153.148 58.6808 152.976 58.1546 152.799 57.7829C152.622 57.4168 152.467 57.1594 152.541 56.6847C152.61 56.21 152.456 56.1986 152.456 56.1986V56.1929Z" fill="#1A1A18"/>
<path d="M151.597 57.1423C151.597 57.1423 151.208 57.1309 151.014 57.1709C150.819 57.2109 150.63 57.5427 150.699 57.8915C150.773 58.2461 150.733 58.6293 150.727 59.0812C150.722 59.533 150.613 60.145 150.767 60.4023L150.922 60.6597C150.922 60.6597 151.3 60.7855 151.586 60.8256C151.872 60.8713 152.049 60.9457 152.232 61.02L152.416 61.0944C152.416 61.0944 152.57 60.8141 152.564 60.2308C152.564 59.6474 152.358 59.2585 152.032 58.6808C151.706 58.1031 151.62 57.9087 151.66 57.5655C151.7 57.2281 151.689 57.0908 151.689 57.0908L151.609 57.1423H151.597Z" fill="#1A1A18"/>
<path d="M150.453 59.1268C150.453 59.1268 150.395 59.5329 150.373 59.8074C150.35 60.0762 150.304 60.3279 150.447 60.4937L150.59 60.6653C150.59 60.6653 150.31 60.957 150.035 61.0485C149.76 61.14 149.474 61.3402 149.314 61.5347C149.154 61.7291 148.988 62.078 148.953 62.2153C148.919 62.3525 148.845 62.4955 148.845 62.4955C148.845 62.4955 148.507 62.364 148.295 62.4269C148.083 62.4898 148.02 62.3983 148.02 62.3983C148.02 62.3983 147.855 62.3754 147.877 62.0551C147.895 61.7406 148.089 61.7005 148.066 61.4317C148.043 61.1686 148.095 61.0028 147.952 60.8369L147.809 60.671C147.809 60.671 147.797 60.5509 147.98 60.5166L148.164 60.4823C148.164 60.4823 148.02 60.3164 148.129 60.0819C148.238 59.8475 148.272 59.9561 148.524 59.8875C148.782 59.8246 148.913 59.6072 149.131 59.5443C149.342 59.4814 149.251 59.693 149.646 59.4986C150.041 59.3098 150.441 59.1211 150.441 59.1211L150.453 59.1268Z" fill="#1A1A18"/>
<path d="M147.751 61.2372C147.751 61.2372 147.328 61.403 147.202 61.4602C147.076 61.5174 147.122 61.5575 147.133 61.689C147.145 61.8205 147.196 61.9521 147.048 61.9864C146.899 62.0207 146.91 62.158 147.008 62.2838C147.105 62.4096 147.271 62.6441 147.179 62.81C147.082 62.9759 146.893 63.0559 146.933 63.3019L146.973 63.5478L147.128 63.3533C147.128 63.3533 147.151 63.3762 147.236 63.0331C147.317 62.6899 147.288 62.627 147.477 62.5412L147.666 62.4554C147.666 62.4554 147.666 62.2552 147.648 61.9407C147.626 61.6261 147.689 61.6032 147.757 61.4145L147.826 61.2314H147.74L147.751 61.2372Z" fill="#1A1A18"/>
<path fill-rule="evenodd" clip-rule="evenodd" d="M159.867 68.0833C160.456 67.1052 160.897 66.2187 161.635 65.4924C162.596 64.5487 163.581 64.5372 164.611 63.645C164.439 64.4686 164.302 65.4352 163.701 66.1044C162.86 67.0366 161.372 66.9394 160.513 67.6028C161.303 66.9222 162.768 66.7049 163.112 65.2522C161.933 65.6354 160.822 66.6877 159.867 68.0833Z" fill="#1A1A18"/>
<path fill-rule="evenodd" clip-rule="evenodd" d="M158.779 69.0842C157.652 70.7829 156.811 72.3328 155.449 73.5682C153.669 75.1811 151.906 75.1239 150.012 76.651C150.373 75.1982 150.687 73.4767 151.803 72.3271C153.371 70.72 156.015 71.0117 157.589 69.8907C156.13 71.0403 153.503 71.3319 152.788 73.8942C154.922 73.2994 156.971 71.5035 158.768 69.0899L158.779 69.0842Z" fill="#1A1A18"/>
<path fill-rule="evenodd" clip-rule="evenodd" d="M183.239 67.4429C182.649 67.2542 182.163 67.0425 181.602 67.0082C180.875 66.9682 180.452 67.3285 179.713 67.3285C180.068 67.6088 180.463 67.9691 180.944 68.0263C181.619 68.1064 182.209 67.5173 182.798 67.4772C182.231 67.4887 181.539 67.9348 180.892 67.4543C181.522 67.1798 182.352 67.2084 183.233 67.4429H183.239Z" fill="#1A1A18"/>
<path fill-rule="evenodd" clip-rule="evenodd" d="M182.54 67.5057C182.34 67.0939 182.197 66.7221 181.928 66.4019C181.579 65.9901 181.184 65.9443 180.806 65.5439C180.847 65.8814 180.864 66.2703 181.081 66.562C181.384 66.9681 181.98 66.9852 182.3 67.2884C182.008 66.9852 181.43 66.8422 181.344 66.2474C181.802 66.4476 182.209 66.9109 182.54 67.5057Z" fill="#1A1A18"/>
<path d="M188.006 70.0452C188.006 70.0452 188.011 70.3712 187.765 70.4284C187.514 70.4856 187.21 70.3998 187.073 70.3198C186.936 70.2397 186.878 70.2683 186.701 70.2054C186.524 70.1367 186.512 70.1596 186.392 70.0624C186.272 69.9652 186.22 69.9366 186.014 69.9652C185.802 69.988 185.402 69.9652 185.236 69.8851C185.07 69.805 185.001 69.6392 184.807 69.5305C184.584 69.4047 184.194 69.256 184.103 68.9814C184.068 68.8842 184.103 68.7927 184.091 68.6955C184.526 68.7984 184.801 69.3017 185.19 69.4733C185.511 69.6163 185.934 69.7993 186.283 69.8107C185.682 69.6792 185.682 69.6334 185.419 69.5362C185.242 69.4733 185.007 69.3131 184.847 69.1816C184.681 69.0386 184.377 68.6611 184.08 68.5639C184.263 68.5639 184.738 68.8613 184.904 68.8842C185.413 68.9528 186.655 69.908 187.096 70.0681C186.455 69.6906 184.749 68.5124 184.097 68.4667C184.429 68.4896 184.652 68.3065 185.659 68.4724C185.293 68.3294 184.538 68.2665 184.217 68.318C183.943 68.3637 183.874 68.1922 183.685 68.0377C183.685 68.0377 184.418 67.746 184.772 67.8776C185.127 68.0091 185.682 68.2036 186.071 68.5468C186.455 68.8842 186.97 69.4275 187.153 69.6106C187.33 69.7936 187.456 69.8508 187.685 69.9251C187.92 69.9995 188.023 70.0567 188.023 70.0567L188.006 70.0452Z" fill="#1A1A18"/>
<path d="M183.479 68.0375C183.822 68.6552 183.759 69.9021 183.553 70.514C183.645 69.8792 183.708 68.7582 183.342 68.0661C183.141 68.3521 183.118 69.2787 183.067 69.6333C183.004 70.0851 182.872 71.126 182.787 71.5664C182.718 71.9382 182.746 71.7494 182.712 72.0754C182.953 70.8801 182.975 69.1986 183.153 67.9861C183.067 68.5923 182.621 69.1357 182.449 69.7133C182.272 70.3139 182.14 71.1317 181.985 71.9496C182.306 69.1585 182.729 68.3807 182.993 67.946C182.437 68.4436 182.214 68.7468 181.985 69.0728C181.756 69.3988 181.476 69.9535 181.178 70.657C181.362 70.1423 181.779 69.2443 181.928 69.0098C182.168 68.6324 182.478 68.1748 182.666 67.906C182.146 68.3235 181.396 69.4216 181.15 70.1194C180.99 70.5712 180.864 70.9773 181.104 71.1889C181.344 71.3948 181.407 71.3948 181.447 71.5321C181.487 71.6751 181.545 71.7437 181.608 71.738C181.665 71.738 181.699 71.738 181.774 71.8409C181.848 71.9439 182.003 72.0354 182.106 72.0468C182.209 72.064 182.226 72.0297 182.289 72.0754C182.352 72.1212 182.426 72.1955 182.586 72.2299C182.746 72.2699 182.781 72.2127 182.815 72.2013C182.85 72.1955 182.947 72.207 183.096 72.1326C183.25 72.0583 183.359 71.8581 183.485 71.6522C183.605 71.452 183.84 70.8115 183.891 70.2338C183.937 69.6561 183.983 69.1986 183.925 68.9412C183.874 68.7239 183.799 68.2206 183.479 68.0147V68.0375Z" fill="#1A1A18"/>
<path d="M180.858 70.64C180.858 70.64 180.715 70.6972 180.6 70.6686C180.486 70.64 180.417 70.6286 180.303 70.6572C180.188 70.6858 180.097 70.6972 180.063 70.6057C180.028 70.5199 180.051 70.4112 180.022 70.3712C179.994 70.3312 179.982 70.3083 180.057 70.2168C180.125 70.1253 180.434 69.7707 180.537 69.6563C180.64 69.5476 180.881 69.1816 181.093 69.0214C181.304 68.8613 181.447 68.8098 181.568 68.7183C181.693 68.6211 181.762 68.6096 181.9 68.4838C182.037 68.358 182.123 68.3008 182.123 68.3008C182.123 68.3008 181.705 68.7412 181.533 69.0615C181.367 69.3817 181.144 69.702 181.035 69.9823C180.927 70.2625 180.869 70.5313 180.869 70.5313L180.852 70.6457L180.858 70.64Z" fill="#1A1A18"/>
<path d="M179.719 70.4683C179.719 70.4683 179.502 70.6913 179.364 70.7599C179.233 70.8286 179.135 70.8 179.072 70.7256C179.009 70.6513 178.947 70.554 178.975 70.4683L178.998 70.3825C178.998 70.3825 179.015 70.4511 179.067 70.4168C179.118 70.3882 179.198 70.1937 179.296 70.0164C179.399 69.8391 179.576 69.5875 179.874 69.2958C180.183 68.9927 180.658 68.6609 181.184 68.3692C181.344 68.2777 181.848 68.0318 182.312 67.946C182.186 68.0032 181.745 68.232 181.573 68.3635C181.396 68.5008 181.133 68.6152 180.927 68.7238C180.503 68.9526 180.062 69.1928 179.902 69.7362C180.114 69.1185 180.721 68.8611 181.299 68.5694C181.705 68.3635 182.02 68.0718 182.46 67.9346C182.231 68.1233 181.934 68.2491 181.688 68.415C181.333 68.6552 181.012 68.7982 180.503 69.4045C179.994 70.005 179.713 70.4797 179.713 70.4797L179.719 70.4683Z" fill="#1A1A18"/>
<path d="M182.18 72.2185C182.18 72.2185 181.951 72.493 181.831 72.4873C181.705 72.4873 181.585 72.4472 181.556 72.39L181.528 72.3386C181.528 72.3386 181.505 72.35 181.419 72.3443C181.333 72.3443 181.322 72.3328 181.281 72.2471C181.241 72.167 181.247 72.0984 181.201 72.0869C181.156 72.0755 181.087 72.127 181.03 72.1041C180.972 72.0812 180.932 72.0011 180.909 71.9211C180.881 71.841 180.875 71.8067 180.875 71.8067C180.875 71.8067 180.795 71.7724 180.732 71.7609C180.669 71.7495 180.6 71.738 180.572 71.658C180.543 71.5779 180.52 71.2633 180.532 71.1261C180.555 70.9888 180.549 70.9144 180.549 70.9144C180.549 70.9144 180.721 70.9144 180.778 70.8973L180.829 70.8801C180.829 70.8801 180.847 71.086 180.887 71.1833C180.921 71.2805 181.133 71.4406 181.207 71.4749C181.276 71.5093 181.31 71.6351 181.356 71.7266C181.402 71.8238 181.539 71.9096 181.613 71.9211C181.688 71.9325 181.699 72.024 181.814 72.1041C181.928 72.1841 181.957 72.2299 182.043 72.2185C182.134 72.207 182.18 72.2185 182.18 72.2185Z" fill="#1A1A18"/>
<path d="M185.797 72.6131C185.797 72.6131 185.722 72.8705 185.585 72.9334C185.448 72.9963 185.327 73.0306 185.202 73.0077C185.076 72.9906 184.875 72.8362 184.818 72.6589C184.761 72.4816 184.709 72.3271 184.709 72.3271C184.709 72.3271 184.595 72.1041 184.555 71.9897C184.509 71.8753 184.503 71.6751 184.446 71.5951C184.389 71.515 184.343 71.4692 184.252 71.372C184.16 71.2748 184.046 71.086 184 70.9945C184 70.9945 184.12 70.4798 184.126 70.3482C184.131 70.2167 184.177 69.8964 184.16 69.6733C184.143 69.456 184.114 69.3245 184.114 69.3245C184.114 69.3245 184.234 69.4617 184.4 69.5647C184.561 69.6619 184.692 69.6676 184.818 69.8335C184.95 69.9993 185.093 70.1195 185.173 70.1309L185.253 70.1423C185.253 70.1423 185.356 70.8115 185.322 71.1146C185.293 71.412 185.247 71.9954 185.293 72.2242C185.322 72.3615 185.327 72.6989 185.465 72.779C185.585 72.8533 185.751 72.7447 185.791 72.6188L185.797 72.6131Z" fill="#1A1A18"/>
<path d="M184.938 73.1794C184.938 73.1794 184.584 73.1508 184.526 73.0364C184.469 72.922 184.315 72.7847 184.286 72.5617C184.257 72.3386 184.194 71.9726 184.074 71.8639C183.954 71.7552 183.731 71.5951 183.731 71.5951C183.731 71.5951 183.725 71.5665 183.794 71.4006C183.868 71.2348 183.885 71.1318 183.885 71.1318C183.885 71.1318 184.017 71.3206 184.137 71.4636C184.252 71.6123 184.337 71.6237 184.429 71.9325C184.521 72.2414 184.601 72.4473 184.641 72.6074C184.681 72.7676 184.698 72.8877 184.847 73.0078C184.99 73.1336 184.944 73.1794 184.944 73.1794H184.938Z" fill="#1A1A18"/>
<path d="M184.435 73.1278C184.435 73.1278 184.32 73.2364 184.252 73.2822C184.183 73.3222 184.04 73.2765 183.971 73.1507C183.902 73.0248 183.794 72.9162 183.674 72.7846C183.553 72.6531 183.365 72.4929 183.347 72.3728L183.324 72.2527C183.324 72.2527 183.405 72.1097 183.479 72.0182C183.553 71.9267 183.588 71.8524 183.628 71.7837L183.662 71.7151C183.662 71.7151 183.782 71.7551 183.931 71.9324C184.08 72.1097 184.12 72.2813 184.166 72.5444C184.217 72.8075 184.24 72.8876 184.337 72.9848C184.435 73.0763 184.469 73.1221 184.469 73.1221H184.429L184.435 73.1278Z" fill="#1A1A18"/>
<path d="M183.582 72.8419C183.582 72.8419 183.462 72.7333 183.382 72.6589C183.307 72.5846 183.227 72.5216 183.227 72.4301V72.3386C183.227 72.3386 183.067 72.3272 182.964 72.3729C182.855 72.4187 182.718 72.4358 182.621 72.4244C182.523 72.4072 182.38 72.3501 182.334 72.3157C182.289 72.2814 182.231 72.2585 182.231 72.2585C182.231 72.2585 182.163 72.3901 182.083 72.4301C182.003 72.4702 182.008 72.5159 182.008 72.5159C182.008 72.5159 181.962 72.5674 182.054 72.6589C182.14 72.7504 182.209 72.7047 182.271 72.7962C182.334 72.882 182.392 72.9163 182.392 73.0078V73.0993C182.392 73.0993 182.415 73.1393 182.483 73.0993L182.546 73.0593C182.546 73.0593 182.546 73.1508 182.638 73.1908C182.729 73.2308 182.712 73.1908 182.809 73.1393C182.901 73.0879 182.998 73.1165 183.078 73.0764C183.159 73.0364 183.078 73.0021 183.244 72.9506C183.41 72.8991 183.582 72.8476 183.582 72.8476V72.8419Z" fill="#1A1A18"/>
<path d="M182.226 72.9447C182.226 72.9447 182.054 73.0077 182.003 73.0248C181.951 73.042 181.951 73.0191 181.922 72.9733C181.888 72.9333 181.871 72.8761 181.819 72.9047C181.768 72.9333 181.734 72.8933 181.734 72.8246C181.734 72.7617 181.722 72.6416 181.653 72.6187C181.579 72.5959 181.505 72.6187 181.453 72.5387L181.402 72.4529L181.499 72.47C181.499 72.47 181.499 72.4586 181.613 72.5387C181.728 72.6187 181.734 72.6473 181.814 72.6187L181.894 72.5959C181.894 72.5959 181.945 72.6531 182.02 72.756C182.094 72.859 182.117 72.8475 182.186 72.8818L182.254 72.9219L182.226 72.9447Z" fill="#1A1A18"/>
<path fill-rule="evenodd" clip-rule="evenodd" d="M184.131 67.563C184.561 67.6945 184.921 67.8432 185.327 67.8604C185.86 67.8833 186.157 67.6145 186.701 67.603C186.438 67.4029 186.146 67.1455 185.797 67.1112C185.305 67.0597 184.881 67.4944 184.452 67.5287C184.864 67.5172 185.362 67.1855 185.837 67.5287C185.379 67.7346 184.778 67.7231 184.131 67.563Z" fill="#1A1A18"/>
<path fill-rule="evenodd" clip-rule="evenodd" d="M188.429 65.8243C187.21 64.2972 183.639 65.0007 183.605 67.6259C183.439 67.197 183.37 66.7509 183.588 66.3734C183.073 66.4821 182.369 66.5221 181.911 66.2247C181.447 65.9273 180.881 65.0865 181.871 64.9721C181.871 63.8225 183.645 63.7768 183.593 65.1094C183.599 65.1151 183.445 65.2238 183.439 65.2295C183.416 64.1771 182.203 64.303 182.231 65.2066C182.26 66.3047 183.387 66.0359 183.891 65.7328C185.293 64.8921 186.964 64.2 188.355 65.647L188.429 65.8243Z" fill="#1A1A18"/>
<path fill-rule="evenodd" clip-rule="evenodd" d="M188.693 65.9444C188.315 65.2752 188.046 64.6747 187.565 64.1771C186.947 63.5251 186.283 63.4965 185.619 62.873C185.717 63.4278 185.785 64.0798 186.174 64.5374C186.718 65.178 187.714 65.1436 188.269 65.6126C187.754 65.1436 186.781 64.9606 186.581 63.9826C187.359 64.2629 188.08 64.9949 188.687 65.9444H188.693Z" fill="#1A1A18"/>
<path fill-rule="evenodd" clip-rule="evenodd" d="M193.46 58.023C192.246 62.2496 194.032 66.5791 198.473 67.9232C202.307 69.09 205.849 68.2263 208.511 66.0301C206.851 68.3579 203.394 68.9698 200.71 69.4446C197.134 70.0794 193.5 68.1005 191.279 65.2522C188.092 61.1572 185.213 47.8196 177.876 51.766L178.586 51.48C185.385 49.3638 188 62.8673 191.188 66.9681C193.402 69.8163 197.477 71.8696 201.059 71.2347C204.436 70.6399 208.396 70.0794 209.117 65.9214L209.186 65.4353C209.861 64.7775 210.473 64.034 211.006 63.2047L210.576 63.3248C210.187 63.4792 209.792 63.6909 209.392 63.9368V63.8853C209.392 63.8853 209.392 63.9196 209.392 63.9368C207.801 64.9091 206.118 66.379 204.293 66.6077C202.656 66.8136 201.38 66.8937 199.737 66.7393C196.664 66.4419 193.952 64.2342 194.261 60.9112C194.507 58.2231 196.607 56.6903 199.051 57.9372C201.059 58.9609 202.124 62.261 199.371 62.9645C202.399 63.8682 203.663 59.5043 202.387 57.3652C200.304 53.8707 194.587 54.0937 193.46 58.023ZM185.694 60.7053H185.705C185.448 60.2592 185.173 59.8989 184.893 59.6072C183.462 57.6855 182.1 56.0784 180.726 55.2834C178.494 53.9908 176.56 53.4475 174.941 53.3331C175.41 53.0185 176.039 53.2759 176.572 53.2301C177.728 53.1272 177.991 52.315 178.763 51.5829C178.626 51.7145 178.111 51.989 177.928 52.0176C177.733 52.0519 177.607 51.9604 177.401 51.9947C176.846 52.0862 176.297 52.4408 175.782 52.7783C176.537 51.8575 178.037 51.0167 179.267 51.0682C177.699 50.4734 175.347 51.6802 174.643 53.3159C172.56 53.2358 171.02 53.8821 170.07 54.557C167.152 56.6274 165.401 61.5461 166.848 65.0578C168.308 68.5981 171.535 71.269 175.141 70.2681C175.971 70.2967 176.531 70.7772 176.652 71.2004C176.823 71.7895 176.6 72.3786 176.205 72.4815C175.81 72.6131 175.69 72.4701 175.673 72.3271C175.639 72.1899 175.77 72.1899 175.879 72.1956C176.091 72.2242 176.325 71.9668 176.234 71.6351C176.131 71.3148 175.885 71.1546 175.49 71.2862C175.112 71.4063 174.963 71.8353 175.055 72.1956C175.169 72.5845 175.633 72.9448 176.257 72.7446C176.869 72.5559 177.138 71.7952 176.955 71.1318C176.841 70.7314 176.423 70.251 175.685 70.1023C175.988 69.9879 176.291 69.8506 176.594 69.6848C178.964 68.3808 181.012 64.2857 178.534 61.6776L178.901 62.1466C180.206 65.0349 178.998 67.6029 177.098 68.9927C178.672 67.1682 178.065 63.7423 175.828 62.6328H175.816C178.1 63.7995 178.655 67.3856 176.892 69.1472C176.749 69.2444 176.606 69.3302 176.451 69.416C172.257 71.7437 168.394 68.5581 167.106 64.7318C165.944 61.3002 167.472 57.0049 170.248 55.0374C171.135 54.4083 172.583 53.7334 174.529 53.7105C174.494 53.8478 174.466 53.9851 174.46 54.1223C174.511 53.9565 174.569 53.8249 174.632 53.7105C176.245 53.7105 178.197 54.1681 180.457 55.4778C180.932 55.7524 181.407 56.1298 181.882 56.5874C180.343 55.535 178.489 54.8659 176.703 54.6028C173.933 54.1967 168.897 56.3357 169.504 60.814C169.441 59.0067 169.75 58.1888 170.929 56.8905C171.862 55.861 173.075 55.3063 174.397 54.986C176.812 54.4026 178.637 55.2376 180.743 56.473C181.762 57.0678 182.798 57.777 183.674 58.6349C183.719 58.6978 183.771 58.755 183.811 58.8179C182.97 58.4176 182.191 58.532 181.739 58.8179C180.921 59.3556 180.497 60.4537 180.984 61.2773C181.476 62.1295 182.317 62.1981 182.809 61.8893C183.244 61.5861 183.49 60.9684 183.193 60.4594C182.884 59.9161 182.46 59.8532 182.048 60.0934C181.636 60.3622 181.642 60.8826 181.905 61.0599C182.037 61.1686 182.168 61.3002 182.008 61.4145C181.854 61.5575 181.59 61.5918 181.287 61.0542C180.955 60.5509 181.259 59.6816 181.997 59.2126C182.5 58.8866 183.496 58.9037 184.4 59.6072C189.305 66.3389 195.033 77.3201 206.605 71.1032L207.99 68.8555C197.008 77.6919 190.821 67.8317 185.699 60.7282L185.694 60.7053ZM179.502 62.9359C179.576 61.0256 177.218 58.8294 175.393 59.2755C176.72 59.2755 176.509 60.3336 176.789 61.0314C177.218 62.0952 178.014 62.1066 178.895 62.6156C178.735 62.5241 178.346 62.118 178.266 61.9522C178.18 61.7806 178.22 61.6319 178.134 61.4489C177.888 60.9513 177.413 60.5338 176.966 60.1506C178.002 60.591 179.187 61.7577 179.502 62.9359ZM172.417 63.0674C172.302 63.2276 172.228 63.4163 172.199 63.6051C172.154 63.8167 172.165 64.0283 172.268 64.1999L172.291 64.2228C172.348 64.3257 172.434 64.4172 172.543 64.4859C172.554 64.4859 172.56 64.4973 172.566 64.503C172.566 64.503 172.594 64.5145 172.611 64.5202L172.663 64.543C172.623 64.5259 172.588 64.4973 172.554 64.4744L172.394 64.3143C172.394 64.3143 172.382 64.2971 172.377 64.2914C172.291 64.1141 172.371 63.9196 172.583 63.8167C172.245 63.4907 172.68 62.8387 172.966 62.6099C172.966 62.6099 172.955 62.6099 172.955 62.6156C173.773 62.0494 174.952 62.1867 175.81 62.6156C175.799 62.6099 175.788 62.5985 175.776 62.5927C174.723 62.0723 173.201 61.975 172.428 63.0674H172.417ZM172.966 62.6099C172.978 62.6042 172.978 62.6099 172.966 62.6099V62.6099ZM169.498 60.8712C169.498 60.8712 169.492 60.814 169.487 60.7854C169.487 60.8255 169.487 60.8598 169.487 60.8998V60.8712H169.498ZM169.83 60.4308C169.796 60.6253 169.681 60.7168 169.647 60.917C169.555 61.466 169.693 62.0952 169.836 62.6785C169.258 61.6891 168.983 60.019 169.412 58.8751C168.245 60.3565 168.869 63.5765 170.585 64.3486C169.521 63.5307 170.299 62.8101 170.477 62.078C170.746 60.9627 170.111 60.4594 169.704 59.51C169.779 59.6816 169.859 60.2478 169.824 60.4308H169.83Z" fill="#1A1A18"/>
<path fill-rule="evenodd" clip-rule="evenodd" d="M173.573 55.3635C171.804 57.1708 167.283 55.7925 167.57 52.4009C167.301 52.9328 167.158 53.499 167.392 54.0137C166.745 53.8078 165.836 53.6649 165.206 53.9851C164.565 54.3111 163.741 55.3178 165 55.598C164.857 57.0793 167.146 57.3767 167.238 55.6438C167.249 55.6323 167.06 55.4779 167.055 55.4665C166.894 56.822 165.343 56.5017 165.486 55.3349C165.658 53.9165 167.077 54.4198 167.695 54.8774C169.401 56.1471 171.473 57.2623 173.453 55.5751L173.573 55.3578V55.3635Z" fill="#1A1A18"/>
<path fill-rule="evenodd" clip-rule="evenodd" d="M64.25 14.55C67.7295 18.3477 77.0176 15.8368 76.6513 8.92212C77.1664 10.026 77.4296 11.1927 76.9088 12.2108C78.2423 11.8333 80.1022 11.6045 81.3612 12.2966C82.6374 13 84.2627 15.1048 81.6817 15.5852C81.8762 18.6107 77.2121 19.0626 77.1206 15.5394C77.0977 15.5166 77.4926 15.2192 77.504 15.1963C77.7386 17.9702 80.9205 17.4097 80.6973 15.0361C80.4341 12.1478 77.5097 13.0687 76.2336 13.9609C72.6854 16.4317 68.3933 18.565 64.4789 15.0018L64.25 14.5557V14.55Z" fill="#1A1A18"/>
<path fill-rule="evenodd" clip-rule="evenodd" d="M41.416 7.90406C42.469 4.14071 49.4851 2.51641 51.5396 7.25205C51.5167 6.33695 51.2993 5.46761 50.6183 4.97002C51.6312 4.74697 52.9474 4.24366 53.5541 3.33428C54.1721 2.41346 54.5498 0.434555 52.6728 1.02937C51.7972 -1.05248 48.5409 0.303009 49.6568 2.68227C49.6511 2.70515 50.0116 2.76234 50.0231 2.77378C49.2562 0.84635 51.5568 0.0856726 52.2035 1.75001C52.9875 3.76895 50.7384 4.19219 49.5939 4.0492C46.412 3.66028 42.8467 3.76323 41.4274 7.52658V7.90406H41.416Z" fill="#1A1A18"/>
<path fill-rule="evenodd" clip-rule="evenodd" d="M24.0072 18.8168C27.1433 20.4983 27.3035 27.4073 22.7424 28.4825C23.5608 28.6312 24.362 28.5855 24.9286 28.0307C24.94 29.0258 25.146 30.3585 25.8385 31.0963C26.5424 31.8455 28.2192 32.5661 28.036 30.6845C30.0333 30.2384 29.4324 26.9154 27.1261 27.5331C27.109 27.5216 26.9888 27.8534 26.9773 27.8648C28.8201 27.4931 29.0719 29.8037 27.4867 30.1068C25.5638 30.4786 25.5981 28.2823 25.9301 27.2242C26.8514 24.2902 27.4065 20.91 24.3448 18.8854L24.0129 18.811L24.0072 18.8168Z" fill="#1A1A18"/>
<path fill-rule="evenodd" clip-rule="evenodd" d="M29.5812 31.5766C30.1306 31.0047 30.5598 30.4728 31.1721 30.0953C31.9676 29.6092 32.6429 29.7579 33.4784 29.3118C33.2381 29.8437 32.9977 30.4842 32.4884 30.8388C31.773 31.3421 30.7773 31.0333 30.0963 31.3479C30.7372 31.0161 31.7673 31.0962 32.2194 30.164C31.3553 30.2326 30.4454 30.7759 29.5812 31.5709V31.5766Z" fill="#1A1A18"/>
<path fill-rule="evenodd" clip-rule="evenodd" d="M30.3996 31.222C30.3938 30.6386 30.3423 30.1353 30.4568 29.6148C30.617 28.9342 31.0348 28.654 31.2351 27.9734C31.3839 28.3737 31.5842 28.8256 31.5041 29.2831C31.3953 29.9237 30.7315 30.3012 30.5426 30.8331C30.6972 30.3183 31.2637 29.8036 31.0234 29.0887C30.617 29.5863 30.4282 30.3527 30.3938 31.222H30.3996Z" fill="#1A1A18"/>
<path d="M25.6954 37.3874C25.6954 37.3874 25.8728 37.7649 26.1876 37.6734C26.5023 37.5876 26.7942 37.3073 26.9087 37.1358C27.0174 36.9642 27.1032 36.9585 27.2635 36.7812C27.4237 36.5981 27.4523 36.621 27.5324 36.4323C27.6126 36.2493 27.6526 36.1863 27.9044 36.0891C28.1562 35.9919 28.5912 35.7174 28.7342 35.5229C28.8773 35.3284 28.8601 35.0997 29.0146 34.8652C29.1921 34.5906 29.5469 34.1846 29.4954 33.8185C29.4782 33.687 29.3924 33.6012 29.3466 33.4925C28.9116 33.87 28.8945 34.6021 28.5511 35.031C28.2707 35.3799 27.8987 35.8489 27.5153 36.072C28.1162 35.5629 28.0876 35.5057 28.3279 35.2427C28.4881 35.0596 28.6656 34.7393 28.7686 34.4991C28.8716 34.2418 28.9975 33.6298 29.2779 33.3381C29.0719 33.4525 28.7056 34.0702 28.5339 34.196C28.0017 34.5849 27.149 36.4094 26.7427 36.8498C27.2463 36.0319 28.4996 33.687 29.2035 33.2352C28.843 33.4582 28.4882 33.3953 27.4523 34.1903C27.7785 33.8071 28.5912 33.2809 28.986 33.1436C29.318 33.0293 29.2951 32.7948 29.4267 32.5088C29.4267 32.5088 28.4366 32.6232 28.1162 32.9835C27.79 33.3438 27.2749 33.91 27.0346 34.522C26.7942 35.134 26.5252 36.0605 26.4222 36.3694C26.3249 36.6839 26.2219 36.8212 26.0044 37.0443C25.787 37.2673 25.7011 37.3931 25.7011 37.3931L25.6954 37.3874Z" fill="#1A1A18"/>
<path d="M29.6442 32.3887C29.6098 33.2866 30.3881 34.6535 30.9661 35.214C30.5026 34.5563 29.7987 33.3324 29.8158 32.3372C30.205 32.5431 30.7601 33.5668 31.0119 33.9329C31.3381 34.4019 32.0821 35.4886 32.4254 35.9404C32.7116 36.3179 32.58 36.1234 32.7974 36.4666C31.8532 35.2769 30.8746 33.3953 29.9875 32.137C30.4282 32.7661 31.2351 33.1093 31.7559 33.6526C32.2938 34.2189 32.9062 35.0539 33.5414 35.8832C31.6014 32.9377 30.6857 32.3257 30.142 31.994C31.0462 32.2171 31.4697 32.423 31.9104 32.6517C32.3511 32.8805 32.9806 33.3324 33.7188 33.9443C33.2152 33.4753 32.2423 32.7204 31.9447 32.5488C31.464 32.2743 30.8574 31.9425 30.4911 31.7595C31.3152 31.9082 32.7803 32.6918 33.4498 33.3266C33.8848 33.7384 34.2625 34.1216 34.108 34.4991C33.9534 34.8823 33.8848 34.9109 33.9191 35.0996C33.9534 35.2769 33.9248 35.397 33.8562 35.4256C33.7875 35.46 33.7474 35.4771 33.7245 35.643C33.7016 35.8088 33.5757 35.9919 33.467 36.0777C33.3583 36.1577 33.3239 36.1291 33.2724 36.2206C33.2266 36.3121 33.1866 36.438 33.0263 36.5752C32.8661 36.7125 32.7974 36.6725 32.7516 36.6839C32.7059 36.7011 32.6086 36.7697 32.3968 36.7811C32.1851 36.7926 31.939 36.6324 31.6929 36.478C31.4354 36.3236 30.8116 35.7516 30.4339 35.1282C30.0505 34.5048 29.7415 34.0187 29.6671 33.6984C29.5984 33.4239 29.4038 32.8119 29.6442 32.3887Z" fill="#1A1A18"/>
<path d="M34.0622 33.7272C34.0622 33.7272 34.251 33.7043 34.3712 33.6013C34.4857 33.4984 34.5543 33.4469 34.6974 33.4069C34.8405 33.3668 34.9492 33.3211 34.9378 33.2067C34.9263 33.0923 34.8405 32.9779 34.8519 32.915C34.8634 32.8521 34.8519 32.8235 34.726 32.7549C34.5944 32.692 34.0507 32.4803 33.8676 32.4174C33.6902 32.3602 33.2095 32.0971 32.8833 32.04C32.5513 31.9885 32.3682 32.0171 32.1736 31.9885C31.9791 31.9542 31.8932 31.9828 31.6643 31.9256C31.4354 31.8684 31.3095 31.8569 31.3095 31.8569C31.3095 31.8569 32.0306 32.1029 32.3968 32.3545C32.7631 32.6119 33.198 32.8349 33.4784 33.0866C33.7589 33.3383 33.9763 33.6013 33.9763 33.6013L34.0564 33.7157L34.0622 33.7272Z" fill="#1A1A18"/>
<path d="M35.2468 32.8463C35.2468 32.8463 35.6188 32.9665 35.8076 32.9607C35.9965 32.9607 36.088 32.8692 36.1167 32.7434C36.1453 32.6233 36.1567 32.4746 36.0823 32.3945L36.0079 32.3144C36.0079 32.3144 36.0251 32.4002 35.9507 32.3945C35.8763 32.3945 35.676 32.2229 35.4643 32.0857C35.2525 31.9484 34.9091 31.7711 34.4113 31.6281C33.8905 31.4737 33.1694 31.3879 32.4083 31.3765C32.1794 31.3765 31.4755 31.3993 30.8975 31.5824C31.0691 31.5652 31.6986 31.5595 31.9676 31.6052C32.2423 31.651 32.6029 31.6167 32.9004 31.6167C33.5071 31.6167 34.1366 31.6167 34.623 32.1314C34.0336 31.5652 33.2095 31.6453 32.3968 31.6624C31.8245 31.6739 31.3038 31.5423 30.7258 31.651C31.0863 31.7253 31.4926 31.6853 31.8646 31.7196C32.4026 31.7711 32.8432 31.7425 33.7531 32.1085C34.6688 32.4803 35.2468 32.8349 35.2468 32.8349V32.8463Z" fill="#1A1A18"/>
<path d="M33.4727 36.3007C33.4727 36.3007 33.8848 36.4723 34.0164 36.3865C34.148 36.3064 34.2682 36.192 34.2682 36.112V36.0376C34.2682 36.0376 34.3025 36.0319 34.3998 35.9804C34.4971 35.929 34.5028 35.9061 34.4971 35.7917C34.4971 35.6773 34.4513 35.6029 34.4971 35.5629C34.5372 35.5229 34.6459 35.54 34.7031 35.4828C34.7546 35.4199 34.7546 35.3055 34.7375 35.2026C34.7203 35.0939 34.7146 35.0539 34.7146 35.0539C34.7146 35.0539 34.7832 34.9681 34.8462 34.9223C34.9091 34.8766 34.9835 34.8194 34.9664 34.7107C34.9492 34.6021 34.8061 34.236 34.7031 34.093C34.6001 33.95 34.56 33.8643 34.56 33.8643C34.56 33.8643 34.3655 33.9672 34.2968 33.9786L34.2281 33.9901C34.2281 33.9901 34.3254 34.236 34.3369 34.3618C34.354 34.4934 34.2052 34.8022 34.148 34.8823C34.0908 34.9624 34.1251 35.1225 34.1251 35.2598C34.1251 35.3971 34.0221 35.5744 33.9477 35.6315C33.8733 35.6887 33.9134 35.7974 33.8333 35.9576C33.7531 36.1177 33.7417 36.1863 33.6387 36.2264C33.5299 36.2664 33.4784 36.3064 33.4784 36.3064L33.4727 36.3007Z" fill="#1A1A18"/>
<path d="M29.6384 38.9317C29.6384 38.9317 29.8673 39.1719 30.0562 39.1604C30.245 39.149 30.3996 39.109 30.5312 39.0117C30.6628 38.9145 30.8002 38.6171 30.7658 38.3883C30.7315 38.1538 30.7029 37.9479 30.7029 37.9479C30.7029 37.9479 30.7029 37.6276 30.6857 37.4732C30.6685 37.3188 30.5655 37.0957 30.5827 36.9699C30.5999 36.8441 30.6285 36.7697 30.6743 36.6039C30.72 36.438 30.7429 36.1578 30.7372 36.0262C30.7372 36.0262 30.308 35.5172 30.2279 35.3742C30.1478 35.2312 29.9131 34.8995 29.8044 34.6421C29.6957 34.3848 29.6556 34.2246 29.6556 34.2246C29.6556 34.2246 29.5984 34.4534 29.4725 34.665C29.3466 34.8709 29.2035 34.9567 29.152 35.2198C29.1005 35.4829 29.0032 35.7059 28.9231 35.7688L28.8372 35.8318C28.8372 35.8318 29.1005 36.6496 29.3065 36.9642C29.5125 37.2788 29.8902 37.9022 29.9646 38.1939C30.0104 38.3597 30.1935 38.7429 30.0905 38.9202C29.999 39.0746 29.7529 39.0575 29.6384 38.9374V38.9317Z" fill="#1A1A18"/>
<path d="M30.9261 39.0462C30.9261 39.0462 31.3095 38.8003 31.3152 38.6344C31.3152 38.4743 31.4125 38.2226 31.3152 37.9538C31.2237 37.685 31.0806 37.2389 31.155 37.0444C31.2294 36.85 31.3896 36.5297 31.3896 36.5297C31.3896 36.5297 31.3839 36.4954 31.2065 36.3524C31.0291 36.2094 30.9547 36.1064 30.9547 36.1064C30.9547 36.1064 30.9089 36.3981 30.8631 36.6326C30.8173 36.8671 30.7315 36.9358 30.8002 37.3361C30.8688 37.7422 30.8975 38.0224 30.9432 38.2226C30.989 38.4285 31.0348 38.5715 30.9432 38.8003C30.8517 39.029 30.9261 39.0519 30.9261 39.0519V39.0462Z" fill="#1A1A18"/>
<path d="M31.4583 38.6858C31.4583 38.6858 31.6529 38.7373 31.7501 38.743C31.8474 38.743 31.9848 38.6115 31.9848 38.4285C31.9905 38.2454 32.0535 38.0567 32.1107 37.8394C32.1679 37.6163 32.2881 37.3303 32.248 37.1816L32.2022 37.0329C32.2022 37.0329 32.0306 36.9243 31.8932 36.8671C31.7559 36.8099 31.6757 36.7527 31.6014 36.6898L31.5212 36.6326C31.5212 36.6326 31.4125 36.7527 31.3495 37.0386C31.2809 37.3303 31.3381 37.5419 31.4354 37.868C31.527 38.194 31.5498 38.3026 31.4926 38.4628C31.4297 38.6286 31.4239 38.6915 31.4239 38.6915L31.4697 38.6744L31.4583 38.6858Z" fill="#1A1A18"/>
<path d="M32.2538 37.845C32.2538 37.845 32.3282 37.6506 32.3682 37.519C32.4083 37.3875 32.4655 37.2674 32.414 37.1701L32.3625 37.0672C32.3625 37.0672 32.5399 36.9585 32.683 36.9471C32.8318 36.9356 32.9977 36.8727 33.095 36.7984C33.198 36.724 33.3182 36.5696 33.3468 36.5067C33.3811 36.4438 33.4327 36.3809 33.4327 36.3809C33.4327 36.3809 33.5872 36.4895 33.6959 36.4838C33.8104 36.4838 33.8275 36.5296 33.8275 36.5296C33.8275 36.5296 33.9076 36.5639 33.8619 36.7126C33.8161 36.867 33.7131 36.8613 33.6959 36.9986C33.6787 37.1358 33.633 37.2045 33.6845 37.3074L33.736 37.4046C33.736 37.4046 33.7302 37.4675 33.633 37.4618H33.5357C33.5357 37.4618 33.5872 37.559 33.507 37.6563C33.4212 37.7592 33.4212 37.702 33.2896 37.702C33.158 37.702 33.0607 37.7935 32.9519 37.7935C32.8375 37.7935 32.9119 37.7078 32.6887 37.7478C32.4712 37.7935 32.2538 37.8336 32.2538 37.8336V37.845Z" fill="#1A1A18"/>
<path d="M33.839 37.1416C33.839 37.1416 34.0679 37.1073 34.1366 37.0959C34.2052 37.0844 34.1881 37.0558 34.1938 36.9929C34.2052 36.9243 34.1938 36.8556 34.2739 36.8556C34.3483 36.8556 34.3598 36.787 34.3254 36.7127C34.2911 36.6383 34.2339 36.501 34.3025 36.4324C34.3712 36.3638 34.4742 36.3466 34.4799 36.2208V36.095L34.3884 36.1693C34.3884 36.1693 34.3769 36.1579 34.3025 36.318C34.2224 36.4782 34.2281 36.5125 34.1251 36.5296L34.0221 36.5468C34.0221 36.5468 33.9935 36.644 33.9706 36.8042C33.9477 36.9586 33.9134 36.97 33.8561 37.0501L33.7989 37.1359H33.8447L33.839 37.1416Z" fill="#1A1A18"/>
<path fill-rule="evenodd" clip-rule="evenodd" d="M28.6484 32.2515C28.2421 32.6633 27.9216 33.0465 27.4752 33.3096C26.8915 33.6584 26.405 33.5383 25.7927 33.8529C25.9701 33.4697 26.1532 33.0064 26.531 32.7491C27.0517 32.3944 27.7785 32.6289 28.2821 32.4059C27.8129 32.6404 27.0632 32.5718 26.7255 33.2466C27.355 33.2066 28.0246 32.8234 28.6598 32.2515H28.6484Z" fill="#1A1A18"/>
<path fill-rule="evenodd" clip-rule="evenodd" d="M40.7807 7.75545C40.7521 6.44571 40.632 5.32471 40.8952 4.16368C41.2386 2.64805 42.1714 2.00747 42.6006 0.497559C42.9325 1.38406 43.3903 2.39639 43.2187 3.41444C42.984 4.84429 41.5133 5.70219 41.1012 6.89182C41.4446 5.73651 42.6922 4.58691 42.1485 2.98549C41.2615 4.11221 40.8437 5.8223 40.7807 7.75545Z" fill="#1A1A18"/>
<path d="M47.8026 20.1435C47.8026 20.1435 48.3063 20.7726 48.8728 20.458C49.4336 20.1435 49.8686 19.4629 50.0002 19.0854C50.1318 18.7022 50.2921 18.6564 50.521 18.2332C50.7442 17.81 50.8071 17.8328 50.8758 17.4439C50.9445 17.055 51.0017 16.912 51.4309 16.6089C51.8601 16.3001 52.5755 15.568 52.7586 15.1333C52.9417 14.6986 52.8101 14.2697 52.999 13.7492C53.2164 13.1372 53.7086 12.1935 53.4453 11.5129C53.3538 11.2727 53.1535 11.1469 53.0104 10.9582C52.3466 11.8847 52.6384 13.2974 52.1863 14.2811C51.8086 15.0875 51.3107 16.1514 50.6755 16.7633C51.5854 15.4993 51.5225 15.4021 51.8544 14.7787C52.0833 14.3555 52.2779 13.6577 52.3523 13.143C52.4324 12.5996 52.4095 11.3642 52.8101 10.6779C52.4667 10.9982 52.0432 12.3537 51.7743 12.674C50.933 13.6691 50.1204 17.5698 49.5481 18.605C50.1433 16.8034 51.4824 11.7074 52.627 10.512C52.0375 11.1126 51.3279 11.1583 49.7083 13.183C50.1604 12.2908 51.471 10.8952 52.1691 10.4491C52.7586 10.0717 52.6098 9.63698 52.7185 9.01929C52.7185 9.01929 50.8815 9.71133 50.4294 10.5578C49.9716 11.4043 49.2391 12.7254 49.0617 14.0123C48.8843 15.2992 48.7698 17.1923 48.724 17.8386C48.6782 18.4849 48.5409 18.7994 48.2261 19.3313C47.9114 19.8632 47.8026 20.1435 47.8026 20.1435Z" fill="#1A1A18"/>
<path d="M53.0962 8.69902C53.4339 10.4377 55.5399 12.6683 56.8905 13.469C55.7058 12.428 53.8116 10.4377 53.3995 8.52743C54.2293 8.72761 55.7516 10.4205 56.404 10.9982C57.2395 11.736 59.1395 13.4575 60.0037 14.1553C60.719 14.7387 60.3756 14.4298 60.9479 14.9846C58.5958 13.1601 55.8832 10.0316 53.6227 8.06416C54.7558 9.05362 56.4498 9.31671 57.6916 10.1117C58.9793 10.9353 60.5302 12.2393 62.1039 13.5147C57.0736 8.82484 55.0477 8.09276 53.8574 7.71528C55.6829 7.71528 56.5814 7.90402 57.5371 8.12708C58.4814 8.34441 59.8892 8.91635 61.5717 9.7285C60.3985 9.07649 58.201 8.09848 57.5486 7.91546C56.5013 7.61805 55.1908 7.28633 54.4125 7.10331C56.0549 6.99464 59.2025 7.78391 60.7762 8.67614C61.7949 9.25379 62.6877 9.79714 62.5618 10.6036C62.4416 11.4043 62.3214 11.5015 62.4702 11.8275C62.619 12.1592 62.619 12.3937 62.4988 12.491C62.3843 12.5882 62.3157 12.6454 62.35 12.9714C62.3786 13.2917 62.2241 13.7149 62.0524 13.9208C61.8807 14.1324 61.7949 14.0924 61.7491 14.2926C61.7033 14.487 61.6804 14.7501 61.4401 15.0876C61.1997 15.4307 61.0509 15.3792 60.9708 15.425C60.8907 15.4765 60.7419 15.6595 60.3356 15.7796C59.9293 15.8997 59.397 15.711 58.8477 15.5394C58.2925 15.3735 56.8447 14.5728 55.8317 13.5662C54.8188 12.5596 54.0119 11.776 53.72 11.2041C53.4682 10.7122 52.8158 9.63127 53.0905 8.71045L53.0962 8.69902Z" fill="#1A1A18"/>
<path d="M62.144 9.12799C62.144 9.12799 62.5045 8.99644 62.6762 8.74479C62.8479 8.48742 62.9566 8.36159 63.2199 8.21861C63.4774 8.07562 63.6605 7.93836 63.5862 7.72102C63.5118 7.5094 63.3 7.33782 63.2943 7.212C63.2828 7.08617 63.2599 7.02898 62.9853 6.97178C62.7106 6.91459 61.5717 6.7716 61.1997 6.74301C60.8278 6.71441 59.7976 6.43988 59.1395 6.49707C58.4814 6.55427 58.1495 6.70297 57.7603 6.73157C57.3712 6.76588 57.2281 6.85739 56.7588 6.85739C56.2953 6.85739 56.0435 6.89743 56.0435 6.89743C56.0435 6.89743 57.5314 7.01182 58.3498 7.32638C59.1681 7.63523 60.101 7.864 60.7476 8.20717C61.3943 8.55605 61.9323 8.95069 61.9323 8.95069L62.1383 9.13371L62.144 9.12799Z" fill="#1A1A18"/>
<path d="M64.0039 6.88037C64.0039 6.88037 64.7708 6.92612 65.1313 6.82889C65.4918 6.73166 65.6292 6.52005 65.6292 6.26839C65.6292 6.02246 65.5891 5.73649 65.406 5.61639L65.2229 5.49628C65.2229 5.49628 65.303 5.6507 65.1485 5.6793C64.9997 5.71362 64.5476 5.48484 64.0783 5.31898C63.609 5.15884 62.8708 4.98153 61.8579 4.94722C60.7934 4.90718 59.3742 5.08448 57.9263 5.43337C57.4856 5.53631 56.1522 5.92523 55.1336 6.54864C55.4598 6.43998 56.6501 6.12541 57.1823 6.07966C57.7317 6.0339 58.407 5.79941 58.9736 5.65642C60.1296 5.37045 61.3314 5.06733 62.4931 5.81656C61.1139 5.02157 59.5745 5.56491 58.0293 5.99386C56.942 6.29699 55.8832 6.29699 54.836 6.77742C55.5628 6.7431 56.3182 6.47429 57.0392 6.36562C58.0922 6.2112 58.9163 5.93667 60.8278 6.20548C62.7392 6.46857 64.0096 6.88037 64.0096 6.88037H64.0039Z" fill="#1A1A18"/>
<path d="M62.1783 14.327C62.1783 14.327 63.0368 14.4528 63.2599 14.2355C63.4831 14.0124 63.6548 13.7436 63.6205 13.5949L63.5861 13.4462C63.5861 13.4462 63.6491 13.4176 63.8093 13.2689C63.9696 13.1202 63.9696 13.0744 63.9066 12.8571C63.8437 12.6398 63.7407 12.5197 63.8036 12.4224C63.8666 12.3252 64.084 12.3023 64.1584 12.1651C64.2328 12.0278 64.1699 11.8047 64.0955 11.6103C64.0154 11.4158 63.9867 11.3357 63.9867 11.3357C63.9867 11.3357 64.0783 11.1413 64.1813 11.0155C64.2786 10.8954 64.3988 10.7524 64.3187 10.5579C64.2385 10.3635 63.7979 9.7286 63.5404 9.49983C63.2828 9.27677 63.1684 9.13379 63.1684 9.13379C63.1684 9.13379 62.8365 9.42548 62.7106 9.47695L62.5846 9.53415C62.5846 9.53415 62.8765 9.95738 62.9624 10.1976C63.0482 10.4378 62.9051 11.1013 62.8307 11.2843C62.7621 11.4673 62.888 11.7533 62.9509 12.0164C63.0196 12.2794 62.8937 12.6741 62.7735 12.8171C62.6533 12.9601 62.7735 13.1545 62.6991 13.4977C62.619 13.8408 62.6304 13.9724 62.4416 14.1039C62.2584 14.2298 62.1783 14.327 62.1783 14.327Z" fill="#1A1A18"/>
<path d="M56.0263 21.2073C56.0263 21.2073 56.5757 21.5619 56.9305 21.4476C57.2911 21.3332 57.5658 21.1845 57.7718 20.9328C57.9778 20.6812 58.1151 20.0578 57.9377 19.6231C57.7603 19.1941 57.6173 18.8109 57.6173 18.8109C57.6173 18.8109 57.4742 18.199 57.3655 17.9073C57.2624 17.6213 56.9649 17.2381 56.942 16.9864C56.9248 16.7348 56.9362 16.5804 56.942 16.2429C56.9534 15.9055 56.8676 15.3564 56.8103 15.1105C56.8103 15.1105 55.7631 14.3498 55.5399 14.1153C55.3167 13.8808 54.7215 13.3546 54.401 12.92C54.0806 12.4796 53.9318 12.1936 53.9318 12.1936C53.9318 12.1936 53.9318 12.6626 53.7773 13.1201C53.6285 13.5777 53.3995 13.8122 53.4224 14.3384C53.4453 14.8646 53.3595 15.3393 53.2279 15.4994L53.0962 15.6595C53.0962 15.6595 53.9661 17.0951 54.504 17.5984C55.0363 18.1074 56.0378 19.1198 56.3125 19.6288C56.4784 19.9319 56.9935 20.5782 56.879 20.9557C56.7703 21.2989 56.2896 21.3846 56.0149 21.2016L56.0263 21.2073Z" fill="#1A1A18"/>
<path d="M58.5443 20.807C58.5443 20.807 59.1624 20.1493 59.0995 19.8405C59.0308 19.5316 59.0995 19.0111 58.8019 18.5422C58.5043 18.0732 58.0293 17.2839 58.0865 16.8721C58.1437 16.466 58.304 15.7797 58.304 15.7797C58.304 15.7797 58.2754 15.7168 57.8691 15.5223C57.4627 15.3336 57.2739 15.1677 57.2739 15.1677C57.2739 15.1677 57.3197 15.7454 57.3368 16.2144C57.354 16.6834 57.2167 16.8492 57.5314 17.587C57.8519 18.3191 58.0236 18.8453 58.201 19.217C58.3784 19.5831 58.5329 19.8405 58.4585 20.3152C58.3898 20.7899 58.5443 20.8013 58.5443 20.8013V20.807Z" fill="#1A1A18"/>
<path d="M59.4028 19.8576C59.4028 19.8576 59.7919 19.869 59.9865 19.829C60.1811 19.789 60.3699 19.4573 60.3012 19.1084C60.2269 18.7538 60.2669 18.3706 60.2726 17.9187C60.2784 17.4669 60.3871 16.8549 60.2326 16.5976L60.0781 16.3402C60.0781 16.3402 59.7004 16.2144 59.4142 16.1743C59.1281 16.1286 58.9507 16.0542 58.7675 15.9799L58.5844 15.9055C58.5844 15.9055 58.4299 16.1858 58.4356 16.7691C58.4356 17.3525 58.6416 17.7414 58.9678 18.3191C59.294 18.8968 59.3799 19.0912 59.3398 19.4344C59.2998 19.7718 59.3112 19.9091 59.3112 19.9091L59.3913 19.8576H59.4028Z" fill="#1A1A18"/>
<path d="M60.5473 17.8787C60.5473 17.8787 60.6046 17.4726 60.6274 17.1981C60.6503 16.9293 60.6961 16.6777 60.553 16.5118L60.41 16.3402C60.41 16.3402 60.6904 16.0485 60.9651 15.957C61.2398 15.8655 61.5259 15.6653 61.6862 15.4709C61.8464 15.2764 62.0124 14.9275 62.0467 14.7903C62.081 14.653 62.1554 14.51 62.1554 14.51C62.1554 14.51 62.4931 14.6416 62.7048 14.5786C62.9166 14.5157 62.9795 14.6072 62.9795 14.6072C62.9795 14.6072 63.1455 14.6301 63.1226 14.9504C63.1054 15.265 62.9108 15.305 62.9337 15.5738C62.9566 15.8369 62.9051 16.0028 63.0482 16.1686L63.1913 16.3345C63.1913 16.3345 63.2027 16.4546 63.0196 16.4889L62.8364 16.5232C62.8364 16.5232 62.9795 16.6891 62.8708 16.9236C62.762 17.1581 62.7277 17.0494 62.4759 17.118C62.2184 17.181 62.0868 17.3983 61.8693 17.4612C61.6575 17.5241 61.7491 17.3125 61.3542 17.507C60.9594 17.6957 60.5588 17.8844 60.5588 17.8844L60.5473 17.8787Z" fill="#1A1A18"/>
<path d="M63.2485 15.7625C63.2485 15.7625 63.672 15.5967 63.7979 15.5395C63.9238 15.4823 63.878 15.4422 63.8666 15.3107C63.8551 15.1792 63.8036 15.0476 63.9524 15.0133C64.1012 14.979 64.0898 14.8417 63.9925 14.7159C63.8952 14.5901 63.7292 14.3556 63.8208 14.1897C63.9181 14.0238 64.1069 13.9438 64.0669 13.6978L64.0268 13.4519L63.8723 13.6464C63.8723 13.6464 63.8494 13.6235 63.7636 13.9666C63.6834 14.3098 63.712 14.3727 63.5232 14.4585L63.3343 14.5443C63.3343 14.5443 63.3343 14.7445 63.3515 15.059C63.3744 15.3736 63.3115 15.3965 63.2428 15.5852L63.1741 15.7683H63.2599L63.2485 15.7625Z" fill="#1A1A18"/>
<path fill-rule="evenodd" clip-rule="evenodd" d="M51.1333 8.9165C50.5439 9.89452 50.1032 10.781 49.365 11.5074C48.4035 12.4511 47.4192 12.4625 46.3891 13.3547C46.5608 12.5312 46.6981 11.5646 47.299 10.8954C48.1403 9.96315 49.6282 10.0604 50.4866 9.39693C49.6969 10.0775 48.2318 10.2949 47.8885 11.7476C49.0674 11.3644 50.1776 10.312 51.1333 8.9165Z" fill="#1A1A18"/>
<path fill-rule="evenodd" clip-rule="evenodd" d="M52.2206 7.91562C53.348 6.21696 54.1893 4.66701 55.5513 3.43162C57.3311 1.81876 59.0937 1.87595 60.988 0.348877C60.6274 1.8016 60.3127 3.52313 59.1967 4.67273C57.6287 6.27987 54.9848 5.98818 53.411 7.10918C54.8703 5.95959 57.4971 5.6679 58.2124 3.10562C56.0778 3.70043 54.029 5.49632 52.2321 7.9099L52.2206 7.91562Z" fill="#1A1A18"/>
<path fill-rule="evenodd" clip-rule="evenodd" d="M27.7671 9.56277C28.3565 9.75151 28.843 9.96313 29.4038 9.99744C30.1306 10.0375 30.5541 9.67716 31.2923 9.67716C30.9375 9.39691 30.5426 9.03659 30.0619 8.97939C29.3866 8.89932 28.7972 9.48842 28.2077 9.52845C28.7743 9.51702 29.4667 9.07091 30.1134 9.55133C29.4839 9.82586 28.6541 9.79727 27.7728 9.56277H27.7671Z" fill="#1A1A18"/>
<path fill-rule="evenodd" clip-rule="evenodd" d="M28.4595 9.49414C28.6598 9.90594 28.8029 10.2777 29.0719 10.598C29.421 11.0098 29.8158 11.0555 30.1935 11.4559C30.1535 11.1184 30.1363 10.7295 29.9188 10.4378C29.6155 10.0318 29.0204 10.0146 28.6999 9.71148C28.9918 10.0146 29.5698 10.1576 29.6556 10.7524C29.1978 10.5522 28.7915 10.089 28.4595 9.49414Z" fill="#1A1A18"/>
<path d="M22.9942 6.95476C22.9942 6.95476 22.9885 6.62876 23.2346 6.57156C23.4864 6.51437 23.7897 6.60016 23.9271 6.68023C24.0644 6.7603 24.1216 6.73171 24.299 6.79462C24.4765 6.86325 24.4879 6.84037 24.6081 6.9376C24.7283 7.03483 24.7798 7.06343 24.9858 7.03483C25.1975 7.01196 25.5981 7.03483 25.7641 7.1149C25.9301 7.19498 25.9987 7.36084 26.1933 7.46951C26.4165 7.59533 26.8056 7.74404 26.8972 8.01857C26.9315 8.1158 26.8972 8.20731 26.9087 8.30454C26.4737 8.20159 26.199 7.69828 25.8099 7.5267C25.4894 7.38372 25.0659 7.20069 24.7168 7.18926C25.3177 7.3208 25.3177 7.36656 25.581 7.46379C25.7584 7.5267 25.993 7.68684 26.1532 7.81839C26.3192 7.96137 26.6225 8.33885 26.9201 8.43608C26.737 8.43608 26.262 8.13867 26.096 8.1158C25.5867 8.04716 24.3448 7.09203 23.9042 6.93188C24.5451 7.30936 26.2505 8.48756 26.9029 8.53331C26.571 8.51043 26.3478 8.69345 25.3406 8.52759C25.7069 8.67058 26.4623 8.73349 26.7827 8.68201C27.0574 8.63626 27.1261 8.80784 27.315 8.96226C27.315 8.96226 26.5825 9.25395 26.2276 9.12241C25.8728 8.99086 25.3177 8.7964 24.9286 8.45324C24.5451 8.1158 24.0301 7.57245 23.8469 7.38943C23.6695 7.20641 23.5436 7.14922 23.3147 7.07487C23.0801 7.00052 22.9771 6.94332 22.9771 6.94332L22.9942 6.95476Z" fill="#1A1A18"/>
<path d="M27.521 8.96781C27.1776 8.35012 27.2406 7.10329 27.4466 6.49132C27.355 7.12617 27.2921 8.24717 27.6583 8.93921C27.8586 8.65325 27.8815 7.72671 27.933 7.3721C27.996 6.92027 28.1276 5.87935 28.2135 5.43895C28.2821 5.06719 28.2535 5.25593 28.2879 4.92993C28.0475 6.12528 28.0246 7.80678 27.8472 9.01929C27.933 8.41303 28.3794 7.86969 28.5511 7.29203C28.7285 6.6915 28.8601 5.87363 29.0147 5.05576C28.6942 7.84681 28.2707 8.62465 28.0074 9.05932C28.5625 8.56174 28.7857 8.25861 29.0147 7.9326C29.2436 7.6066 29.524 7.05182 29.8216 6.34834C29.6384 6.86308 29.2207 7.76102 29.0719 7.99552C28.8315 8.373 28.5225 8.83055 28.3336 9.09936C28.8544 8.68184 29.6041 7.58372 29.8502 6.88596C30.0104 6.43413 30.1363 6.02805 29.896 5.81643C29.6556 5.61054 29.5927 5.61054 29.5526 5.47327C29.5125 5.33029 29.4553 5.26165 29.3924 5.26737C29.3351 5.26737 29.3008 5.26737 29.2264 5.16442C29.152 5.06148 28.9975 4.96997 28.8945 4.95853C28.7915 4.94137 28.7743 4.97568 28.7113 4.92993C28.6484 4.88417 28.574 4.80982 28.4138 4.77551C28.2535 4.73547 28.2192 4.79266 28.1848 4.8041C28.1505 4.80982 28.0532 4.79838 27.9044 4.87274C27.7499 4.94709 27.6412 5.14727 27.5153 5.35316C27.3951 5.55334 27.1605 6.19391 27.109 6.77157C27.0632 7.34923 27.0174 7.80678 27.0746 8.06415C27.1261 8.28149 27.2005 8.78479 27.521 8.99069V8.96781Z" fill="#1A1A18"/>
<path d="M30.142 6.36565C30.142 6.36565 30.2851 6.30845 30.3996 6.33705C30.514 6.36565 30.5827 6.37709 30.6972 6.34849C30.8116 6.31989 30.9032 6.30845 30.9375 6.39996C30.9719 6.48575 30.949 6.59442 30.9776 6.63446C31.0062 6.67449 31.0176 6.69737 30.9432 6.78888C30.8746 6.88039 30.5655 7.23499 30.4625 7.34938C30.3595 7.45805 30.1192 7.82409 29.9074 7.98423C29.6957 8.14437 29.5526 8.19585 29.4324 8.28736C29.3065 8.38459 29.2378 8.39603 29.1005 8.52185C28.9631 8.64768 28.8773 8.70487 28.8773 8.70487C28.8773 8.70487 29.2951 8.26448 29.4668 7.9442C29.6327 7.62391 29.8559 7.30363 29.9646 7.02338C30.0734 6.74313 30.1306 6.47432 30.1306 6.47432L30.1478 6.35993L30.142 6.36565Z" fill="#1A1A18"/>
<path d="M31.2809 6.53136C31.2809 6.53136 31.4983 6.30831 31.6357 6.23967C31.7673 6.17104 31.8646 6.19964 31.9276 6.27399C31.9905 6.34834 32.0535 6.44557 32.0248 6.53136L32.002 6.61715C32.002 6.61715 31.9848 6.54852 31.9333 6.58284C31.8818 6.61143 31.8017 6.80589 31.7044 6.98319C31.6014 7.1605 31.424 7.41215 31.1264 7.70384C30.8173 8.00696 30.3423 8.33869 29.8158 8.63038C29.6556 8.72189 29.152 8.96782 28.6885 9.05361C28.8144 8.99642 29.255 8.76764 29.4267 8.6361C29.6041 8.49883 29.8673 8.38444 30.0734 8.27577C30.4969 8.047 30.9375 7.80678 31.0978 7.26344C30.886 7.88114 30.2794 8.13851 29.7014 8.4302C29.2951 8.63609 28.9803 8.92778 28.5397 9.06505C28.7686 8.87631 29.0662 8.75048 29.3122 8.58462C29.6671 8.34441 29.9875 8.20142 30.4969 7.59517C31.0062 6.99463 31.2866 6.51992 31.2866 6.51992L31.2809 6.53136Z" fill="#1A1A18"/>
<path d="M28.8201 4.78135C28.8201 4.78135 29.049 4.50682 29.1692 4.51254C29.2951 4.51254 29.4152 4.55258 29.4439 4.60977L29.4725 4.66124C29.4725 4.66124 29.4954 4.6498 29.5812 4.65552C29.667 4.65552 29.6785 4.66696 29.7185 4.75275C29.7586 4.83282 29.7529 4.90146 29.7987 4.9129C29.8445 4.92433 29.9131 4.87286 29.9704 4.89574C30.0276 4.91862 30.0676 4.99869 30.0905 5.07876C30.1191 5.15883 30.1249 5.19315 30.1249 5.19315C30.1249 5.19315 30.205 5.22746 30.2679 5.2389C30.3309 5.25034 30.3996 5.26178 30.4282 5.34185C30.4568 5.42192 30.4797 5.73649 30.4682 5.87375C30.4453 6.01102 30.4511 6.08537 30.4511 6.08537C30.4511 6.08537 30.2794 6.08537 30.2222 6.10253L30.1707 6.11968C30.1707 6.11968 30.1535 5.91379 30.1134 5.81656C30.0791 5.71933 29.8673 5.55919 29.7929 5.52487C29.7243 5.49055 29.6899 5.36473 29.6442 5.27322C29.5984 5.17599 29.461 5.0902 29.3866 5.07876C29.3122 5.06732 29.3008 4.97581 29.1863 4.89574C29.0719 4.81567 29.0433 4.76991 28.9574 4.78135C28.8658 4.79279 28.8201 4.78135 28.8201 4.78135Z" fill="#1A1A18"/>
<path d="M25.2033 4.38661C25.2033 4.38661 25.2777 4.12924 25.415 4.06633C25.5524 4.00341 25.6725 3.9691 25.7984 3.99197C25.9243 4.00913 26.1246 4.16356 26.1819 4.34086C26.2391 4.51816 26.2906 4.67258 26.2906 4.67258C26.2906 4.67258 26.4051 4.89564 26.4451 5.01002C26.4909 5.12441 26.4966 5.32459 26.5538 5.40466C26.6111 5.48473 26.6569 5.53049 26.7484 5.62772C26.84 5.72495 26.9544 5.91369 27.0002 6.0052C27.0002 6.0052 26.88 6.51994 26.8743 6.65149C26.8686 6.78303 26.8228 7.10332 26.84 7.32637C26.8572 7.54371 26.8858 7.67525 26.8858 7.67525C26.8858 7.67525 26.7656 7.53799 26.5996 7.43504C26.4394 7.33781 26.3078 7.33209 26.1819 7.16623C26.0502 7.00037 25.9072 6.88026 25.827 6.86882L25.7469 6.85738C25.7469 6.85738 25.6439 6.18822 25.6783 5.88509C25.7069 5.58768 25.7527 5.0043 25.7069 4.77553C25.6783 4.63826 25.6725 4.30082 25.5352 4.22075C25.415 4.1464 25.249 4.25507 25.209 4.38089L25.2033 4.38661Z" fill="#1A1A18"/>
<path d="M26.0617 3.82056C26.0617 3.82056 26.4165 3.84915 26.4737 3.96354C26.5309 4.07793 26.6855 4.21519 26.7141 4.43825C26.7427 4.66131 26.8056 5.02735 26.9258 5.13601C27.046 5.24468 27.2692 5.40482 27.2692 5.40482C27.2692 5.40482 27.2749 5.43342 27.2062 5.59928C27.1318 5.76515 27.1147 5.86809 27.1147 5.86809C27.1147 5.86809 26.983 5.67935 26.8629 5.53637C26.7484 5.38767 26.6626 5.37623 26.571 5.06738C26.4794 4.75853 26.3993 4.55264 26.3593 4.39249C26.3192 4.23235 26.302 4.11225 26.1532 3.99214C26.0102 3.86631 26.056 3.82056 26.056 3.82056H26.0617Z" fill="#1A1A18"/>
<path d="M26.5653 3.87188C26.5653 3.87188 26.6797 3.76321 26.7484 3.71746C26.8171 3.67742 26.9602 3.72317 27.0288 3.849C27.0975 3.97483 27.2062 4.0835 27.3264 4.21504C27.4466 4.34659 27.6354 4.50673 27.6526 4.62684L27.6755 4.74694C27.6755 4.74694 27.5954 4.88993 27.521 4.98144C27.4466 5.07295 27.4123 5.1473 27.3722 5.21593L27.3379 5.28456C27.3379 5.28456 27.2177 5.24453 27.0689 5.06723C26.9201 4.88993 26.88 4.71835 26.8343 4.45525C26.7827 4.19216 26.7599 4.11209 26.6626 4.01486C26.5653 3.92335 26.5309 3.8776 26.5309 3.8776H26.571L26.5653 3.87188Z" fill="#1A1A18"/>
<path d="M27.418 4.15791C27.418 4.15791 27.5382 4.26658 27.6183 4.34093C27.6927 4.41529 27.7728 4.4782 27.7728 4.56971V4.66122C27.7728 4.66122 27.933 4.67266 28.036 4.6269C28.1448 4.58115 28.2821 4.56399 28.3794 4.57543C28.4767 4.59259 28.6198 4.64978 28.6656 4.6841C28.7113 4.71841 28.7686 4.74129 28.7686 4.74129C28.7686 4.74129 28.8372 4.60975 28.9174 4.56971C28.9975 4.52967 28.9918 4.48392 28.9918 4.48392C28.9918 4.48392 29.0375 4.43244 28.946 4.34093C28.8601 4.24942 28.7915 4.29518 28.7285 4.20367C28.6656 4.11788 28.6083 4.08356 28.6083 3.99205V3.90054C28.6083 3.90054 28.5854 3.86051 28.5168 3.90054L28.4538 3.94058C28.4538 3.94058 28.4538 3.84907 28.3622 3.80903C28.2707 3.769 28.2879 3.80903 28.1906 3.86051C28.099 3.91198 28.0017 3.88338 27.9216 3.92342C27.8415 3.96346 27.9216 3.99777 27.7556 4.04925C27.5897 4.10072 27.418 4.1522 27.418 4.1522V4.15791Z" fill="#1A1A18"/>
<path d="M28.7743 4.06062C28.7743 4.06062 28.946 3.99771 28.9975 3.98055C29.049 3.96339 29.049 3.98627 29.0776 4.03202C29.1119 4.07206 29.1291 4.12925 29.1806 4.10066C29.2321 4.07206 29.2665 4.1121 29.2665 4.18073C29.2665 4.24364 29.2779 4.36375 29.3466 4.38663C29.421 4.4095 29.4954 4.38663 29.5469 4.4667L29.5984 4.55249L29.5011 4.53533C29.5011 4.53533 29.5011 4.54677 29.3866 4.4667C29.2722 4.38663 29.2665 4.35803 29.1863 4.38663L29.1062 4.4095C29.1062 4.4095 29.0547 4.35231 28.9803 4.24936C28.9059 4.14641 28.883 4.15785 28.8144 4.12353L28.7457 4.0835L28.7743 4.06062Z" fill="#1A1A18"/>
<path fill-rule="evenodd" clip-rule="evenodd" d="M26.8686 9.43697C26.4394 9.30543 26.0789 9.15672 25.6725 9.13956C25.1403 9.11669 24.8427 9.3855 24.2991 9.39694C24.5623 9.59712 24.8542 9.85449 25.2033 9.8888C25.6954 9.94028 26.1189 9.5056 26.5481 9.47129C26.1361 9.48273 25.6382 9.81445 25.1632 9.47129C25.621 9.26539 26.2219 9.27683 26.8686 9.43697Z" fill="#1A1A18"/>
<path fill-rule="evenodd" clip-rule="evenodd" d="M22.5708 11.1756C23.7897 12.7027 27.3608 11.9992 27.3951 9.37402C27.5611 9.80298 27.6297 10.2491 27.4123 10.6266C27.9273 10.5179 28.6312 10.4779 29.0891 10.7753C29.5526 11.0727 30.1192 11.9134 29.1291 12.0278C29.1291 13.1774 27.355 13.2232 27.4065 11.8906C27.4008 11.8848 27.5553 11.7762 27.5611 11.7704C27.584 12.8228 28.7972 12.697 28.7686 11.7933C28.74 10.6952 27.6126 10.964 27.109 11.2671C25.7069 12.1079 24.0358 12.7999 22.6452 11.3529L22.5708 11.1756Z" fill="#1A1A18"/>
<path fill-rule="evenodd" clip-rule="evenodd" d="M22.3075 11.0554C22.6852 11.7246 22.9542 12.3251 23.4349 12.8227C24.053 13.4747 24.7168 13.5033 25.3807 14.1267C25.2834 13.5719 25.2147 12.9199 24.8255 12.4624C24.2819 11.8218 23.2861 11.8561 22.731 11.3871C23.2461 11.8561 24.2189 12.0392 24.4192 13.0172C23.6409 12.7369 22.9199 12.0048 22.3132 11.0554H22.3075Z" fill="#1A1A18"/>
<path fill-rule="evenodd" clip-rule="evenodd" d="M17.5404 18.9769C18.7536 14.7503 16.9681 10.4207 12.5272 9.07666C8.69295 7.9099 5.15053 8.77353 2.48942 10.9698C4.14904 8.64198 7.60561 8.03001 10.2896 7.5553C13.8664 6.92045 17.5004 8.89936 19.7208 11.7476C22.9084 15.8427 25.787 29.1803 33.1236 25.2339L32.414 25.5199C25.6153 27.636 23 14.1326 19.8124 10.0318C17.5976 7.18354 13.523 5.13028 9.94052 5.76513C6.56406 6.35995 2.60388 6.92045 1.8828 11.0784L1.81413 11.5646C1.13884 12.2223 0.526499 12.9658 -0.00572205 13.7951L0.423489 13.675C0.81264 13.5206 1.20751 13.309 1.60811 13.0631V13.1145C1.60811 13.1145 1.60811 13.0802 1.60811 13.0631C3.19905 12.0908 4.88156 10.6209 6.70713 10.3921C8.34386 10.1862 9.62004 10.1061 11.2625 10.2606C14.3356 10.558 17.0483 12.7657 16.7392 16.0886C16.4931 18.7767 14.3929 20.3095 11.9492 19.0627C9.94052 18.0389 8.87608 14.7388 11.6287 14.0354C8.60138 13.1317 7.33664 17.4956 8.61283 19.6346C10.6959 23.1292 16.413 22.9061 17.5404 18.9769ZM25.3063 16.2945H25.2948C25.5523 16.7406 25.827 17.1009 26.1075 17.3926C27.5382 19.3143 28.9002 20.9215 30.2737 21.7165C32.5056 23.0091 34.4399 23.5524 36.0594 23.6668C35.5901 23.9814 34.9606 23.724 34.4284 23.7697C33.2724 23.8727 33.0092 24.6848 32.2366 25.4169C32.3739 25.2854 32.889 25.0108 33.0721 24.9823C33.2667 24.9479 33.3926 25.0394 33.5986 25.0051C34.1537 24.9136 34.7031 24.559 35.2182 24.2216C34.4628 25.1424 32.9634 25.9831 31.733 25.9317C33.301 26.5265 35.6531 25.3197 36.357 23.684C38.4401 23.764 39.9795 23.1177 40.9295 22.4428C43.8482 20.3724 45.5993 15.4538 44.1515 11.9421C42.6922 8.40177 39.4645 5.73082 35.8591 6.73171C35.0293 6.70311 34.4685 6.22269 34.3483 5.79945C34.1766 5.21036 34.3998 4.62126 34.7947 4.51831C35.1896 4.38676 35.3097 4.52975 35.3269 4.67273C35.3612 4.81 35.2296 4.81 35.1209 4.80428C34.9091 4.77568 34.6745 5.03305 34.7661 5.36478C34.8691 5.68506 35.1152 5.84521 35.51 5.71366C35.8877 5.59355 36.0365 5.1646 35.945 4.80428C35.8305 4.41536 35.367 4.05504 34.7432 4.25522C34.1308 4.44396 33.8619 5.20464 34.045 5.86808C34.1595 6.26844 34.5772 6.74887 35.3155 6.89757C35.0121 7.01196 34.7088 7.14922 34.4055 7.31509C32.0363 8.6191 29.9875 12.7142 32.4655 15.3222L32.0992 14.8532C30.7944 11.9649 32.0019 9.39694 33.9019 8.00713C32.3282 9.83161 32.9348 13.2575 35.1724 14.3671H35.1838C32.9004 13.2003 32.3453 9.61428 34.1079 7.85271C34.251 7.75548 34.3941 7.66969 34.5486 7.5839C38.7434 5.25611 42.6063 8.4418 43.8939 12.2681C45.0557 15.6997 43.5277 19.995 40.7521 21.9624C39.8651 22.5915 38.4172 23.2664 36.4715 23.2893C36.5058 23.152 36.5344 23.0148 36.5401 22.8775C36.4886 23.0434 36.4314 23.1749 36.3685 23.2893C34.7546 23.2893 32.8031 22.8318 30.5426 21.522C30.0676 21.2475 29.5926 20.87 29.1177 20.4125C30.6571 21.4648 32.5113 22.134 34.2968 22.3971C37.0666 22.8032 42.1027 20.6641 41.4961 16.1858C41.559 17.9932 41.25 18.811 40.0711 20.1093C39.1383 21.1388 37.9251 21.6936 36.6031 22.0139C34.1881 22.5973 32.3625 21.7622 30.2565 20.5269C29.2378 19.932 28.202 19.2228 27.3264 18.3649C27.2806 18.302 27.2291 18.2448 27.1891 18.1819C28.0303 18.5823 28.8086 18.4679 29.2607 18.1819C30.0791 17.6443 30.5026 16.5462 30.0161 15.7226C29.524 14.8704 28.6827 14.8018 28.1906 15.1106C27.7556 15.4137 27.5095 16.0314 27.8071 16.5404C28.1162 17.0838 28.5396 17.1467 28.9517 16.9065C29.3637 16.6377 29.358 16.1172 29.0948 15.9399C28.9631 15.8312 28.8315 15.6997 28.9918 15.5853C29.1463 15.4423 29.4095 15.408 29.7128 15.9456C30.0447 16.4489 29.7414 17.3183 29.0032 17.7873C28.4996 18.1133 27.5038 18.0961 26.5996 17.3926C21.7123 10.6838 15.9838 -0.303126 4.40656 5.91956L3.02164 8.16727C14.0037 -0.669167 20.1901 9.19104 25.312 16.2945H25.3063ZM31.4983 14.064C31.4239 15.9742 33.7817 18.1705 35.6073 17.7244C34.2796 17.7244 34.4914 16.6663 34.211 15.9685C33.7817 14.9047 32.9863 14.8933 32.105 14.3842C32.2652 14.4757 32.6544 14.8818 32.7345 15.0477C32.8203 15.2193 32.7803 15.368 32.8661 15.551C33.1122 16.0486 33.5872 16.4661 34.0335 16.8493C32.9977 16.4089 31.8131 15.2421 31.4983 14.064ZM38.5832 13.9324C38.6976 13.7723 38.772 13.5835 38.8007 13.3948C38.8464 13.1832 38.835 12.9716 38.732 12.8L38.7091 12.7771C38.6519 12.6741 38.566 12.5826 38.4573 12.514C38.4458 12.514 38.4401 12.5026 38.4344 12.4968C38.4344 12.4968 38.4058 12.4854 38.3886 12.4797L38.3371 12.4568C38.3772 12.474 38.4115 12.5026 38.4458 12.5254L38.6061 12.6856C38.6061 12.6856 38.6175 12.7027 38.6232 12.7085C38.7091 12.8858 38.629 13.0802 38.4172 13.1832C38.7549 13.5092 38.3199 14.1612 38.0338 14.39C38.0338 14.39 38.0452 14.39 38.0452 14.3842C37.2269 14.9505 36.048 14.8132 35.1896 14.3842C35.201 14.39 35.2124 14.4014 35.2239 14.4071C36.2769 14.9276 37.7992 15.0248 38.5717 13.9324H38.5832ZM38.0338 14.39C38.0223 14.39 38.0223 14.3957 38.0338 14.39V14.39ZM41.5018 16.1287C41.5018 16.1287 41.5075 16.1858 41.5133 16.2144C41.5133 16.1744 41.5133 16.1401 41.5133 16.1001V16.1287H41.5018ZM41.1699 16.569C41.2042 16.3746 41.3187 16.2831 41.353 16.0829C41.4446 15.5338 41.3072 14.9047 41.1642 14.3213C41.7422 15.3108 42.0169 16.9808 41.5877 18.1247C42.7551 16.6434 42.1313 13.4234 40.4145 12.6513C41.4789 13.4691 40.7006 14.1898 40.5232 14.9219C40.2542 16.0371 40.8895 16.5404 41.2958 17.4899C41.2214 17.3183 41.1413 16.7521 41.1756 16.569H41.1699Z" fill="#1A1A18"/>
<path fill-rule="evenodd" clip-rule="evenodd" d="M37.4272 21.6363C39.1955 19.829 43.7166 21.2074 43.4304 24.599C43.6994 24.0671 43.8425 23.5008 43.6078 22.9861C44.2545 23.192 45.1644 23.335 45.7939 23.0147C46.4349 22.6887 47.259 21.6821 46 21.4018C46.143 19.9205 43.8539 19.6231 43.7623 21.3561C43.7509 21.3675 43.9397 21.5219 43.9455 21.5334C44.1057 20.1779 45.6566 20.4982 45.5135 21.6649C45.3418 23.0833 43.9226 22.58 43.3045 22.1225C41.5991 20.8528 39.5275 19.7375 37.5474 21.4247L37.4272 21.642V21.6363Z" fill="#1A1A18"/>
<path d="M100.355 20.2636C98.1748 23.7353 95.6568 28.3794 92.8011 34.1903C91.3475 37.1358 90.037 40.0412 88.881 42.9066C87.6162 46.0752 86.981 48.1056 86.981 48.9921C86.981 49.7413 87.3186 50.1188 87.9939 50.1188C89.2587 50.1188 90.9869 49.2265 93.1673 47.4478C95.239 45.7778 96.6182 44.2736 97.2878 42.941C97.6941 42.8037 97.9459 42.9409 98.0546 43.3585C97.2191 44.8627 95.7369 46.4755 93.608 48.2028C91.3189 50.0673 89.4475 50.9996 87.9939 50.9996C85.5674 50.9996 84.3599 49.6784 84.3599 47.0303C84.3599 45.7492 84.8063 44.1249 85.6934 42.146C86.2599 40.8362 87.2957 38.863 88.8066 36.215C90.5863 33.1837 92.4405 30.0094 94.3806 26.6979L93.9342 26.9896C92.0228 29.6606 89.0584 33.6984 85.0467 39.0975C83.3241 41.2995 81.035 43.8275 78.1793 46.6986C75.8616 49.0092 74.4366 50.3475 73.8986 50.7079C73.6297 50.9023 73.4294 50.9595 73.292 50.8737C73.1032 50.7651 73.1146 50.5134 73.3321 50.1245C74.0589 48.9577 75.3522 46.6128 77.2064 43.1068C79.5471 38.1824 81.6874 33.9901 83.6274 30.5356C84.7891 28.5052 86.0997 26.2518 87.5533 23.7753L87.2728 23.7353C84.7663 26.5206 80.8232 31.016 75.4324 37.2216C72.5481 40.6475 69.0342 43.5815 64.8852 46.0294C59.3341 49.3409 53.7715 50.9996 48.1975 50.9996C44.8554 50.9996 42.1657 50.2618 40.1169 48.7862C37.9365 47.2305 36.8434 45.0857 36.8434 42.3576C36.8434 38.5427 39.041 35.2713 43.4304 32.5431C47.6309 29.9522 52.4381 28.6597 57.8576 28.6597C60.307 28.6597 62.5446 28.9399 64.5647 29.4947C66.0984 29.9408 67.1514 30.4155 67.718 30.9131C67.7466 30.9989 67.6493 31.079 67.4376 31.1648C67.2258 31.2505 66.9912 31.262 66.7508 31.2048C64.8623 30.1467 62.0639 29.6205 58.344 29.6205C53.7086 29.6205 49.2677 31.079 45.0099 33.9901C40.7521 36.907 38.6232 39.9669 38.6232 43.1754C38.6232 47.8081 41.8566 50.1188 48.3234 50.1188C52.873 50.1188 57.5886 48.8205 62.4645 46.2296C67.0141 43.8332 70.9342 40.7504 74.2248 36.9871C83.0895 26.8409 88.2743 21.213 89.7794 20.0978C90.0198 19.9319 90.4776 19.766 91.1529 19.5944C91.6909 19.4572 91.9598 19.5658 91.9598 19.9262C91.9598 20.012 91.9026 20.1092 91.7996 20.2179C91.0442 20.9156 89.6993 23.1805 87.7593 27.0239C86.197 30.3068 83.988 34.7908 81.1323 40.4702C79.6501 43.0897 78.4769 44.9256 77.6185 45.9837L77.7386 46.1095C78.1163 45.7778 79.2666 44.4566 81.1838 42.1517C83.616 39.2348 85.8307 36.4266 87.828 33.7327C91.0041 29.5004 94.2947 25.1251 97.7113 20.6125C97.9001 20.3723 98.3808 20.0978 99.1591 19.8003C99.5597 19.6688 99.8974 19.6002 100.166 19.6002C100.596 19.6002 100.664 19.8232 100.367 20.2693L100.355 20.2636Z" fill="#1A1A18"/>
<path d="M111.543 38.4743C111.543 38.56 111.463 38.7259 111.303 38.9776C111.251 39.0634 110.536 40.7449 109.163 44.0221C107.949 46.9103 107.343 48.6605 107.343 49.2782C107.343 49.7014 107.503 49.9073 107.829 49.9073C108.447 49.9073 109.472 49.0151 110.902 47.2363C111.011 47.2077 111.126 47.2478 111.246 47.3622C111.366 47.4766 111.412 47.5967 111.389 47.7397C109.935 49.8844 108.424 50.9539 106.862 50.9539C105.597 50.9539 104.962 50.3019 104.962 48.9922C104.962 48.5461 105.18 47.7282 105.609 46.5271C103.4 49.4783 101.637 50.9539 100.315 50.9539C98.9416 50.9539 98.2549 50.0732 98.2549 48.3059C98.2549 45.8408 99.4281 43.4902 101.769 41.2482C104.029 39.092 106.358 38.011 108.756 38.011C109.969 38.011 110.845 38.0968 111.383 38.2626C111.492 38.3198 111.543 38.3885 111.543 38.4743ZM108.11 39.8526C108.11 39.3493 107.921 39.0977 107.543 39.0977C106.439 39.0977 104.951 40.4417 103.079 43.1355C101.208 45.8294 100.269 47.8369 100.269 49.1523C100.269 49.6556 100.487 49.9073 100.916 49.9073C101.614 49.9073 103.033 48.5175 105.157 45.7436C106.124 44.451 106.862 43.29 107.36 42.249C107.858 41.2138 108.11 40.4131 108.11 39.8526Z" fill="#1A1A18"/>
<path d="M129.971 27.2814C128.489 31.0104 126.228 36.5925 123.183 44.022C121.97 46.9275 121.364 48.6947 121.364 49.3124C121.364 49.7357 121.484 49.9473 121.724 49.9473C122.182 49.9473 122.789 49.5584 123.544 48.7863C124.002 48.3001 124.46 47.7968 124.917 47.2763C125.215 47.2763 125.364 47.4422 125.364 47.7796C123.91 49.9244 122.417 50.9939 120.877 50.9939C119.693 50.9939 119.097 50.3934 119.097 49.198C119.097 48.6433 119.315 47.7625 119.744 46.5671C117.535 49.5183 115.784 50.9939 114.491 50.9939C113.895 50.9939 113.403 50.7194 113.014 50.1761C112.625 49.6327 112.43 48.935 112.43 48.0942C112.43 46.0753 113.409 43.9763 115.366 41.7914C117.564 39.3264 120.059 38.091 122.852 38.091C122.794 38.0796 122.88 38.0739 123.092 38.0739C125.805 31.5995 127.281 28.0935 127.527 27.5674C127.636 27.3729 127.727 27.2356 127.813 27.1498C127.893 27.064 128.042 26.9897 128.26 26.9211C128.477 26.8524 128.855 26.7495 129.398 26.6122C129.833 26.5035 130.045 26.6237 130.045 26.9897C130.045 27.0755 130.017 27.1727 129.965 27.2814H129.971ZM122.377 39.9384C122.377 39.4351 122.148 39.1834 121.69 39.1834C120.557 39.1834 119.052 40.6018 117.163 43.4329C115.36 46.1553 114.456 48.077 114.456 49.198C114.456 49.7013 114.616 49.953 114.943 49.953C115.75 49.953 117.203 48.5632 119.309 45.7893C120.305 44.4967 121.049 43.3471 121.53 42.3405C122.096 41.1051 122.377 40.3044 122.377 39.9441V39.9384Z" fill="#1A1A18"/>
<path d="M141.044 28.1564C141.044 28.9628 140.678 30.0895 139.951 31.5365C139.276 32.8749 138.458 34.1389 137.485 35.3342C135.814 37.4504 133.994 39.1605 132.031 40.4702C129.713 45.8407 128.557 48.8777 128.557 49.5698C128.557 49.9873 128.746 50.1932 129.124 50.1932C129.69 50.1932 130.429 49.8729 131.344 49.2323C132.123 48.7061 132.649 48.2429 132.918 47.8539C133.324 47.9111 133.525 48.077 133.525 48.3572C133.147 48.8606 132.609 49.3581 131.911 49.8614C130.858 50.5878 129.822 50.9481 128.798 50.9481C127.367 50.9481 126.657 50.2961 126.657 48.9864C126.657 47.9569 127.395 45.6463 128.878 42.0545C130.2 38.823 131.424 36.1807 132.552 34.1217C133.628 32.1485 134.801 30.4499 136.066 29.0257C137.519 27.4129 138.761 26.6064 139.785 26.6064C140.621 26.6064 141.039 27.1212 141.039 28.1507L141.044 28.1564ZM139.591 28.1164C139.591 27.8075 139.471 27.6588 139.225 27.6588C138.904 27.6588 138.257 28.3623 137.284 29.7693C136.317 31.1762 135.493 32.6575 134.818 34.2132L132.758 38.8459C134.457 37.3989 135.871 35.7575 136.998 33.9215C138.721 31.1362 139.585 29.203 139.585 28.1164H139.591Z" fill="#1A1A18"/>
<path d="M145.365 39.8469C145.365 41.6542 144.352 43.2843 142.332 44.7313C140.718 45.8465 139.236 46.4699 137.885 46.6129C137.565 47.5052 137.399 48.1858 137.399 48.6605C137.399 49.6328 137.897 50.1189 138.893 50.1189C139.7 50.1189 140.615 49.7414 141.64 48.9922C142.446 48.3802 143.065 47.7682 143.499 47.1563C143.849 46.9618 144.066 47.0876 144.146 47.5337C143.688 48.2029 143.053 48.8549 142.246 49.4955C140.981 50.4392 139.74 50.9139 138.526 50.9139C136.449 50.9139 135.413 49.8558 135.413 47.7396C135.413 45.6235 136.317 43.433 138.12 41.2482C139.923 39.0634 141.622 37.9709 143.213 37.9709C144.638 37.9709 145.354 38.5944 145.354 39.8469H145.365ZM143.665 39.5953C143.665 39.0691 143.477 38.8003 143.105 38.8003C142.544 38.8003 141.743 39.5781 140.695 41.1395C139.734 42.5293 138.904 44.0506 138.212 45.6921C139.413 45.6349 140.627 44.9143 141.84 43.5187C143.059 42.1289 143.665 40.8192 143.665 39.5953Z" fill="#1A1A18"/>
<path d="M158.819 38.5086C158.819 38.4228 158.631 38.7717 158.253 39.5552C157.686 40.722 156.931 42.4092 155.992 44.6054C154.808 47.3622 154.213 48.9464 154.213 49.364C154.213 49.7815 154.453 49.9931 154.939 49.9931C155.912 49.9931 156.891 49.1009 157.887 47.3221C158.396 47.1563 158.653 47.2363 158.653 47.5738C158.276 48.2716 157.778 48.935 157.16 49.5756C156.216 50.4964 155.328 50.9539 154.493 50.9539C152.959 50.9539 152.192 50.3248 152.192 49.0723C152.192 48.18 152.61 46.733 153.446 44.7313C154.035 43.3415 154.562 42.2433 155.019 41.4312L154.859 41.2196C154.213 41.6085 152.908 43.1012 150.939 45.6864C149.674 47.3851 148.65 48.8035 147.866 49.9473C147.488 50.5307 146.939 50.8224 146.206 50.8224C145.886 50.8224 145.72 50.6565 145.72 50.3191C145.72 50.2619 146.458 48.6033 147.94 45.3318C149.234 42.4549 149.88 40.7506 149.88 40.2187C149.88 39.6868 149.692 39.4237 149.314 39.4237C149.176 39.4237 148.656 39.5895 147.74 39.927C147.442 39.8126 147.351 39.5838 147.46 39.2464C148.484 38.4514 149.589 38.051 150.773 38.051C151.151 38.051 151.494 38.1826 151.803 38.4514C152.112 38.7202 152.267 39.0862 152.267 39.5609C152.267 40.4303 151.58 42.2891 150.207 45.1488L150.367 45.2346C151.145 44.1193 152.227 42.8324 153.6 41.374C154.974 39.9155 155.958 38.9947 156.547 38.6172C157.137 38.2398 157.744 38.051 158.367 38.051C158.665 38.051 158.814 38.2055 158.814 38.5086H158.819Z" fill="#1A1A18"/>
</g>
<defs>
<clipPath id="clip0_59_655">
<rect width="211" height="77" fill="white"/>
</clipPath>
</defs>
</svg>
