<svg width="16" height="16" viewBox="0 0 16 16" fill="none" xmlns="http://www.w3.org/2000/svg">
<path d="M10.2667 7.44011L7 5.33345C6.89865 5.27494 6.78369 5.24413 6.66666 5.24413C6.54964 5.24413 6.43467 5.27494 6.33333 5.33345C6.23449 5.39046 6.15193 5.47189 6.09357 5.56994C6.03521 5.66799 6.00299 5.77938 6 5.89345V10.1068C6.00086 10.2256 6.03345 10.342 6.0944 10.444C6.15535 10.5459 6.24244 10.6298 6.34666 10.6868C6.44361 10.7439 6.55415 10.7738 6.66666 10.7734C6.78475 10.7653 6.89912 10.7287 7 10.6668L10.2667 8.56011C10.3602 8.49968 10.4372 8.41676 10.4904 8.31894C10.5437 8.22111 10.5716 8.1115 10.5716 8.00011C10.5716 7.88873 10.5437 7.77912 10.4904 7.68129C10.4372 7.58347 10.3602 7.50055 10.2667 7.44011ZM7.33333 8.88011V7.12011L8.66666 8.00011L7.33333 8.88011ZM12.92 3.00678L11.8867 2.87345C9.32733 2.56009 6.73933 2.56009 4.18 2.87345L3.14666 3.00678C2.6498 3.06085 2.19026 3.29603 1.85578 3.6674C1.5213 4.03877 1.33531 4.52032 1.33333 5.02011V10.9801C1.33757 11.4725 1.52033 11.9466 1.84769 12.3144C2.17505 12.6823 2.62476 12.9188 3.11333 12.9801L4.14666 13.1068C5.42517 13.2621 6.71209 13.3378 8 13.3334C9.28817 13.3334 10.5751 13.2533 11.8533 13.0934L12.8867 12.9668C13.3752 12.9055 13.8249 12.6689 14.1523 12.3011C14.4797 11.9333 14.6624 11.4592 14.6667 10.9668V5.02011C14.6657 4.52543 14.4843 4.04808 14.1567 3.67747C13.829 3.30686 13.3775 3.06841 12.8867 3.00678H12.92ZM13.3667 11.0068C13.3672 11.1747 13.3043 11.3367 13.1906 11.4603C13.0769 11.5839 12.9207 11.66 12.7533 11.6734L11.72 11.8001C9.27178 12.1068 6.79487 12.1068 4.34666 11.8001L3.31333 11.6734C3.14592 11.66 2.98975 11.5839 2.87604 11.4603C2.76233 11.3367 2.69946 11.1747 2.7 11.0068V5.02011C2.70794 4.85475 2.7737 4.69742 2.88579 4.57558C2.99788 4.45374 3.14919 4.37512 3.31333 4.35345L4.31333 4.20011C6.76181 3.89788 9.23818 3.89788 11.6867 4.20011L12.72 4.32678C12.8841 4.34846 13.0354 4.42707 13.1475 4.54891C13.2596 4.67075 13.3254 4.82808 13.3333 4.99345L13.3667 11.0068Z" fill="white"/>
</svg>
