<svg width="16" height="16" viewBox="0 0 16 16" fill="none" xmlns="http://www.w3.org/2000/svg">
<path d="M8 4.66659C7.34073 4.66659 6.69627 4.86208 6.1481 5.22835C5.59994 5.59462 5.1727 6.11522 4.9204 6.72431C4.66811 7.33339 4.6021 8.00362 4.73072 8.65022C4.85934 9.29682 5.17681 9.89077 5.64298 10.3569C6.10916 10.8231 6.7031 11.1406 7.3497 11.2692C7.9963 11.3978 8.66653 11.3318 9.27561 11.0795C9.8847 10.8272 10.4053 10.4 10.7716 9.85182C11.1378 9.30366 11.3333 8.65919 11.3333 7.99992C11.3333 7.11586 10.9821 6.26802 10.357 5.6429C9.7319 5.01777 8.88406 4.66659 8 4.66659ZM8 9.99992C7.60444 9.99992 7.21776 9.88262 6.88886 9.66286C6.55996 9.4431 6.30362 9.13074 6.15224 8.76529C6.00087 8.39983 5.96126 7.9977 6.03843 7.60974C6.1156 7.22178 6.30608 6.86541 6.58579 6.5857C6.86549 6.306 7.22186 6.11552 7.60982 6.03835C7.99778 5.96118 8.39992 6.00078 8.76537 6.15216C9.13082 6.30353 9.44318 6.55988 9.66294 6.88878C9.8827 7.21768 10 7.60436 10 7.99992C10 8.53035 9.78929 9.03906 9.41422 9.41413C9.03914 9.78921 8.53044 9.99992 8 9.99992ZM11.3333 3.99992C11.2015 3.99992 11.0726 4.03902 10.963 4.11227C10.8533 4.18553 10.7679 4.28965 10.7174 4.41146C10.667 4.53328 10.6538 4.66733 10.6795 4.79665C10.7052 4.92597 10.7687 5.04475 10.8619 5.13799C10.9552 5.23122 11.074 5.29472 11.2033 5.32044C11.3326 5.34617 11.4666 5.33296 11.5885 5.28251C11.7103 5.23205 11.8144 5.1466 11.8876 5.03697C11.9609 4.92733 12 4.79844 12 4.66659C12 4.48977 11.9298 4.32021 11.8047 4.19518C11.6797 4.07016 11.5101 3.99992 11.3333 3.99992ZM14.6267 5.49325C14.6156 4.92353 14.5074 4.35988 14.3067 3.82659C14.1205 3.3413 13.8344 2.90058 13.4669 2.53305C13.0993 2.16552 12.6586 1.8794 12.1733 1.69325C11.64 1.49252 11.0764 1.3843 10.5067 1.37325C9.86 1.33325 9.64667 1.33325 8 1.33325C6.35334 1.33325 6.14 1.33325 5.49334 1.37325C4.92362 1.3843 4.35997 1.49252 3.82667 1.69325C3.34138 1.8794 2.90066 2.16552 2.53313 2.53305C2.16561 2.90058 1.87948 3.3413 1.69334 3.82659C1.4926 4.35988 1.38438 4.92353 1.37334 5.49325C1.33334 6.14659 1.33334 6.35992 1.33334 7.99992C1.33334 9.63992 1.33334 9.85325 1.37334 10.5066C1.38438 11.0763 1.4926 11.64 1.69334 12.1733C1.87948 12.6585 2.16561 13.0993 2.53313 13.4668C2.90066 13.8343 3.34138 14.1204 3.82667 14.3066C4.35997 14.5073 4.92362 14.6155 5.49334 14.6266C6.16 14.6266 6.35334 14.6666 8 14.6666C9.64667 14.6666 9.86 14.6666 10.5067 14.6266C11.0764 14.6155 11.64 14.5073 12.1733 14.3066C12.6586 14.1204 13.0993 13.8343 13.4669 13.4668C13.8344 13.0993 14.1205 12.6585 14.3067 12.1733C14.5074 11.64 14.6156 11.0763 14.6267 10.5066C14.6267 9.83992 14.6667 9.63992 14.6667 7.99992C14.6667 6.35992 14.6667 6.14659 14.6267 5.49325ZM13.2933 10.4466C13.2817 10.8697 13.2029 11.2882 13.06 11.6866C12.9419 12.0015 12.7551 12.2861 12.5133 12.5199C12.281 12.7618 11.9957 12.9466 11.68 13.0599C11.2807 13.2087 10.8593 13.2898 10.4333 13.2999C9.80667 13.2999 9.61334 13.3333 7.99334 13.3333C6.37334 13.3333 6.18667 13.3333 5.56 13.3333C5.13468 13.3223 4.71384 13.2435 4.31334 13.0999C3.99844 12.9818 3.71378 12.795 3.48 12.5533C3.23811 12.3209 3.05328 12.0356 2.94 11.7199C2.79187 11.3227 2.71077 10.9037 2.7 10.4799C2.7 9.81325 2.7 9.64659 2.7 8.03325C2.7 6.41992 2.7 6.22659 2.7 5.58659C2.71149 5.16072 2.79256 4.73961 2.94 4.33992C3.05504 4.02701 3.23969 3.74433 3.48 3.51325C3.71239 3.27136 3.99761 3.08653 4.31334 2.97325C4.71266 2.82452 5.134 2.7434 5.56 2.73325C6.18667 2.66659 6.38 2.66659 8 2.66659C9.62 2.66659 9.81334 2.66659 10.44 2.66659C10.8681 2.67747 11.2915 2.75855 11.6933 2.90659C12.0062 3.02162 12.2889 3.20627 12.52 3.44659C12.7619 3.67897 12.9467 3.96419 13.06 4.27992C13.2232 4.68563 13.3157 5.11631 13.3333 5.55325C13.3333 6.21992 13.3667 6.38659 13.3667 7.99992C13.3667 9.61325 13.3333 9.80659 13.3333 10.4466H13.2933Z" fill="white"/>
</svg>
