<svg width="16" height="16" viewBox="0 0 16 16" fill="none" xmlns="http://www.w3.org/2000/svg">
<path d="M12.5533 6.29341C12.4922 6.20294 12.4097 6.12888 12.3133 6.07773C12.2168 6.02658 12.1092 5.99992 12 6.00008H10V4.66675H11.4667C11.6435 4.66675 11.813 4.59651 11.9381 4.47149C12.0631 4.34646 12.1333 4.17689 12.1333 4.00008V1.33341C12.1333 1.1566 12.0631 0.987034 11.9381 0.86201C11.813 0.736986 11.6435 0.666748 11.4667 0.666748H9.33333C8.30782 0.666748 7.32432 1.07413 6.59918 1.79927C5.87404 2.52441 5.46666 3.50791 5.46666 4.53341V6.00008H3.99999C3.82318 6.00008 3.65361 6.07032 3.52859 6.19534C3.40357 6.32037 3.33333 6.48994 3.33333 6.66675V9.33341C3.33333 9.51023 3.40357 9.67979 3.52859 9.80482C3.65361 9.92984 3.82318 10.0001 3.99999 10.0001H5.46666V14.6667C5.46666 14.8436 5.5369 15.0131 5.66192 15.1382C5.78695 15.2632 5.95652 15.3334 6.13333 15.3334H9.33333C9.51014 15.3334 9.67971 15.2632 9.80473 15.1382C9.92976 15.0131 10 14.8436 10 14.6667V10.0001H10.9333C11.0668 10.0002 11.1973 9.96024 11.3079 9.88536C11.4184 9.81048 11.5039 9.70412 11.5533 9.58008L12.62 6.91341C12.6603 6.81246 12.6752 6.7032 12.6636 6.59514C12.652 6.48708 12.6141 6.3835 12.5533 6.29341ZM10.48 8.66675H9.33333C9.15652 8.66675 8.98695 8.73699 8.86192 8.86201C8.7369 8.98703 8.66666 9.1566 8.66666 9.33341V14.0001H6.79999V9.33341C6.79999 9.1566 6.72976 8.98703 6.60473 8.86201C6.47971 8.73699 6.31014 8.66675 6.13333 8.66675H4.66666V7.33341H6.13333C6.31014 7.33341 6.47971 7.26318 6.60473 7.13815C6.72976 7.01313 6.79999 6.84356 6.79999 6.66675V4.53341C6.80175 3.86207 7.06922 3.21873 7.54394 2.74402C8.01865 2.26931 8.66199 2.00184 9.33333 2.00008H10.8V3.33341H10.2667C10.0409 3.30053 9.81087 3.31433 9.5907 3.37396C9.37053 3.43359 9.16494 3.53778 8.98666 3.68008C8.87847 3.79335 8.79435 3.92735 8.73935 4.07401C8.68435 4.22066 8.65963 4.37694 8.66666 4.53341V6.66675C8.66666 6.84356 8.7369 7.01313 8.86192 7.13815C8.98695 7.26318 9.15652 7.33341 9.33333 7.33341H11.0133L10.48 8.66675Z" fill="white"/>
</svg>
